%TF.GenerationSoftware,KiCad,Pcbnew,7.0.9*%
%TF.CreationDate,2024-05-20T07:51:08-06:00*%
%TF.ProjectId,RC11,52433131-2e6b-4696-9361-645f70636258,rev?*%
%TF.SameCoordinates,Original*%
%TF.FileFunction,Legend,Bot*%
%TF.FilePolarity,Positive*%
%FSLAX46Y46*%
G04 Gerber Fmt 4.6, Leading zero omitted, Abs format (unit mm)*
G04 Created by KiCad (PCBNEW 7.0.9) date 2024-05-20 07:51:08*
%MOMM*%
%LPD*%
G01*
G04 APERTURE LIST*
G04 Aperture macros list*
%AMRoundRect*
0 Rectangle with rounded corners*
0 $1 Rounding radius*
0 $2 $3 $4 $5 $6 $7 $8 $9 X,Y pos of 4 corners*
0 Add a 4 corners polygon primitive as box body*
4,1,4,$2,$3,$4,$5,$6,$7,$8,$9,$2,$3,0*
0 Add four circle primitives for the rounded corners*
1,1,$1+$1,$2,$3*
1,1,$1+$1,$4,$5*
1,1,$1+$1,$6,$7*
1,1,$1+$1,$8,$9*
0 Add four rect primitives between the rounded corners*
20,1,$1+$1,$2,$3,$4,$5,0*
20,1,$1+$1,$4,$5,$6,$7,0*
20,1,$1+$1,$6,$7,$8,$9,0*
20,1,$1+$1,$8,$9,$2,$3,0*%
G04 Aperture macros list end*
%ADD10C,2.625000*%
%ADD11C,4.395000*%
%ADD12C,0.001000*%
%ADD13C,1.446000*%
%ADD14C,1.530000*%
%ADD15C,2.445000*%
%ADD16R,1.950000X1.950000*%
%ADD17C,2.250000*%
%ADD18C,1.950000*%
%ADD19R,1.700000X1.700000*%
%ADD20O,1.700000X1.700000*%
%ADD21R,1.350000X1.350000*%
%ADD22O,1.350000X1.350000*%
%ADD23R,2.600000X2.600000*%
%ADD24C,2.600000*%
%ADD25C,3.200000*%
%ADD26R,1.308000X1.308000*%
%ADD27C,1.308000*%
%ADD28C,9.000000*%
%ADD29O,1.100000X2.000000*%
%ADD30O,1.100000X2.200000*%
%ADD31RoundRect,0.249999X-0.620001X-0.845001X0.620001X-0.845001X0.620001X0.845001X-0.620001X0.845001X0*%
%ADD32O,1.740000X2.190000*%
G04 APERTURE END LIST*
%LPC*%
D10*
%TO.C,J8*%
X70000000Y-146500000D03*
X74000000Y-146500000D03*
X78000000Y-146500000D03*
X82000000Y-146500000D03*
X86000000Y-146500000D03*
X90000000Y-146500000D03*
X94000000Y-146500000D03*
X98000000Y-146500000D03*
X72000000Y-150500000D03*
X76000000Y-150500000D03*
X80000000Y-150500000D03*
X84000000Y-150500000D03*
X88000000Y-150500000D03*
X92000000Y-150500000D03*
X96000000Y-150500000D03*
X70000000Y-154500000D03*
X74000000Y-154500000D03*
X78000000Y-154500000D03*
X82000000Y-154500000D03*
X86000000Y-154500000D03*
X90000000Y-154500000D03*
X94000000Y-154500000D03*
X98000000Y-154500000D03*
D11*
X63500000Y-151000000D03*
X104500000Y-151000000D03*
%TD*%
D12*
%TO.C,J12*%
X157988000Y-104510800D03*
X169418000Y-104510800D03*
D13*
X168148000Y-110860800D03*
X166878000Y-113400800D03*
X165608000Y-110860800D03*
X164338000Y-113400800D03*
X163068000Y-110860800D03*
X161798000Y-113400800D03*
X160528000Y-110860800D03*
X159258000Y-113400800D03*
D14*
X170328000Y-99610800D03*
X167788000Y-99610800D03*
X159618000Y-99610800D03*
X157078000Y-99610800D03*
D15*
X171448000Y-107560800D03*
X155958000Y-107560800D03*
%TD*%
D16*
%TO.C,RLY8*%
X132537200Y-132115600D03*
D17*
X134537200Y-138115600D03*
D18*
X132537200Y-144115600D03*
X120337200Y-132115600D03*
%TD*%
D16*
%TO.C,RLY2*%
X46109466Y-117753400D03*
D17*
X52109466Y-115753400D03*
D18*
X58109466Y-117753400D03*
X46109466Y-129953400D03*
%TD*%
D16*
%TO.C,RLY3*%
X63948732Y-112080600D03*
D17*
X69948732Y-110080600D03*
D18*
X75948732Y-112080600D03*
X63948732Y-124280600D03*
%TD*%
D16*
%TO.C,RLY4*%
X81787998Y-112080600D03*
D17*
X87787998Y-110080600D03*
D18*
X93787998Y-112080600D03*
X81787998Y-124280600D03*
%TD*%
D16*
%TO.C,RLY5*%
X99627264Y-112080600D03*
D17*
X105627264Y-110080600D03*
D18*
X111627264Y-112080600D03*
X99627264Y-124280600D03*
%TD*%
D16*
%TO.C,RLY6*%
X117466530Y-112080600D03*
D17*
X123466530Y-110080600D03*
D18*
X129466530Y-112080600D03*
X117466530Y-124280600D03*
%TD*%
D16*
%TO.C,RLY7*%
X135305800Y-112080600D03*
D17*
X141305800Y-110080600D03*
D18*
X147305800Y-112080600D03*
X135305800Y-124280600D03*
%TD*%
D19*
%TO.C,J5*%
X127863600Y-67802800D03*
D20*
X130403600Y-67802800D03*
X132943600Y-67802800D03*
X135483600Y-67802800D03*
X138023600Y-67802800D03*
X140563600Y-67802800D03*
X143103600Y-67802800D03*
X145643600Y-67802800D03*
%TD*%
D19*
%TO.C,J7*%
X127863600Y-52562800D03*
D20*
X130403600Y-52562800D03*
X132943600Y-52562800D03*
X135483600Y-52562800D03*
X138023600Y-52562800D03*
X140563600Y-52562800D03*
X143103600Y-52562800D03*
X145643600Y-52562800D03*
%TD*%
D21*
%TO.C,J11*%
X100193600Y-55001200D03*
D22*
X102193600Y-55001200D03*
X100193600Y-57001200D03*
X102193600Y-57001200D03*
X100193600Y-59001200D03*
X102193600Y-59001200D03*
%TD*%
D23*
%TO.C,KF2*%
X139701400Y-137449600D03*
X147321400Y-137449600D03*
D24*
X147321400Y-142529600D03*
X139701400Y-142529600D03*
X139701400Y-147609600D03*
X147321400Y-147609600D03*
X147321400Y-152689600D03*
X139701400Y-152689600D03*
%TD*%
D25*
%TO.C, *%
X175514000Y-156466600D03*
%TD*%
%TO.C, *%
X23520400Y-156517400D03*
%TD*%
%TO.C, *%
X23393400Y-33444200D03*
%TD*%
%TO.C, *%
X175539400Y-33469600D03*
%TD*%
D19*
%TO.C,J4*%
X87223600Y-67802800D03*
D20*
X89763600Y-67802800D03*
X92303600Y-67802800D03*
X94843600Y-67802800D03*
X97383600Y-67802800D03*
X99923600Y-67802800D03*
%TD*%
D19*
%TO.C,J6*%
X105003600Y-67802800D03*
D20*
X107543600Y-67802800D03*
X110083600Y-67802800D03*
X112623600Y-67802800D03*
X115163600Y-67802800D03*
X117703600Y-67802800D03*
X120243600Y-67802800D03*
X122783600Y-67802800D03*
%TD*%
D19*
%TO.C,J15*%
X87223600Y-52562800D03*
D20*
X89763600Y-52562800D03*
X92303600Y-52562800D03*
X94843600Y-52562800D03*
X97383600Y-52562800D03*
X99923600Y-52562800D03*
%TD*%
D19*
%TO.C,J16*%
X105003600Y-52562800D03*
D20*
X107543600Y-52562800D03*
X110083600Y-52562800D03*
X112623600Y-52562800D03*
X115163600Y-52562800D03*
X117703600Y-52562800D03*
X120243600Y-52562800D03*
X122783600Y-52562800D03*
%TD*%
D26*
%TO.C,J21*%
X143766800Y-44219800D03*
D27*
X141766800Y-44219800D03*
X139766800Y-44219800D03*
X137766800Y-44219800D03*
%TD*%
D28*
%TO.C,J14*%
X166471600Y-37033200D03*
%TD*%
%TO.C,J17*%
X48082200Y-151104600D03*
%TD*%
D23*
%TO.C,KF1*%
X28982800Y-138592600D03*
X36602800Y-138592600D03*
D24*
X28982800Y-143672600D03*
X36602800Y-143672600D03*
X28982800Y-148752600D03*
X36602800Y-148752600D03*
X36602800Y-153832600D03*
X28982800Y-153832600D03*
%TD*%
D25*
%TO.C,REF\u002A\u002A*%
X67147800Y-131365600D03*
X97627800Y-131365600D03*
X145887800Y-103485600D03*
X67147800Y-75485600D03*
X89887800Y-75485600D03*
X97627800Y-94785600D03*
X145887800Y-94785600D03*
X145887800Y-131365600D03*
X89887800Y-103485600D03*
X145887800Y-75485600D03*
%TD*%
D16*
%TO.C,RLY1*%
X47726600Y-98018600D03*
D17*
X49726600Y-104018600D03*
D18*
X47726600Y-110018600D03*
X35526600Y-98018600D03*
%TD*%
D29*
%TO.C,J9*%
X57429400Y-85871400D03*
D30*
X57429400Y-91471400D03*
X55279400Y-88671400D03*
%TD*%
D19*
%TO.C,J10*%
X78689200Y-68158400D03*
D20*
X76149200Y-68158400D03*
X73609200Y-68158400D03*
%TD*%
D19*
%TO.C,J18*%
X63881000Y-68158400D03*
D20*
X61341000Y-68158400D03*
X58801000Y-68158400D03*
%TD*%
D19*
%TO.C,J19*%
X170510200Y-151394200D03*
D20*
X170510200Y-148854200D03*
X170510200Y-146314200D03*
X170510200Y-143774200D03*
X170510200Y-141234200D03*
X170510200Y-138694200D03*
X170510200Y-136154200D03*
X170510200Y-133614200D03*
X170510200Y-131074200D03*
X170510200Y-128534200D03*
%TD*%
D31*
%TO.C,J13*%
X118135400Y-44439800D03*
D32*
X120675400Y-44439800D03*
X123215400Y-44439800D03*
X125755400Y-44439800D03*
X128295400Y-44439800D03*
%TD*%
D16*
%TO.C,RLY9*%
X40182800Y-129753400D03*
D17*
X34182800Y-131753400D03*
D18*
X28182800Y-129753400D03*
X40182800Y-117553400D03*
%TD*%
D23*
%TO.C,KF3*%
X80797400Y-46000800D03*
X80797400Y-38380800D03*
D24*
X75717400Y-38380800D03*
X75717400Y-46000800D03*
X70637400Y-38380800D03*
X70637400Y-46000800D03*
X65557400Y-38380800D03*
X65557400Y-46000800D03*
%TD*%
%LPD*%
M02*
