%TF.GenerationSoftware,KiCad,Pcbnew,7.0.9*%
%TF.CreationDate,2024-05-20T07:51:08-06:00*%
%TF.ProjectId,RC11,52433131-2e6b-4696-9361-645f70636258,rev?*%
%TF.SameCoordinates,Original*%
%TF.FileFunction,Soldermask,Top*%
%TF.FilePolarity,Negative*%
%FSLAX46Y46*%
G04 Gerber Fmt 4.6, Leading zero omitted, Abs format (unit mm)*
G04 Created by KiCad (PCBNEW 7.0.9) date 2024-05-20 07:51:08*
%MOMM*%
%LPD*%
G01*
G04 APERTURE LIST*
G04 Aperture macros list*
%AMRoundRect*
0 Rectangle with rounded corners*
0 $1 Rounding radius*
0 $2 $3 $4 $5 $6 $7 $8 $9 X,Y pos of 4 corners*
0 Add a 4 corners polygon primitive as box body*
4,1,4,$2,$3,$4,$5,$6,$7,$8,$9,$2,$3,0*
0 Add four circle primitives for the rounded corners*
1,1,$1+$1,$2,$3*
1,1,$1+$1,$4,$5*
1,1,$1+$1,$6,$7*
1,1,$1+$1,$8,$9*
0 Add four rect primitives between the rounded corners*
20,1,$1+$1,$2,$3,$4,$5,0*
20,1,$1+$1,$4,$5,$6,$7,0*
20,1,$1+$1,$6,$7,$8,$9,0*
20,1,$1+$1,$8,$9,$2,$3,0*%
G04 Aperture macros list end*
%ADD10C,2.625000*%
%ADD11C,4.395000*%
%ADD12RoundRect,0.150000X-0.625000X0.150000X-0.625000X-0.150000X0.625000X-0.150000X0.625000X0.150000X0*%
%ADD13RoundRect,0.249999X-0.650001X0.350001X-0.650001X-0.350001X0.650001X-0.350001X0.650001X0.350001X0*%
%ADD14RoundRect,0.250000X0.250000X0.475000X-0.250000X0.475000X-0.250000X-0.475000X0.250000X-0.475000X0*%
%ADD15RoundRect,0.250000X-0.250000X-0.475000X0.250000X-0.475000X0.250000X0.475000X-0.250000X0.475000X0*%
%ADD16RoundRect,0.250000X1.000000X-1.950000X1.000000X1.950000X-1.000000X1.950000X-1.000000X-1.950000X0*%
%ADD17RoundRect,0.250000X-1.000000X1.950000X-1.000000X-1.950000X1.000000X-1.950000X1.000000X1.950000X0*%
%ADD18R,1.800000X1.800000*%
%ADD19R,1.500000X2.000000*%
%ADD20R,3.800000X2.000000*%
%ADD21R,1.050000X3.210000*%
%ADD22R,10.530000X8.460000*%
%ADD23C,0.001000*%
%ADD24C,1.446000*%
%ADD25C,1.530000*%
%ADD26C,2.445000*%
%ADD27R,2.900000X5.400000*%
%ADD28RoundRect,0.150000X-0.150000X0.725000X-0.150000X-0.725000X0.150000X-0.725000X0.150000X0.725000X0*%
%ADD29R,1.950000X1.950000*%
%ADD30C,2.250000*%
%ADD31C,1.950000*%
%ADD32R,1.700000X1.700000*%
%ADD33O,1.700000X1.700000*%
%ADD34R,1.350000X1.350000*%
%ADD35O,1.350000X1.350000*%
%ADD36R,2.600000X2.600000*%
%ADD37C,2.600000*%
%ADD38C,3.200000*%
%ADD39RoundRect,0.200000X0.200000X0.275000X-0.200000X0.275000X-0.200000X-0.275000X0.200000X-0.275000X0*%
%ADD40RoundRect,0.200000X-0.200000X-0.275000X0.200000X-0.275000X0.200000X0.275000X-0.200000X0.275000X0*%
%ADD41R,1.500000X1.300000*%
%ADD42R,1.308000X1.308000*%
%ADD43C,1.308000*%
%ADD44RoundRect,1.025000X-1.125000X1.025000X-1.125000X-1.025000X1.125000X-1.025000X1.125000X1.025000X0*%
%ADD45R,4.300000X4.100000*%
%ADD46C,9.000000*%
%ADD47RoundRect,0.243750X0.243750X0.456250X-0.243750X0.456250X-0.243750X-0.456250X0.243750X-0.456250X0*%
%ADD48RoundRect,0.243750X-0.243750X-0.456250X0.243750X-0.456250X0.243750X0.456250X-0.243750X0.456250X0*%
%ADD49RoundRect,0.250000X-0.475000X0.250000X-0.475000X-0.250000X0.475000X-0.250000X0.475000X0.250000X0*%
%ADD50R,1.500000X0.450000*%
%ADD51O,1.100000X2.000000*%
%ADD52O,1.100000X2.200000*%
%ADD53R,0.900000X0.800000*%
%ADD54RoundRect,0.200000X-0.275000X0.200000X-0.275000X-0.200000X0.275000X-0.200000X0.275000X0.200000X0*%
%ADD55RoundRect,0.200000X0.275000X-0.200000X0.275000X0.200000X-0.275000X0.200000X-0.275000X-0.200000X0*%
%ADD56R,1.000000X2.200000*%
%ADD57R,1.500000X1.000000*%
%ADD58RoundRect,0.150000X-0.650000X-0.150000X0.650000X-0.150000X0.650000X0.150000X-0.650000X0.150000X0*%
%ADD59R,0.800000X0.900000*%
%ADD60R,0.850000X0.300000*%
%ADD61RoundRect,0.249999X-0.620001X-0.845001X0.620001X-0.845001X0.620001X0.845001X-0.620001X0.845001X0*%
%ADD62O,1.740000X2.190000*%
%ADD63RoundRect,0.250000X0.475000X-0.250000X0.475000X0.250000X-0.475000X0.250000X-0.475000X-0.250000X0*%
%ADD64R,1.100000X0.250000*%
%ADD65RoundRect,0.150000X0.825000X0.150000X-0.825000X0.150000X-0.825000X-0.150000X0.825000X-0.150000X0*%
G04 APERTURE END LIST*
D10*
%TO.C,J8*%
X70000000Y-146500000D03*
X74000000Y-146500000D03*
X78000000Y-146500000D03*
X82000000Y-146500000D03*
X86000000Y-146500000D03*
X90000000Y-146500000D03*
X94000000Y-146500000D03*
X98000000Y-146500000D03*
X72000000Y-150500000D03*
X76000000Y-150500000D03*
X80000000Y-150500000D03*
X84000000Y-150500000D03*
X88000000Y-150500000D03*
X92000000Y-150500000D03*
X96000000Y-150500000D03*
X70000000Y-154500000D03*
X74000000Y-154500000D03*
X78000000Y-154500000D03*
X82000000Y-154500000D03*
X86000000Y-154500000D03*
X90000000Y-154500000D03*
X94000000Y-154500000D03*
X98000000Y-154500000D03*
D11*
X63500000Y-151000000D03*
X104500000Y-151000000D03*
%TD*%
D12*
%TO.C,J2*%
X107996600Y-43559600D03*
X107996600Y-44559600D03*
X107996600Y-45559600D03*
X107996600Y-46559600D03*
D13*
X110521600Y-47859600D03*
X110521600Y-42259600D03*
%TD*%
D12*
%TO.C,J3*%
X97394600Y-43559600D03*
X97394600Y-44559600D03*
X97394600Y-45559600D03*
X97394600Y-46559600D03*
D13*
X99919600Y-47859600D03*
X99919600Y-42259600D03*
%TD*%
D14*
%TO.C,C1*%
X83347600Y-83830200D03*
X81447600Y-83830200D03*
%TD*%
%TO.C,C2*%
X78308200Y-87325200D03*
X76408200Y-87325200D03*
%TD*%
D15*
%TO.C,C3*%
X53822600Y-47879000D03*
X55722600Y-47879000D03*
%TD*%
D16*
%TO.C,C4*%
X54163000Y-41868200D03*
X54163000Y-33468200D03*
%TD*%
D17*
%TO.C,C5*%
X32700000Y-50689400D03*
X32700000Y-59089400D03*
%TD*%
D18*
%TO.C,D2*%
X46187400Y-40531800D03*
X46187400Y-36531800D03*
%TD*%
D19*
%TO.C,IC1*%
X85728600Y-87414800D03*
X83428600Y-87414800D03*
X81128600Y-87414800D03*
D20*
X83428600Y-93714800D03*
%TD*%
D21*
%TO.C,IC2*%
X51047900Y-48174750D03*
X49347900Y-48174750D03*
X47647900Y-48174750D03*
X45947900Y-48174750D03*
X44247900Y-48174750D03*
D22*
X47647900Y-57804750D03*
%TD*%
D23*
%TO.C,J12*%
X157988000Y-104510800D03*
X169418000Y-104510800D03*
D24*
X168148000Y-110860800D03*
X166878000Y-113400800D03*
X165608000Y-110860800D03*
X164338000Y-113400800D03*
X163068000Y-110860800D03*
X161798000Y-113400800D03*
X160528000Y-110860800D03*
X159258000Y-113400800D03*
D25*
X170328000Y-99610800D03*
X167788000Y-99610800D03*
X159618000Y-99610800D03*
X157078000Y-99610800D03*
D26*
X171448000Y-107560800D03*
X155958000Y-107560800D03*
%TD*%
D27*
%TO.C,L1*%
X39163800Y-39649400D03*
X29263800Y-39649400D03*
%TD*%
D28*
%TO.C,U3*%
X124307600Y-82255600D03*
X123037600Y-82255600D03*
X121767600Y-82255600D03*
X120497600Y-82255600D03*
X119227600Y-82255600D03*
X117957600Y-82255600D03*
X116687600Y-82255600D03*
X115417600Y-82255600D03*
X114147600Y-82255600D03*
X114147600Y-91805600D03*
X115417600Y-91805600D03*
X116687600Y-91805600D03*
X117957600Y-91805600D03*
X119227600Y-91805600D03*
X120497600Y-91805600D03*
X121767600Y-91805600D03*
X123037600Y-91805600D03*
X124307600Y-91805600D03*
%TD*%
D29*
%TO.C,RLY8*%
X132537200Y-132115600D03*
D30*
X134537200Y-138115600D03*
D31*
X132537200Y-144115600D03*
X120337200Y-132115600D03*
%TD*%
D29*
%TO.C,RLY2*%
X46109466Y-117753400D03*
D30*
X52109466Y-115753400D03*
D31*
X58109466Y-117753400D03*
X46109466Y-129953400D03*
%TD*%
D29*
%TO.C,RLY3*%
X63948732Y-112080600D03*
D30*
X69948732Y-110080600D03*
D31*
X75948732Y-112080600D03*
X63948732Y-124280600D03*
%TD*%
D29*
%TO.C,RLY4*%
X81787998Y-112080600D03*
D30*
X87787998Y-110080600D03*
D31*
X93787998Y-112080600D03*
X81787998Y-124280600D03*
%TD*%
D29*
%TO.C,RLY5*%
X99627264Y-112080600D03*
D30*
X105627264Y-110080600D03*
D31*
X111627264Y-112080600D03*
X99627264Y-124280600D03*
%TD*%
D29*
%TO.C,RLY6*%
X117466530Y-112080600D03*
D30*
X123466530Y-110080600D03*
D31*
X129466530Y-112080600D03*
X117466530Y-124280600D03*
%TD*%
D29*
%TO.C,RLY7*%
X135305800Y-112080600D03*
D30*
X141305800Y-110080600D03*
D31*
X147305800Y-112080600D03*
X135305800Y-124280600D03*
%TD*%
D15*
%TO.C,C8*%
X159156400Y-117246400D03*
X161056400Y-117246400D03*
%TD*%
D32*
%TO.C,J5*%
X127863600Y-67802800D03*
D33*
X130403600Y-67802800D03*
X132943600Y-67802800D03*
X135483600Y-67802800D03*
X138023600Y-67802800D03*
X140563600Y-67802800D03*
X143103600Y-67802800D03*
X145643600Y-67802800D03*
%TD*%
D32*
%TO.C,J7*%
X127863600Y-52562800D03*
D33*
X130403600Y-52562800D03*
X132943600Y-52562800D03*
X135483600Y-52562800D03*
X138023600Y-52562800D03*
X140563600Y-52562800D03*
X143103600Y-52562800D03*
X145643600Y-52562800D03*
%TD*%
D34*
%TO.C,J11*%
X100193600Y-55001200D03*
D35*
X102193600Y-55001200D03*
X100193600Y-57001200D03*
X102193600Y-57001200D03*
X100193600Y-59001200D03*
X102193600Y-59001200D03*
%TD*%
D36*
%TO.C,KF2*%
X139701400Y-137449600D03*
X147321400Y-137449600D03*
D37*
X147321400Y-142529600D03*
X139701400Y-142529600D03*
X139701400Y-147609600D03*
X147321400Y-147609600D03*
X147321400Y-152689600D03*
X139701400Y-152689600D03*
%TD*%
D15*
%TO.C,C6*%
X87492800Y-55915600D03*
X89392800Y-55915600D03*
%TD*%
D38*
%TO.C, *%
X175514000Y-156466600D03*
%TD*%
%TO.C, *%
X23520400Y-156517400D03*
%TD*%
%TO.C, *%
X23393400Y-33444200D03*
%TD*%
%TO.C, *%
X175539400Y-33469600D03*
%TD*%
D39*
%TO.C,R11*%
X156262800Y-117195600D03*
X154612800Y-117195600D03*
%TD*%
D40*
%TO.C,R1*%
X128936000Y-86827400D03*
X130586000Y-86827400D03*
%TD*%
%TO.C,R2*%
X138562600Y-86725800D03*
X140212600Y-86725800D03*
%TD*%
D41*
%TO.C,U1*%
X128389400Y-83199400D03*
X130929400Y-83199400D03*
X130929400Y-74199400D03*
X128389400Y-74199400D03*
%TD*%
%TO.C,U2*%
X138041400Y-83224800D03*
X140581400Y-83224800D03*
X140581400Y-74224800D03*
X138041400Y-74224800D03*
%TD*%
D32*
%TO.C,J4*%
X87223600Y-67802800D03*
D33*
X89763600Y-67802800D03*
X92303600Y-67802800D03*
X94843600Y-67802800D03*
X97383600Y-67802800D03*
X99923600Y-67802800D03*
%TD*%
D32*
%TO.C,J6*%
X105003600Y-67802800D03*
D33*
X107543600Y-67802800D03*
X110083600Y-67802800D03*
X112623600Y-67802800D03*
X115163600Y-67802800D03*
X117703600Y-67802800D03*
X120243600Y-67802800D03*
X122783600Y-67802800D03*
%TD*%
D32*
%TO.C,J15*%
X87223600Y-52562800D03*
D33*
X89763600Y-52562800D03*
X92303600Y-52562800D03*
X94843600Y-52562800D03*
X97383600Y-52562800D03*
X99923600Y-52562800D03*
%TD*%
D32*
%TO.C,J16*%
X105003600Y-52562800D03*
D33*
X107543600Y-52562800D03*
X110083600Y-52562800D03*
X112623600Y-52562800D03*
X115163600Y-52562800D03*
X117703600Y-52562800D03*
X120243600Y-52562800D03*
X122783600Y-52562800D03*
%TD*%
D42*
%TO.C,J21*%
X143766800Y-44219800D03*
D43*
X141766800Y-44219800D03*
X139766800Y-44219800D03*
X137766800Y-44219800D03*
%TD*%
D44*
%TO.C,D1*%
X54417400Y-140411200D03*
D45*
X46217400Y-140411200D03*
%TD*%
D46*
%TO.C,J14*%
X166471600Y-37033200D03*
%TD*%
%TO.C,J17*%
X48082200Y-151104600D03*
%TD*%
D36*
%TO.C,KF1*%
X28982800Y-138592600D03*
X36602800Y-138592600D03*
D37*
X28982800Y-143672600D03*
X36602800Y-143672600D03*
X28982800Y-148752600D03*
X36602800Y-148752600D03*
X36602800Y-153832600D03*
X28982800Y-153832600D03*
%TD*%
D38*
%TO.C,REF\u002A\u002A*%
X67147800Y-131365600D03*
X97627800Y-131365600D03*
X145887800Y-103485600D03*
X67147800Y-75485600D03*
X89887800Y-75485600D03*
X97627800Y-94785600D03*
X145887800Y-94785600D03*
X145887800Y-131365600D03*
X89887800Y-103485600D03*
X145887800Y-75485600D03*
%TD*%
D47*
%TO.C,D3*%
X58747900Y-101762600D03*
X56872900Y-101762600D03*
%TD*%
D48*
%TO.C,D4*%
X54485300Y-110576400D03*
X56360300Y-110576400D03*
%TD*%
%TO.C,D5*%
X73332100Y-106360000D03*
X75207100Y-106360000D03*
%TD*%
%TO.C,D6*%
X89588100Y-106563200D03*
X91463100Y-106563200D03*
%TD*%
%TO.C,D7*%
X108714300Y-106537800D03*
X110589300Y-106537800D03*
%TD*%
%TO.C,D8*%
X126494300Y-106512400D03*
X128369300Y-106512400D03*
%TD*%
%TO.C,D9*%
X140311900Y-104302600D03*
X142186900Y-104302600D03*
%TD*%
D47*
%TO.C,D10*%
X114526300Y-138719600D03*
X112651300Y-138719600D03*
%TD*%
D40*
%TO.C,R3*%
X53150000Y-101864200D03*
X54800000Y-101864200D03*
%TD*%
D39*
%TO.C,R4*%
X59778400Y-110576400D03*
X58128400Y-110576400D03*
%TD*%
%TO.C,R5*%
X78726800Y-106410800D03*
X77076800Y-106410800D03*
%TD*%
%TO.C,R6*%
X95211400Y-106563200D03*
X93561400Y-106563200D03*
%TD*%
%TO.C,R7*%
X114007400Y-106537800D03*
X112357400Y-106537800D03*
%TD*%
%TO.C,R8*%
X131812800Y-106512400D03*
X130162800Y-106512400D03*
%TD*%
D40*
%TO.C,R9*%
X136411200Y-106568800D03*
X138061200Y-106568800D03*
%TD*%
%TO.C,R10*%
X109042200Y-138795800D03*
X110692200Y-138795800D03*
%TD*%
D29*
%TO.C,RLY1*%
X47726600Y-98018600D03*
D30*
X49726600Y-104018600D03*
D31*
X47726600Y-110018600D03*
X35526600Y-98018600D03*
%TD*%
D49*
%TO.C,C7*%
X52070000Y-91048800D03*
X52070000Y-92948800D03*
%TD*%
%TO.C,C9*%
X47371000Y-91074200D03*
X47371000Y-92974200D03*
%TD*%
%TO.C,C30*%
X71501000Y-79466400D03*
X71501000Y-81366400D03*
%TD*%
D14*
%TO.C,C31*%
X58978800Y-95834200D03*
X57078800Y-95834200D03*
%TD*%
D50*
%TO.C,J9*%
X57179400Y-87371400D03*
X57179400Y-88021400D03*
X57179400Y-88671400D03*
X57179400Y-89321400D03*
X57179400Y-89971400D03*
D51*
X57429400Y-85871400D03*
D52*
X57429400Y-91471400D03*
X55279400Y-88671400D03*
%TD*%
D53*
%TO.C,Q1*%
X63397600Y-96784200D03*
X63397600Y-94884200D03*
X61397600Y-95834200D03*
%TD*%
%TO.C,Q2*%
X66274400Y-94884200D03*
X66274400Y-96784200D03*
X68274400Y-95834200D03*
%TD*%
D54*
%TO.C,R14*%
X34925000Y-90869000D03*
X34925000Y-92519000D03*
%TD*%
%TO.C,R15*%
X38938200Y-90869000D03*
X38938200Y-92519000D03*
%TD*%
%TO.C,R16*%
X42951400Y-67399400D03*
X42951400Y-69049400D03*
%TD*%
D55*
%TO.C,R17*%
X52755800Y-72212200D03*
X52755800Y-70562200D03*
%TD*%
D56*
%TO.C,U4*%
X34944400Y-88519000D03*
X36944400Y-88519000D03*
X38944400Y-88519000D03*
X40944400Y-88519000D03*
X42944400Y-88519000D03*
X44944400Y-88519000D03*
X46944400Y-88519000D03*
X48944400Y-88519000D03*
D57*
X50444400Y-85519000D03*
X50444400Y-83519000D03*
X50444400Y-81519000D03*
X50444400Y-79519000D03*
X50444400Y-77519000D03*
X50444400Y-75519000D03*
D56*
X48944400Y-72519000D03*
X46944400Y-72519000D03*
X44944400Y-72519000D03*
X42944400Y-72519000D03*
X40944400Y-72519000D03*
X38944400Y-72519000D03*
X36944400Y-72519000D03*
X34944400Y-72519000D03*
%TD*%
D58*
%TO.C,U8*%
X61459000Y-79425800D03*
X61459000Y-80695800D03*
X61459000Y-81965800D03*
X61459000Y-83235800D03*
X61459000Y-84505800D03*
X61459000Y-85775800D03*
X61459000Y-87045800D03*
X61459000Y-88315800D03*
X67959000Y-88315800D03*
X67959000Y-87045800D03*
X67959000Y-85775800D03*
X67959000Y-84505800D03*
X67959000Y-83235800D03*
X67959000Y-81965800D03*
X67959000Y-80695800D03*
X67959000Y-79425800D03*
%TD*%
D54*
%TO.C,R12*%
X99720400Y-63411600D03*
X99720400Y-65061600D03*
%TD*%
%TO.C,R13*%
X95605600Y-63411600D03*
X95605600Y-65061600D03*
%TD*%
D32*
%TO.C,J10*%
X78689200Y-68158400D03*
D33*
X76149200Y-68158400D03*
X73609200Y-68158400D03*
%TD*%
D32*
%TO.C,J18*%
X63881000Y-68158400D03*
D33*
X61341000Y-68158400D03*
X58801000Y-68158400D03*
%TD*%
D59*
%TO.C,D11*%
X166105800Y-156509000D03*
X168005800Y-156509000D03*
X167055800Y-154509000D03*
%TD*%
D60*
%TO.C,IC3*%
X161035800Y-137283800D03*
X161035800Y-137783800D03*
X161035800Y-138283800D03*
X161035800Y-138783800D03*
X164185800Y-138783800D03*
X164185800Y-138283800D03*
X164185800Y-137783800D03*
X164185800Y-137283800D03*
%TD*%
D32*
%TO.C,J19*%
X170510200Y-151394200D03*
D33*
X170510200Y-148854200D03*
X170510200Y-146314200D03*
X170510200Y-143774200D03*
X170510200Y-141234200D03*
X170510200Y-138694200D03*
X170510200Y-136154200D03*
X170510200Y-133614200D03*
X170510200Y-131074200D03*
X170510200Y-128534200D03*
%TD*%
D40*
%TO.C,R18*%
X162141400Y-146288800D03*
X163791400Y-146288800D03*
%TD*%
%TO.C,R19*%
X162014400Y-142148600D03*
X163664400Y-142148600D03*
%TD*%
D54*
%TO.C,R20*%
X163169600Y-132763800D03*
X163169600Y-134413800D03*
%TD*%
D39*
%TO.C,R21*%
X158559000Y-133665000D03*
X156909000Y-133665000D03*
%TD*%
%TO.C,R22*%
X158533600Y-137805200D03*
X156883600Y-137805200D03*
%TD*%
D61*
%TO.C,J13*%
X118135400Y-44439800D03*
D62*
X120675400Y-44439800D03*
X123215400Y-44439800D03*
X125755400Y-44439800D03*
X128295400Y-44439800D03*
%TD*%
D59*
%TO.C,D12*%
X155031400Y-157931400D03*
X156931400Y-157931400D03*
X155981400Y-155931400D03*
%TD*%
D63*
%TO.C,C11*%
X166268400Y-152420400D03*
X166268400Y-150520400D03*
%TD*%
D64*
%TO.C,U6*%
X157412800Y-149530600D03*
X157412800Y-150030600D03*
X157412800Y-150530600D03*
X157412800Y-151030600D03*
X157412800Y-151530600D03*
X161712800Y-151530600D03*
X161712800Y-151030600D03*
X161712800Y-150530600D03*
X161712800Y-150030600D03*
X161712800Y-149530600D03*
%TD*%
D29*
%TO.C,RLY9*%
X40182800Y-129753400D03*
D30*
X34182800Y-131753400D03*
D31*
X28182800Y-129753400D03*
X40182800Y-117553400D03*
%TD*%
D63*
%TO.C,C16*%
X91287600Y-46644600D03*
X91287600Y-44744600D03*
%TD*%
D49*
%TO.C,C17*%
X86055200Y-44846200D03*
X86055200Y-46746200D03*
%TD*%
D65*
%TO.C,U9*%
X91197200Y-42748200D03*
X91197200Y-41478200D03*
X91197200Y-40208200D03*
X91197200Y-38938200D03*
X86247200Y-38938200D03*
X86247200Y-40208200D03*
X86247200Y-41478200D03*
X86247200Y-42748200D03*
%TD*%
D36*
%TO.C,KF3*%
X80797400Y-46000800D03*
X80797400Y-38380800D03*
D37*
X75717400Y-38380800D03*
X75717400Y-46000800D03*
X70637400Y-38380800D03*
X70637400Y-46000800D03*
X65557400Y-38380800D03*
X65557400Y-46000800D03*
%TD*%
D48*
%TO.C,D13*%
X27360400Y-110591600D03*
X29235400Y-110591600D03*
%TD*%
D39*
%TO.C,R23*%
X29146000Y-105994200D03*
X27496000Y-105994200D03*
%TD*%
M02*
