M48
; DRILL file {KiCad 7.0.9} date Sat May 18 15:30:10 2024
; FORMAT={-:-/ absolute / inch / decimal}
; #@! TF.CreationDate,2024-05-18T15:30:10-06:00
; #@! TF.GenerationSoftware,Kicad,Pcbnew,7.0.9
; #@! TF.FileFunction,Plated,1,2,PTH
FMAT,2
INCH
; #@! TA.AperFunction,Plated,PTH,ComponentDrill
T1C0.0315
; #@! TA.AperFunction,Plated,PTH,ComponentDrill
T2C0.0350
; #@! TA.AperFunction,Plated,PTH,ComponentDrill
T3C0.0394
; #@! TA.AperFunction,Plated,PTH,ComponentDrill
T4C0.0469
; #@! TA.AperFunction,Plated,PTH,ComponentDrill
T5C0.0512
; #@! TA.AperFunction,Plated,PTH,ComponentDrill
T6C0.0591
%
G90
G05
T1
X2.2362Y-1.6791
X2.2362Y-1.7776
X2.7526Y-2.5581
X2.7526Y-2.6581
X2.7526Y-2.9972
X2.7526Y-3.0972
X3.0526Y-2.5581
X3.0526Y-2.6581
X3.0526Y-2.9972
X3.0526Y-3.0972
X3.2281Y-3.4911
X3.2291Y-3.2894
X3.2333Y-3.0059
X3.2386Y-2.5374
X3.2411Y-2.6811
X3.3199Y-1.0955
X3.3986Y-1.0955
X3.4774Y-1.0955
X3.5561Y-1.0955
X3.6281Y-3.4911
X3.6291Y-3.2894
X3.6333Y-3.0059
X3.6386Y-2.5374
X3.6411Y-2.6811
X3.7904Y-1.5148
X3.7904Y-1.6132
X3.9902Y-1.5177
X3.9902Y-1.6161
T2
X3.7965Y-1.3325
X3.8965Y-1.3325
X3.9965Y-1.3325
T3
X1.1287Y-1.3185
X1.1307Y-1.9173
X1.2287Y-1.3185
X1.2307Y-1.9173
X1.3287Y-1.3185
X1.3307Y-1.9173
X1.4287Y-1.3185
X1.4307Y-1.9173
X1.5287Y-1.3185
X1.5307Y-1.9173
X1.6287Y-1.3185
X1.6307Y-1.9173
X1.7287Y-1.3185
X1.7307Y-1.9173
X1.8287Y-1.3185
X1.8307Y-1.9173
X1.9287Y-1.3185
X1.9307Y-1.9173
X2.0287Y-1.3185
X2.0307Y-1.9173
X2.1287Y-1.3185
X2.1307Y-1.9173
X2.2287Y-1.3185
X2.2307Y-1.9173
X2.3287Y-1.3185
X2.3307Y-1.9173
X2.4287Y-1.3185
X2.4307Y-1.9173
X2.5287Y-1.3185
X2.5307Y-1.9173
X4.113Y-2.8356
X4.1136Y-3.0335
X4.213Y-2.8356
X4.2136Y-3.0335
X4.2835Y-1.1957
X4.313Y-2.8356
X4.4803Y-1.1957
X4.8287Y-1.1957
X5.0256Y-1.1957
T4
X2.8411Y-1.1396
X2.9411Y-1.1396
X3.0411Y-1.1396
X3.1411Y-1.1396
T5
X4.875Y-1.6004
X4.875Y-1.7972
X4.875Y-1.9941
X4.875Y-2.1909
X4.875Y-2.3878
X4.875Y-2.5846
X4.875Y-2.7815
X4.875Y-2.9783
X4.875Y-3.1752
X4.875Y-3.372
X4.875Y-3.5689
T6
X4.3829Y-1.5384
X4.3829Y-2.4281
T0
M30
