%TF.GenerationSoftware,KiCad,Pcbnew,(6.0.10)*%
%TF.CreationDate,2023-04-23T08:01:19-06:00*%
%TF.ProjectId,AS15,41533135-2e6b-4696-9361-645f70636258,rev?*%
%TF.SameCoordinates,Original*%
%TF.FileFunction,Soldermask,Top*%
%TF.FilePolarity,Negative*%
%FSLAX46Y46*%
G04 Gerber Fmt 4.6, Leading zero omitted, Abs format (unit mm)*
G04 Created by KiCad (PCBNEW (6.0.10)) date 2023-04-23 08:01:19*
%MOMM*%
%LPD*%
G01*
G04 APERTURE LIST*
G04 Aperture macros list*
%AMRoundRect*
0 Rectangle with rounded corners*
0 $1 Rounding radius*
0 $2 $3 $4 $5 $6 $7 $8 $9 X,Y pos of 4 corners*
0 Add a 4 corners polygon primitive as box body*
4,1,4,$2,$3,$4,$5,$6,$7,$8,$9,$2,$3,0*
0 Add four circle primitives for the rounded corners*
1,1,$1+$1,$2,$3*
1,1,$1+$1,$4,$5*
1,1,$1+$1,$6,$7*
1,1,$1+$1,$8,$9*
0 Add four rect primitives between the rounded corners*
20,1,$1+$1,$2,$3,$4,$5,0*
20,1,$1+$1,$4,$5,$6,$7,0*
20,1,$1+$1,$6,$7,$8,$9,0*
20,1,$1+$1,$8,$9,$2,$3,0*%
G04 Aperture macros list end*
%ADD10R,2.500000X1.800000*%
%ADD11R,1.700000X1.700000*%
%ADD12O,1.700000X1.700000*%
%ADD13RoundRect,0.150000X-0.150000X-0.625000X0.150000X-0.625000X0.150000X0.625000X-0.150000X0.625000X0*%
%ADD14RoundRect,0.250000X-0.350000X-0.650000X0.350000X-0.650000X0.350000X0.650000X-0.350000X0.650000X0*%
%ADD15R,1.800000X2.500000*%
%ADD16R,5.400000X2.900000*%
%ADD17R,2.600000X2.600000*%
%ADD18C,2.600000*%
%ADD19RoundRect,0.250000X-1.000000X1.950000X-1.000000X-1.950000X1.000000X-1.950000X1.000000X1.950000X0*%
%ADD20R,1.350000X1.350000*%
%ADD21O,1.350000X1.350000*%
%ADD22RoundRect,0.250000X-0.475000X0.250000X-0.475000X-0.250000X0.475000X-0.250000X0.475000X0.250000X0*%
%ADD23RoundRect,0.266400X0.808600X0.473600X-0.808600X0.473600X-0.808600X-0.473600X0.808600X-0.473600X0*%
%ADD24C,0.001000*%
%ADD25C,1.446000*%
%ADD26C,1.530000*%
%ADD27C,2.445000*%
%ADD28R,1.050000X3.210000*%
%ADD29R,10.530000X8.460000*%
%ADD30RoundRect,0.250000X0.475000X-0.250000X0.475000X0.250000X-0.475000X0.250000X-0.475000X-0.250000X0*%
%ADD31R,2.715000X2.715000*%
%ADD32C,2.715000*%
%ADD33C,4.485000*%
%ADD34RoundRect,0.200000X-0.200000X-0.275000X0.200000X-0.275000X0.200000X0.275000X-0.200000X0.275000X0*%
%ADD35O,2.500000X2.500000*%
%ADD36R,2.500000X2.500000*%
%ADD37RoundRect,0.200000X0.275000X-0.200000X0.275000X0.200000X-0.275000X0.200000X-0.275000X-0.200000X0*%
%ADD38RoundRect,0.250000X-0.250000X-0.475000X0.250000X-0.475000X0.250000X0.475000X-0.250000X0.475000X0*%
%ADD39C,4.300000*%
%ADD40R,0.850000X0.300000*%
%ADD41RoundRect,0.150000X-0.587500X-0.150000X0.587500X-0.150000X0.587500X0.150000X-0.587500X0.150000X0*%
%ADD42RoundRect,0.150000X0.587500X0.150000X-0.587500X0.150000X-0.587500X-0.150000X0.587500X-0.150000X0*%
%ADD43R,0.450000X1.500000*%
%ADD44O,2.000000X1.100000*%
%ADD45O,2.200000X1.100000*%
%ADD46C,2.999999*%
%ADD47RoundRect,0.250000X1.950000X1.000000X-1.950000X1.000000X-1.950000X-1.000000X1.950000X-1.000000X0*%
%ADD48R,1.500000X2.000000*%
%ADD49R,3.800000X2.000000*%
%ADD50RoundRect,0.200000X0.200000X0.275000X-0.200000X0.275000X-0.200000X-0.275000X0.200000X-0.275000X0*%
%ADD51R,1.800000X1.800000*%
%ADD52RoundRect,1.025000X1.125000X-1.025000X1.125000X1.025000X-1.125000X1.025000X-1.125000X-1.025000X0*%
%ADD53R,4.300000X4.100000*%
%ADD54C,3.800000*%
%ADD55RoundRect,0.042000X-0.943000X-0.258000X0.943000X-0.258000X0.943000X0.258000X-0.943000X0.258000X0*%
%ADD56RoundRect,0.250000X0.620000X0.845000X-0.620000X0.845000X-0.620000X-0.845000X0.620000X-0.845000X0*%
%ADD57O,1.740000X2.190000*%
%ADD58RoundRect,0.243750X0.456250X-0.243750X0.456250X0.243750X-0.456250X0.243750X-0.456250X-0.243750X0*%
%ADD59RoundRect,0.250000X0.250000X0.475000X-0.250000X0.475000X-0.250000X-0.475000X0.250000X-0.475000X0*%
%ADD60R,1.308000X1.308000*%
%ADD61C,1.308000*%
%ADD62C,3.302000*%
%ADD63R,3.000000X3.000000*%
%ADD64C,3.000000*%
%ADD65C,3.200000*%
G04 APERTURE END LIST*
D10*
%TO.C,D12*%
X182100000Y-51100000D03*
X178100000Y-51100000D03*
%TD*%
%TO.C,D11*%
X174900000Y-51200000D03*
X170900000Y-51200000D03*
%TD*%
D11*
%TO.C,J19*%
X28400000Y-51200000D03*
D12*
X28400000Y-48660000D03*
X28400000Y-46120000D03*
X28400000Y-43580000D03*
X28400000Y-41040000D03*
X28400000Y-38500000D03*
X28400000Y-35960000D03*
X28400000Y-33420000D03*
%TD*%
D13*
%TO.C,J13*%
X109500000Y-101625000D03*
X110500000Y-101625000D03*
X111500000Y-101625000D03*
X112500000Y-101625000D03*
D14*
X113800000Y-99100000D03*
X108200000Y-99100000D03*
%TD*%
D15*
%TO.C,D5*%
X133300000Y-80100000D03*
X133300000Y-76100000D03*
%TD*%
D11*
%TO.C,J11*%
X114135000Y-52915000D03*
D12*
X114135000Y-50375000D03*
X114135000Y-47835000D03*
X114135000Y-45295000D03*
X114135000Y-42755000D03*
X114135000Y-40215000D03*
X114135000Y-37675000D03*
X114135000Y-35135000D03*
%TD*%
D16*
%TO.C,L1*%
X107900000Y-136950000D03*
X107900000Y-127050000D03*
%TD*%
D17*
%TO.C,KF1*%
X178180000Y-116800000D03*
X178180000Y-124420000D03*
D18*
X173100000Y-116800000D03*
X173100000Y-124420000D03*
X168020000Y-124420000D03*
X168020000Y-116800000D03*
X162940000Y-116800000D03*
X162940000Y-124420000D03*
X157860000Y-124420000D03*
X157860000Y-116800000D03*
X152780000Y-124420000D03*
X152780000Y-116800000D03*
%TD*%
D19*
%TO.C,C7*%
X140800000Y-128200000D03*
X140800000Y-136600000D03*
%TD*%
D11*
%TO.C,J9*%
X114135000Y-93555000D03*
D12*
X114135000Y-91015000D03*
X114135000Y-88475000D03*
X114135000Y-85935000D03*
X114135000Y-83395000D03*
X114135000Y-80855000D03*
%TD*%
D20*
%TO.C,J25*%
X59600000Y-69400000D03*
D21*
X59600000Y-67400000D03*
X59600000Y-65400000D03*
X59600000Y-63400000D03*
X59600000Y-61400000D03*
X59600000Y-59400000D03*
X59600000Y-57400000D03*
X59600000Y-55400000D03*
X59600000Y-53400000D03*
X59600000Y-51400000D03*
%TD*%
D22*
%TO.C,C6*%
X133200000Y-127350000D03*
X133200000Y-129250000D03*
%TD*%
D11*
%TO.C,J6*%
X129375000Y-52915000D03*
D12*
X129375000Y-50375000D03*
X129375000Y-47835000D03*
X129375000Y-45295000D03*
X129375000Y-42755000D03*
X129375000Y-40215000D03*
X129375000Y-37675000D03*
X129375000Y-35135000D03*
%TD*%
D23*
%TO.C,U2*%
X143880000Y-54370000D03*
X143880000Y-51830000D03*
X135320000Y-51830000D03*
X135320000Y-54370000D03*
%TD*%
D24*
%TO.C,J8*%
X178600000Y-33689500D03*
X178600000Y-45119500D03*
D25*
X172250000Y-43849500D03*
X169710000Y-42579500D03*
X172250000Y-41309500D03*
X169710000Y-40039500D03*
X172250000Y-38769500D03*
X169710000Y-37499500D03*
X172250000Y-36229500D03*
X169710000Y-34959500D03*
D26*
X183500000Y-46029500D03*
X183500000Y-43489500D03*
X183500000Y-35319500D03*
X183500000Y-32779500D03*
D27*
X175550000Y-47149500D03*
X175550000Y-31659500D03*
%TD*%
D28*
%TO.C,IC2*%
X129800000Y-125070000D03*
X128100000Y-125070000D03*
X126400000Y-125070000D03*
X124700000Y-125070000D03*
X123000000Y-125070000D03*
D29*
X126400000Y-134700000D03*
%TD*%
D30*
%TO.C,C3*%
X117900000Y-93550000D03*
X117900000Y-91650000D03*
%TD*%
D31*
%TO.C,J7*%
X163500000Y-94720000D03*
D32*
X163500000Y-90275000D03*
X163500000Y-85830000D03*
X163500000Y-81380000D03*
X163500000Y-76935000D03*
X163500000Y-72490000D03*
X169850000Y-72490000D03*
X169850000Y-76935000D03*
X169850000Y-81380000D03*
X169850000Y-85830000D03*
X169850000Y-90275000D03*
X169850000Y-94720000D03*
D33*
X164520000Y-101145000D03*
X175950000Y-83605000D03*
X164520000Y-66065000D03*
%TD*%
D11*
%TO.C,J16*%
X76660000Y-68980000D03*
D12*
X76660000Y-66440000D03*
X76660000Y-63900000D03*
X76660000Y-61360000D03*
X76660000Y-58820000D03*
X76660000Y-56280000D03*
X76660000Y-53740000D03*
X76660000Y-51200000D03*
%TD*%
D34*
%TO.C,R15*%
X131875000Y-41600000D03*
X133525000Y-41600000D03*
%TD*%
D35*
%TO.C,K2*%
X140872500Y-103600000D03*
X140872500Y-91600000D03*
D36*
X138872500Y-97600000D03*
D35*
X153072500Y-91600000D03*
X153072500Y-103600000D03*
%TD*%
D34*
%TO.C,R14*%
X163750000Y-56900000D03*
X165400000Y-56900000D03*
%TD*%
D22*
%TO.C,C4*%
X123100000Y-105800000D03*
X123100000Y-107700000D03*
%TD*%
D37*
%TO.C,R10*%
X139300000Y-64025000D03*
X139300000Y-62375000D03*
%TD*%
D23*
%TO.C,U1*%
X143880000Y-48420000D03*
X143880000Y-45880000D03*
X135320000Y-45880000D03*
X135320000Y-48420000D03*
%TD*%
D11*
%TO.C,J18*%
X28400000Y-78120000D03*
D12*
X28400000Y-75580000D03*
X28400000Y-73040000D03*
X28400000Y-70500000D03*
X28400000Y-67960000D03*
X28400000Y-65420000D03*
X28400000Y-62880000D03*
X28400000Y-60340000D03*
X28400000Y-57800000D03*
X28400000Y-55260000D03*
%TD*%
D34*
%TO.C,R16*%
X147575000Y-57500000D03*
X149225000Y-57500000D03*
%TD*%
D30*
%TO.C,C2*%
X165300000Y-30750000D03*
X165300000Y-28850000D03*
%TD*%
D20*
%TO.C,J3*%
X116573400Y-80585000D03*
D21*
X116573400Y-78585000D03*
X118573400Y-80585000D03*
X118573400Y-78585000D03*
X120573400Y-80585000D03*
X120573400Y-78585000D03*
%TD*%
D38*
%TO.C,C10*%
X173150000Y-138300000D03*
X175050000Y-138300000D03*
%TD*%
D39*
%TO.C, *%
X179410000Y-142560000D03*
%TD*%
D34*
%TO.C,R2*%
X146525000Y-54400000D03*
X148175000Y-54400000D03*
%TD*%
D40*
%TO.C,IC3*%
X142725000Y-58350000D03*
X142725000Y-58850000D03*
X142725000Y-59350000D03*
X142725000Y-59850000D03*
X145875000Y-59850000D03*
X145875000Y-59350000D03*
X145875000Y-58850000D03*
X145875000Y-58350000D03*
%TD*%
D34*
%TO.C,R3*%
X163750000Y-58700000D03*
X165400000Y-58700000D03*
%TD*%
D11*
%TO.C,J4*%
X129375000Y-93555000D03*
D12*
X129375000Y-91015000D03*
X129375000Y-88475000D03*
X129375000Y-85935000D03*
X129375000Y-83395000D03*
X129375000Y-80855000D03*
%TD*%
D37*
%TO.C,R8*%
X143550000Y-64025000D03*
X143550000Y-62375000D03*
%TD*%
D35*
%TO.C,K1*%
X140972500Y-84900000D03*
X140972500Y-72900000D03*
D36*
X138972500Y-78900000D03*
D35*
X153172500Y-72900000D03*
X153172500Y-84900000D03*
%TD*%
D41*
%TO.C,Q3*%
X132562500Y-90450000D03*
X132562500Y-92350000D03*
X134437500Y-91400000D03*
%TD*%
D37*
%TO.C,R9*%
X147800000Y-64025000D03*
X147800000Y-62375000D03*
%TD*%
D42*
%TO.C,D4*%
X165937500Y-55150000D03*
X165937500Y-53250000D03*
X164062500Y-54200000D03*
%TD*%
D43*
%TO.C,J24*%
X31300000Y-100550000D03*
X30650000Y-100550000D03*
X30000000Y-100550000D03*
X29350000Y-100550000D03*
X28700000Y-100550000D03*
D44*
X32800000Y-100800000D03*
D45*
X27200000Y-100800000D03*
X30000000Y-98650000D03*
%TD*%
D42*
%TO.C,D6*%
X161100000Y-51600000D03*
X161100000Y-49700000D03*
X159225000Y-50650000D03*
%TD*%
D46*
%TO.C,REF\u002A\u002A*%
X102405000Y-75915000D03*
X84625000Y-75915000D03*
X84625000Y-96235000D03*
X102405000Y-96235000D03*
%TD*%
D47*
%TO.C,C8*%
X110900000Y-110500000D03*
X102500000Y-110500000D03*
%TD*%
D11*
%TO.C,J20*%
X106375000Y-66075000D03*
D12*
X106375000Y-63535000D03*
X106375000Y-60995000D03*
X106375000Y-58455000D03*
X106375000Y-55915000D03*
X106375000Y-53375000D03*
X106375000Y-50835000D03*
X106375000Y-48295000D03*
%TD*%
D11*
%TO.C,J2*%
X84420000Y-92300000D03*
D12*
X84420000Y-89760000D03*
X84420000Y-87220000D03*
X84420000Y-84680000D03*
X84420000Y-82140000D03*
X84420000Y-79600000D03*
%TD*%
D34*
%TO.C,R4*%
X82175000Y-28500000D03*
X83825000Y-28500000D03*
%TD*%
D20*
%TO.C,J26*%
X37600000Y-69400000D03*
D21*
X37600000Y-67400000D03*
X37600000Y-65400000D03*
X37600000Y-63400000D03*
X37600000Y-61400000D03*
X37600000Y-59400000D03*
X37600000Y-57400000D03*
X37600000Y-55400000D03*
X37600000Y-53400000D03*
X37600000Y-51400000D03*
%TD*%
D39*
%TO.C, *%
X179410000Y-24440000D03*
%TD*%
D17*
%TO.C,J22*%
X136400000Y-35700000D03*
D18*
X136400000Y-30700000D03*
%TD*%
D48*
%TO.C,IC1*%
X120900000Y-103350000D03*
X123200000Y-103350000D03*
X125500000Y-103350000D03*
D49*
X123200000Y-97050000D03*
%TD*%
D50*
%TO.C,R6*%
X110125000Y-76900000D03*
X108475000Y-76900000D03*
%TD*%
D30*
%TO.C,C1*%
X106500000Y-92325000D03*
X106500000Y-90425000D03*
%TD*%
D51*
%TO.C,D2*%
X118100000Y-124600000D03*
X118100000Y-120600000D03*
%TD*%
D52*
%TO.C,D1*%
X150000000Y-135600000D03*
D53*
X158200000Y-135600000D03*
%TD*%
D54*
%TO.C,H1*%
X88800000Y-30100000D03*
%TD*%
D55*
%TO.C,U4*%
X165325000Y-134595000D03*
X165325000Y-135865000D03*
X165325000Y-137135000D03*
X165325000Y-138405000D03*
X170275000Y-138405000D03*
X170275000Y-137135000D03*
X170275000Y-135865000D03*
X170275000Y-134595000D03*
%TD*%
D56*
%TO.C,J12*%
X34900000Y-108200000D03*
D57*
X32360000Y-108200000D03*
X29820000Y-108200000D03*
X27280000Y-108200000D03*
%TD*%
D15*
%TO.C,D8*%
X131900000Y-102100000D03*
X131900000Y-98100000D03*
%TD*%
D37*
%TO.C,R7*%
X132700000Y-123406250D03*
X132700000Y-121756250D03*
%TD*%
D38*
%TO.C,C9*%
X173250000Y-133700000D03*
X175150000Y-133700000D03*
%TD*%
D11*
%TO.C,J17*%
X76660000Y-46120000D03*
D12*
X76660000Y-43580000D03*
X76660000Y-41040000D03*
X76660000Y-38500000D03*
X76660000Y-35960000D03*
X76660000Y-33420000D03*
%TD*%
D58*
%TO.C,D3*%
X137100000Y-123418750D03*
X137100000Y-121543750D03*
%TD*%
D11*
%TO.C,J21*%
X83515000Y-66075000D03*
D12*
X83515000Y-63535000D03*
X83515000Y-60995000D03*
X83515000Y-58455000D03*
X83515000Y-55915000D03*
X83515000Y-53375000D03*
X83515000Y-50835000D03*
X83515000Y-48295000D03*
%TD*%
D34*
%TO.C,R13*%
X132675000Y-66100000D03*
X134325000Y-66100000D03*
%TD*%
D59*
%TO.C,C12*%
X73050000Y-61800000D03*
X71150000Y-61800000D03*
%TD*%
D38*
%TO.C,C5*%
X126350000Y-107400000D03*
X128250000Y-107400000D03*
%TD*%
D15*
%TO.C,D9*%
X153000000Y-32100000D03*
X153000000Y-36100000D03*
%TD*%
D22*
%TO.C,C13*%
X63800000Y-69350000D03*
X63800000Y-71250000D03*
%TD*%
D11*
%TO.C,J23*%
X118300000Y-113000000D03*
D12*
X115760000Y-113000000D03*
X118300000Y-115540000D03*
X115760000Y-115540000D03*
%TD*%
D60*
%TO.C,J14*%
X33600000Y-136800000D03*
D61*
X31600000Y-136800000D03*
X29600000Y-136800000D03*
X27600000Y-136800000D03*
%TD*%
D62*
%TO.C,REF\u002A\u002A*%
X105160000Y-44490000D03*
X105160000Y-69890000D03*
%TD*%
D37*
%TO.C,R11*%
X138800000Y-59925000D03*
X138800000Y-58275000D03*
%TD*%
D34*
%TO.C,R18*%
X132275000Y-86700000D03*
X133925000Y-86700000D03*
%TD*%
D11*
%TO.C,J5*%
X129375000Y-75775000D03*
D12*
X129375000Y-73235000D03*
X129375000Y-70695000D03*
X129375000Y-68155000D03*
X129375000Y-65615000D03*
X129375000Y-63075000D03*
X129375000Y-60535000D03*
X129375000Y-57995000D03*
%TD*%
D50*
%TO.C,R19*%
X130825000Y-31200000D03*
X129175000Y-31200000D03*
%TD*%
D37*
%TO.C,R12*%
X134500000Y-59925000D03*
X134500000Y-58275000D03*
%TD*%
D63*
%TO.C,F1*%
X155905000Y-112605000D03*
D64*
X155905000Y-108605000D03*
X141905000Y-112605000D03*
X141905000Y-108605000D03*
%TD*%
D23*
%TO.C,U3*%
X148480000Y-42970000D03*
X148480000Y-40430000D03*
X139920000Y-40430000D03*
X139920000Y-42970000D03*
%TD*%
D41*
%TO.C,Q2*%
X135462500Y-41550000D03*
X135462500Y-43450000D03*
X137337500Y-42500000D03*
%TD*%
D65*
%TO.C,REF\u002A\u002A*%
X41301500Y-107938500D03*
X41301500Y-135938500D03*
X97301500Y-107938500D03*
X97301500Y-135938500D03*
%TD*%
D34*
%TO.C,R1*%
X146525000Y-48400000D03*
X148175000Y-48400000D03*
%TD*%
D41*
%TO.C,D10*%
X159462500Y-56850000D03*
X159462500Y-58750000D03*
X161337500Y-57800000D03*
%TD*%
D30*
%TO.C,C11*%
X101500000Y-50350000D03*
X101500000Y-48450000D03*
%TD*%
D11*
%TO.C,J10*%
X114135000Y-75775000D03*
D12*
X114135000Y-73235000D03*
X114135000Y-70695000D03*
X114135000Y-68155000D03*
X114135000Y-65615000D03*
X114135000Y-63075000D03*
X114135000Y-60535000D03*
X114135000Y-57995000D03*
%TD*%
D11*
%TO.C,J1*%
X102200000Y-92300000D03*
D12*
X102200000Y-89760000D03*
X102200000Y-87220000D03*
X102200000Y-84680000D03*
X102200000Y-82140000D03*
X102200000Y-79600000D03*
%TD*%
D50*
%TO.C,R5*%
X110125000Y-72800000D03*
X108475000Y-72800000D03*
%TD*%
D37*
%TO.C,R17*%
X165200000Y-50425000D03*
X165200000Y-48775000D03*
%TD*%
D42*
%TO.C,D7*%
X161037500Y-45650000D03*
X161037500Y-43750000D03*
X159162500Y-44700000D03*
%TD*%
D11*
%TO.C,J15*%
X155200000Y-65100000D03*
D12*
X155200000Y-62560000D03*
X155200000Y-60020000D03*
X155200000Y-57480000D03*
X155200000Y-54940000D03*
X155200000Y-52400000D03*
X155200000Y-49860000D03*
X155200000Y-47320000D03*
X155200000Y-44780000D03*
X155200000Y-42240000D03*
%TD*%
D41*
%TO.C,Q1*%
X132562500Y-70450000D03*
X132562500Y-72350000D03*
X134437500Y-71400000D03*
%TD*%
M02*
