%TF.GenerationSoftware,KiCad,Pcbnew,(6.0.10)*%
%TF.CreationDate,2023-04-23T08:01:19-06:00*%
%TF.ProjectId,AS15,41533135-2e6b-4696-9361-645f70636258,rev?*%
%TF.SameCoordinates,Original*%
%TF.FileFunction,Soldermask,Bot*%
%TF.FilePolarity,Negative*%
%FSLAX46Y46*%
G04 Gerber Fmt 4.6, Leading zero omitted, Abs format (unit mm)*
G04 Created by KiCad (PCBNEW (6.0.10)) date 2023-04-23 08:01:19*
%MOMM*%
%LPD*%
G01*
G04 APERTURE LIST*
G04 Aperture macros list*
%AMRoundRect*
0 Rectangle with rounded corners*
0 $1 Rounding radius*
0 $2 $3 $4 $5 $6 $7 $8 $9 X,Y pos of 4 corners*
0 Add a 4 corners polygon primitive as box body*
4,1,4,$2,$3,$4,$5,$6,$7,$8,$9,$2,$3,0*
0 Add four circle primitives for the rounded corners*
1,1,$1+$1,$2,$3*
1,1,$1+$1,$4,$5*
1,1,$1+$1,$6,$7*
1,1,$1+$1,$8,$9*
0 Add four rect primitives between the rounded corners*
20,1,$1+$1,$2,$3,$4,$5,0*
20,1,$1+$1,$4,$5,$6,$7,0*
20,1,$1+$1,$6,$7,$8,$9,0*
20,1,$1+$1,$8,$9,$2,$3,0*%
G04 Aperture macros list end*
%ADD10R,1.700000X1.700000*%
%ADD11O,1.700000X1.700000*%
%ADD12R,2.600000X2.600000*%
%ADD13C,2.600000*%
%ADD14R,1.350000X1.350000*%
%ADD15O,1.350000X1.350000*%
%ADD16C,0.001000*%
%ADD17C,1.446000*%
%ADD18C,1.530000*%
%ADD19C,2.445000*%
%ADD20R,2.715000X2.715000*%
%ADD21C,2.715000*%
%ADD22C,4.485000*%
%ADD23O,2.500000X2.500000*%
%ADD24R,2.500000X2.500000*%
%ADD25C,4.300000*%
%ADD26O,2.000000X1.100000*%
%ADD27O,2.200000X1.100000*%
%ADD28C,2.999999*%
%ADD29C,3.800000*%
%ADD30RoundRect,0.250000X0.620000X0.845000X-0.620000X0.845000X-0.620000X-0.845000X0.620000X-0.845000X0*%
%ADD31O,1.740000X2.190000*%
%ADD32R,1.308000X1.308000*%
%ADD33C,1.308000*%
%ADD34C,3.302000*%
%ADD35R,3.000000X3.000000*%
%ADD36C,3.000000*%
%ADD37C,3.200000*%
G04 APERTURE END LIST*
D10*
%TO.C,J19*%
X28400000Y-51200000D03*
D11*
X28400000Y-48660000D03*
X28400000Y-46120000D03*
X28400000Y-43580000D03*
X28400000Y-41040000D03*
X28400000Y-38500000D03*
X28400000Y-35960000D03*
X28400000Y-33420000D03*
%TD*%
D10*
%TO.C,J11*%
X114135000Y-52915000D03*
D11*
X114135000Y-50375000D03*
X114135000Y-47835000D03*
X114135000Y-45295000D03*
X114135000Y-42755000D03*
X114135000Y-40215000D03*
X114135000Y-37675000D03*
X114135000Y-35135000D03*
%TD*%
D12*
%TO.C,KF1*%
X178180000Y-116800000D03*
X178180000Y-124420000D03*
D13*
X173100000Y-116800000D03*
X173100000Y-124420000D03*
X168020000Y-124420000D03*
X168020000Y-116800000D03*
X162940000Y-116800000D03*
X162940000Y-124420000D03*
X157860000Y-124420000D03*
X157860000Y-116800000D03*
X152780000Y-124420000D03*
X152780000Y-116800000D03*
%TD*%
D10*
%TO.C,J9*%
X114135000Y-93555000D03*
D11*
X114135000Y-91015000D03*
X114135000Y-88475000D03*
X114135000Y-85935000D03*
X114135000Y-83395000D03*
X114135000Y-80855000D03*
%TD*%
D14*
%TO.C,J25*%
X59600000Y-69400000D03*
D15*
X59600000Y-67400000D03*
X59600000Y-65400000D03*
X59600000Y-63400000D03*
X59600000Y-61400000D03*
X59600000Y-59400000D03*
X59600000Y-57400000D03*
X59600000Y-55400000D03*
X59600000Y-53400000D03*
X59600000Y-51400000D03*
%TD*%
D10*
%TO.C,J6*%
X129375000Y-52915000D03*
D11*
X129375000Y-50375000D03*
X129375000Y-47835000D03*
X129375000Y-45295000D03*
X129375000Y-42755000D03*
X129375000Y-40215000D03*
X129375000Y-37675000D03*
X129375000Y-35135000D03*
%TD*%
D16*
%TO.C,J8*%
X178600000Y-33689500D03*
X178600000Y-45119500D03*
D17*
X172250000Y-43849500D03*
X169710000Y-42579500D03*
X172250000Y-41309500D03*
X169710000Y-40039500D03*
X172250000Y-38769500D03*
X169710000Y-37499500D03*
X172250000Y-36229500D03*
X169710000Y-34959500D03*
D18*
X183500000Y-46029500D03*
X183500000Y-43489500D03*
X183500000Y-35319500D03*
X183500000Y-32779500D03*
D19*
X175550000Y-47149500D03*
X175550000Y-31659500D03*
%TD*%
D20*
%TO.C,J7*%
X163500000Y-94720000D03*
D21*
X163500000Y-90275000D03*
X163500000Y-85830000D03*
X163500000Y-81380000D03*
X163500000Y-76935000D03*
X163500000Y-72490000D03*
X169850000Y-72490000D03*
X169850000Y-76935000D03*
X169850000Y-81380000D03*
X169850000Y-85830000D03*
X169850000Y-90275000D03*
X169850000Y-94720000D03*
D22*
X164520000Y-101145000D03*
X175950000Y-83605000D03*
X164520000Y-66065000D03*
%TD*%
D10*
%TO.C,J16*%
X76660000Y-68980000D03*
D11*
X76660000Y-66440000D03*
X76660000Y-63900000D03*
X76660000Y-61360000D03*
X76660000Y-58820000D03*
X76660000Y-56280000D03*
X76660000Y-53740000D03*
X76660000Y-51200000D03*
%TD*%
D23*
%TO.C,K2*%
X140872500Y-103600000D03*
X140872500Y-91600000D03*
D24*
X138872500Y-97600000D03*
D23*
X153072500Y-91600000D03*
X153072500Y-103600000D03*
%TD*%
D10*
%TO.C,J18*%
X28400000Y-78120000D03*
D11*
X28400000Y-75580000D03*
X28400000Y-73040000D03*
X28400000Y-70500000D03*
X28400000Y-67960000D03*
X28400000Y-65420000D03*
X28400000Y-62880000D03*
X28400000Y-60340000D03*
X28400000Y-57800000D03*
X28400000Y-55260000D03*
%TD*%
D14*
%TO.C,J3*%
X116573400Y-80585000D03*
D15*
X116573400Y-78585000D03*
X118573400Y-80585000D03*
X118573400Y-78585000D03*
X120573400Y-80585000D03*
X120573400Y-78585000D03*
%TD*%
D25*
%TO.C, *%
X179410000Y-142560000D03*
%TD*%
D10*
%TO.C,J4*%
X129375000Y-93555000D03*
D11*
X129375000Y-91015000D03*
X129375000Y-88475000D03*
X129375000Y-85935000D03*
X129375000Y-83395000D03*
X129375000Y-80855000D03*
%TD*%
D23*
%TO.C,K1*%
X140972500Y-84900000D03*
X140972500Y-72900000D03*
D24*
X138972500Y-78900000D03*
D23*
X153172500Y-72900000D03*
X153172500Y-84900000D03*
%TD*%
D26*
%TO.C,J24*%
X32800000Y-100800000D03*
D27*
X27200000Y-100800000D03*
X30000000Y-98650000D03*
%TD*%
D28*
%TO.C,REF\u002A\u002A*%
X102405000Y-75915000D03*
X84625000Y-75915000D03*
X84625000Y-96235000D03*
X102405000Y-96235000D03*
%TD*%
D10*
%TO.C,J20*%
X106375000Y-66075000D03*
D11*
X106375000Y-63535000D03*
X106375000Y-60995000D03*
X106375000Y-58455000D03*
X106375000Y-55915000D03*
X106375000Y-53375000D03*
X106375000Y-50835000D03*
X106375000Y-48295000D03*
%TD*%
D10*
%TO.C,J2*%
X84420000Y-92300000D03*
D11*
X84420000Y-89760000D03*
X84420000Y-87220000D03*
X84420000Y-84680000D03*
X84420000Y-82140000D03*
X84420000Y-79600000D03*
%TD*%
D14*
%TO.C,J26*%
X37600000Y-69400000D03*
D15*
X37600000Y-67400000D03*
X37600000Y-65400000D03*
X37600000Y-63400000D03*
X37600000Y-61400000D03*
X37600000Y-59400000D03*
X37600000Y-57400000D03*
X37600000Y-55400000D03*
X37600000Y-53400000D03*
X37600000Y-51400000D03*
%TD*%
D25*
%TO.C, *%
X179410000Y-24440000D03*
%TD*%
D12*
%TO.C,J22*%
X136400000Y-35700000D03*
D13*
X136400000Y-30700000D03*
%TD*%
D29*
%TO.C,H1*%
X88800000Y-30100000D03*
%TD*%
D30*
%TO.C,J12*%
X34900000Y-108200000D03*
D31*
X32360000Y-108200000D03*
X29820000Y-108200000D03*
X27280000Y-108200000D03*
%TD*%
D10*
%TO.C,J17*%
X76660000Y-46120000D03*
D11*
X76660000Y-43580000D03*
X76660000Y-41040000D03*
X76660000Y-38500000D03*
X76660000Y-35960000D03*
X76660000Y-33420000D03*
%TD*%
D10*
%TO.C,J21*%
X83515000Y-66075000D03*
D11*
X83515000Y-63535000D03*
X83515000Y-60995000D03*
X83515000Y-58455000D03*
X83515000Y-55915000D03*
X83515000Y-53375000D03*
X83515000Y-50835000D03*
X83515000Y-48295000D03*
%TD*%
D10*
%TO.C,J23*%
X118300000Y-113000000D03*
D11*
X115760000Y-113000000D03*
X118300000Y-115540000D03*
X115760000Y-115540000D03*
%TD*%
D32*
%TO.C,J14*%
X33600000Y-136800000D03*
D33*
X31600000Y-136800000D03*
X29600000Y-136800000D03*
X27600000Y-136800000D03*
%TD*%
D34*
%TO.C,REF\u002A\u002A*%
X105160000Y-44490000D03*
X105160000Y-69890000D03*
%TD*%
D10*
%TO.C,J5*%
X129375000Y-75775000D03*
D11*
X129375000Y-73235000D03*
X129375000Y-70695000D03*
X129375000Y-68155000D03*
X129375000Y-65615000D03*
X129375000Y-63075000D03*
X129375000Y-60535000D03*
X129375000Y-57995000D03*
%TD*%
D35*
%TO.C,F1*%
X155905000Y-112605000D03*
D36*
X155905000Y-108605000D03*
X141905000Y-112605000D03*
X141905000Y-108605000D03*
%TD*%
D37*
%TO.C,REF\u002A\u002A*%
X41301500Y-107938500D03*
X41301500Y-135938500D03*
X97301500Y-107938500D03*
X97301500Y-135938500D03*
%TD*%
D10*
%TO.C,J10*%
X114135000Y-75775000D03*
D11*
X114135000Y-73235000D03*
X114135000Y-70695000D03*
X114135000Y-68155000D03*
X114135000Y-65615000D03*
X114135000Y-63075000D03*
X114135000Y-60535000D03*
X114135000Y-57995000D03*
%TD*%
D10*
%TO.C,J1*%
X102200000Y-92300000D03*
D11*
X102200000Y-89760000D03*
X102200000Y-87220000D03*
X102200000Y-84680000D03*
X102200000Y-82140000D03*
X102200000Y-79600000D03*
%TD*%
D10*
%TO.C,J15*%
X155200000Y-65100000D03*
D11*
X155200000Y-62560000D03*
X155200000Y-60020000D03*
X155200000Y-57480000D03*
X155200000Y-54940000D03*
X155200000Y-52400000D03*
X155200000Y-49860000D03*
X155200000Y-47320000D03*
X155200000Y-44780000D03*
X155200000Y-42240000D03*
%TD*%
M02*
