M48
; DRILL file {KiCad (6.0.10)} date Sun Apr 23 08:01:19 2023
; FORMAT={-:-/ absolute / inch / decimal}
; #@! TF.CreationDate,2023-04-23T08:01:19-06:00
; #@! TF.GenerationSoftware,Kicad,Pcbnew,(6.0.10)
; #@! TF.FileFunction,Plated,1,2,PTH
FMAT,2
INCH
; #@! TA.AperFunction,Plated,PTH,ViaDrill
T1C0.0157
; #@! TA.AperFunction,Plated,PTH,ComponentDrill
T2C0.0197
; #@! TA.AperFunction,Plated,PTH,ComponentDrill
T3C0.0315
; #@! TA.AperFunction,Plated,PTH,ComponentDrill
T4C0.0350
; #@! TA.AperFunction,Plated,PTH,ComponentDrill
T5C0.0394
; #@! TA.AperFunction,Plated,PTH,ComponentDrill
T6C0.0402
; #@! TA.AperFunction,Plated,PTH,ComponentDrill
T7C0.0469
; #@! TA.AperFunction,Plated,PTH,ComponentDrill
T8C0.0512
; #@! TA.AperFunction,Plated,PTH,ComponentDrill
T9C0.0630
; #@! TA.AperFunction,Plated,PTH,ComponentDrill
T10C0.0642
; #@! TA.AperFunction,Plated,PTH,ComponentDrill
T11C0.0709
; #@! TA.AperFunction,Plated,PTH,ComponentDrill
T12C0.0713
; #@! TA.AperFunction,Plated,PTH,ComponentDrill
T13C0.1177
; #@! TA.AperFunction,Plated,PTH,ComponentDrill
T14C0.1181
%
G90
G05
T1
X2.5157Y-2.8898
X2.5394Y-1.8858
X2.6063Y-1.8819
X2.731Y-1.8819
X2.731Y-1.9212
X2.8031Y-2.5276
X2.8189Y-2.6693
X2.8346Y-1.2283
X2.9291Y-1.2402
X2.9606Y-1.1024
X2.9867Y-1.1556
X3.9055Y-4.3504
X3.9331Y-3.9882
X3.9399Y-4.0315
X4.189Y-3.4961
X4.3228Y-3.9055
X4.3291Y-3.2339
X4.5512Y-4.748
X4.6654Y-2.2362
X4.6772Y-4.0669
X4.6956Y-2.1929
X4.7756Y-4.9252
X4.8858Y-4.2835
X4.9765Y-4.811
X4.9803Y-2.1969
X4.9882Y-2.1575
X5.122Y-4.2323
X5.2034Y-2.9093
X5.2205Y-5.2522
X5.2205Y-5.2995
X5.2205Y-5.3507
X5.2264Y-2.0394
X5.2441Y-1.8071
X5.2441Y-5.1476
X5.248Y-1.7087
X5.3989Y-4.9281
X5.5433Y-5.5315
X5.5748Y-2.2677
X6.2283Y-2.1811
X6.3465Y-1.8504
X6.4016Y-2.0315
X6.4076Y-1.9528
X6.4112Y-1.7582
X6.4449Y-1.1339
X6.4606Y-2.0236
X6.4919Y-1.8819
X6.562Y-2.2372
X6.5722Y-5.403
X6.5906Y-2.1693
X6.7067Y-5.5059
X6.8583Y-5.3154
X6.8898Y-5.5118
X6.9331Y-5.3919
X6.9567Y-5.2638
T3
X1.0866Y-5.3858
X1.1654Y-5.3858
X1.2441Y-5.3858
X1.3228Y-5.3858
X1.4803Y-2.0236
X1.4803Y-2.1024
X1.4803Y-2.1811
X1.4803Y-2.2598
X1.4803Y-2.3386
X1.4803Y-2.4173
X1.4803Y-2.4961
X1.4803Y-2.5748
X1.4803Y-2.6535
X1.4803Y-2.7323
X2.3465Y-2.0236
X2.3465Y-2.1024
X2.3465Y-2.1811
X2.3465Y-2.2598
X2.3465Y-2.3386
X2.3465Y-2.4173
X2.3465Y-2.4961
X2.3465Y-2.5748
X2.3465Y-2.6535
X2.3465Y-2.7323
X4.5895Y-3.0939
X4.5895Y-3.1726
X4.6682Y-3.0939
X4.6682Y-3.1726
X4.747Y-3.0939
X4.747Y-3.1726
T4
X6.6815Y-1.3764
X6.6815Y-1.4764
X6.6815Y-1.5764
X6.6815Y-1.6764
X6.7815Y-1.4264
X6.7815Y-1.5264
X6.7815Y-1.6264
X6.7815Y-1.7264
T5
X1.1181Y-1.3157
X1.1181Y-1.4157
X1.1181Y-1.5157
X1.1181Y-1.6157
X1.1181Y-1.7157
X1.1181Y-1.8157
X1.1181Y-1.9157
X1.1181Y-2.0157
X1.1181Y-2.1756
X1.1181Y-2.2756
X1.1181Y-2.3756
X1.1181Y-2.4756
X1.1181Y-2.5756
X1.1181Y-2.6756
X1.1181Y-2.7756
X1.1181Y-2.8756
X1.1181Y-2.9756
X1.1181Y-3.0756
X3.0181Y-1.3157
X3.0181Y-1.4157
X3.0181Y-1.5157
X3.0181Y-1.6157
X3.0181Y-1.7157
X3.0181Y-1.8157
X3.0181Y-2.0157
X3.0181Y-2.1157
X3.0181Y-2.2157
X3.0181Y-2.3157
X3.0181Y-2.4157
X3.0181Y-2.5157
X3.0181Y-2.6157
X3.0181Y-2.7157
X3.288Y-1.9014
X3.288Y-2.0014
X3.288Y-2.1014
X3.288Y-2.2014
X3.288Y-2.3014
X3.288Y-2.4014
X3.288Y-2.5014
X3.288Y-2.6014
X3.3236Y-3.1339
X3.3236Y-3.2339
X3.3236Y-3.3339
X3.3236Y-3.4339
X3.3236Y-3.5339
X3.3236Y-3.6339
X4.0236Y-3.1339
X4.0236Y-3.2339
X4.0236Y-3.3339
X4.0236Y-3.4339
X4.0236Y-3.5339
X4.0236Y-3.6339
X4.188Y-1.9014
X4.188Y-2.0014
X4.188Y-2.1014
X4.188Y-2.2014
X4.188Y-2.3014
X4.188Y-2.4014
X4.188Y-2.5014
X4.188Y-2.6014
X4.4935Y-1.3833
X4.4935Y-1.4833
X4.4935Y-1.5833
X4.4935Y-1.6833
X4.4935Y-1.7833
X4.4935Y-1.8833
X4.4935Y-1.9833
X4.4935Y-2.0833
X4.4935Y-2.2833
X4.4935Y-2.3833
X4.4935Y-2.4833
X4.4935Y-2.5833
X4.4935Y-2.6833
X4.4935Y-2.7833
X4.4935Y-2.8833
X4.4935Y-2.9833
X4.4935Y-3.1833
X4.4935Y-3.2833
X4.4935Y-3.3833
X4.4935Y-3.4833
X4.4935Y-3.5833
X4.4935Y-3.6833
X4.5575Y-4.4488
X4.5575Y-4.5488
X4.6575Y-4.4488
X4.6575Y-4.5488
X5.0935Y-1.3833
X5.0935Y-1.4833
X5.0935Y-1.5833
X5.0935Y-1.6833
X5.0935Y-1.7833
X5.0935Y-1.8833
X5.0935Y-1.9833
X5.0935Y-2.0833
X5.0935Y-2.2833
X5.0935Y-2.3833
X5.0935Y-2.4833
X5.0935Y-2.5833
X5.0935Y-2.6833
X5.0935Y-2.7833
X5.0935Y-2.8833
X5.0935Y-2.9833
X5.0935Y-3.1833
X5.0935Y-3.2833
X5.0935Y-3.3833
X5.0935Y-3.4833
X5.0935Y-3.5833
X5.0935Y-3.6833
X6.1102Y-1.663
X6.1102Y-1.763
X6.1102Y-1.863
X6.1102Y-1.963
X6.1102Y-2.063
X6.1102Y-2.163
X6.1102Y-2.263
X6.1102Y-2.363
X6.1102Y-2.463
X6.1102Y-2.563
T6
X7.2244Y-1.2905
X7.2244Y-1.3905
X7.2244Y-1.7122
X7.2244Y-1.8122
T7
X1.074Y-4.2598
X1.174Y-4.2598
X1.274Y-4.2598
X1.374Y-4.2598
T8
X5.3701Y-1.2087
X5.3701Y-1.4055
X5.4674Y-3.8425
X5.4714Y-3.1063
X5.5462Y-3.6063
X5.5462Y-4.0787
X5.5501Y-2.8701
X5.5501Y-3.3425
X6.015Y-4.5984
X6.015Y-4.8984
X6.0265Y-3.6063
X6.0265Y-4.0787
X6.0304Y-2.8701
X6.0304Y-3.3425
X6.215Y-4.5984
X6.215Y-4.8984
X6.415Y-4.5984
X6.415Y-4.8984
X6.615Y-4.5984
X6.615Y-4.8984
X6.815Y-4.5984
X6.815Y-4.8984
X7.015Y-4.5984
X7.015Y-4.8984
T9
X3.4961Y-1.185
T10
X6.9114Y-1.2464
X6.9114Y-1.8563
T11
X5.5868Y-4.2758
X5.5868Y-4.4333
X6.138Y-4.2758
X6.138Y-4.4333
T12
X6.437Y-2.8539
X6.437Y-3.0289
X6.437Y-3.2039
X6.437Y-3.3791
X6.437Y-3.5541
X6.437Y-3.7291
X6.687Y-2.8539
X6.687Y-3.0289
X6.687Y-3.2039
X6.687Y-3.3791
X6.687Y-3.5541
X6.687Y-3.7291
T13
X6.4772Y-2.601
X6.4772Y-3.9821
X6.9272Y-3.2915
T14
X3.3317Y-2.9888
X3.3317Y-3.7888
X4.0317Y-2.9888
X4.0317Y-3.7888
T2
G00X1.0846Y-3.9685
M15
G01X1.0571Y-3.9685
M16
G05
G00X1.2028Y-3.8839
M15
G01X1.1594Y-3.8839
M16
G05
G00X1.3051Y-3.9685
M15
G01X1.2776Y-3.9685
M16
G05
T0
M30
