%TF.GenerationSoftware,KiCad,Pcbnew,7.0.9*%
%TF.CreationDate,2024-01-10T08:13:28-06:00*%
%TF.ProjectId,RC15,52433135-2e6b-4696-9361-645f70636258,rev?*%
%TF.SameCoordinates,Original*%
%TF.FileFunction,Soldermask,Bot*%
%TF.FilePolarity,Negative*%
%FSLAX46Y46*%
G04 Gerber Fmt 4.6, Leading zero omitted, Abs format (unit mm)*
G04 Created by KiCad (PCBNEW 7.0.9) date 2024-01-10 08:13:28*
%MOMM*%
%LPD*%
G01*
G04 APERTURE LIST*
%ADD10C,0.966000*%
%ADD11R,2.600000X2.600000*%
%ADD12C,2.600000*%
%ADD13C,0.770000*%
%ADD14C,3.200000*%
%ADD15R,1.700000X1.700000*%
%ADD16O,1.700000X1.700000*%
%ADD17C,2.625000*%
%ADD18C,4.395000*%
%ADD19O,1.100000X2.000000*%
%ADD20O,1.100000X2.200000*%
%ADD21C,9.000000*%
%ADD22R,3.000000X2.000000*%
%ADD23O,3.000000X2.000000*%
G04 APERTURE END LIST*
D10*
%TO.C,U15*%
X58503600Y-52639300D03*
X56668600Y-52639300D03*
X59421100Y-53556800D03*
X57586100Y-53556800D03*
X55751100Y-53556800D03*
X58503600Y-54474300D03*
X56668600Y-54474300D03*
X59421100Y-55391800D03*
X57586100Y-55391800D03*
X55751100Y-55391800D03*
X58503600Y-56309300D03*
X56668600Y-56309300D03*
%TD*%
D11*
%TO.C,J8*%
X30400000Y-29300000D03*
D12*
X35400000Y-29300000D03*
X40400000Y-29300000D03*
%TD*%
D13*
%TO.C,U10*%
X102900000Y-102450000D03*
X104200000Y-102450000D03*
X105500000Y-102450000D03*
X102900000Y-101150000D03*
X104200000Y-101150000D03*
X105500000Y-101150000D03*
%TD*%
D14*
%TO.C, *%
X23500000Y-23500000D03*
%TD*%
D15*
%TO.C,J7*%
X71610000Y-48200000D03*
D16*
X74150000Y-48200000D03*
X76690000Y-48200000D03*
X79230000Y-48200000D03*
X81770000Y-48200000D03*
X84310000Y-48200000D03*
%TD*%
D11*
%TO.C,KF3*%
X157365000Y-27595000D03*
X157365000Y-35215000D03*
D12*
X152285000Y-27595000D03*
X152285000Y-35215000D03*
X147205000Y-27595000D03*
X147205000Y-35215000D03*
X142125000Y-27595000D03*
X142125000Y-35215000D03*
X137045000Y-27595000D03*
X137045000Y-35215000D03*
X131965000Y-27595000D03*
X131965000Y-35215000D03*
%TD*%
D15*
%TO.C,J3*%
X48800000Y-34825000D03*
D16*
X48800000Y-32285000D03*
%TD*%
D17*
%TO.C,J2*%
X78000000Y-114457200D03*
X82000000Y-114457200D03*
X86000000Y-114457200D03*
X90000000Y-114457200D03*
X94000000Y-114457200D03*
X98000000Y-114457200D03*
X102000000Y-114457200D03*
X106000000Y-114457200D03*
X80000000Y-118457200D03*
X84000000Y-118457200D03*
X88000000Y-118457200D03*
X92000000Y-118457200D03*
X96000000Y-118457200D03*
X100000000Y-118457200D03*
X104000000Y-118457200D03*
X78000000Y-122457200D03*
X82000000Y-122457200D03*
X86000000Y-122457200D03*
X90000000Y-122457200D03*
X94000000Y-122457200D03*
X98000000Y-122457200D03*
X102000000Y-122457200D03*
X106000000Y-122457200D03*
D18*
X71500000Y-118957200D03*
X112500000Y-118957200D03*
%TD*%
D14*
%TO.C, *%
X161500000Y-23500000D03*
%TD*%
D13*
%TO.C,U5*%
X57900000Y-102300000D03*
X59200000Y-102300000D03*
X60500000Y-102300000D03*
X57900000Y-101000000D03*
X59200000Y-101000000D03*
X60500000Y-101000000D03*
%TD*%
D19*
%TO.C,J1*%
X27184300Y-62215700D03*
D20*
X27184300Y-67815700D03*
X25034300Y-65015700D03*
%TD*%
D21*
%TO.C,J5*%
X37750000Y-111750000D03*
%TD*%
D13*
%TO.C,U2*%
X46300000Y-102450000D03*
X47600000Y-102450000D03*
X48900000Y-102450000D03*
X46300000Y-101150000D03*
X47600000Y-101150000D03*
X48900000Y-101150000D03*
%TD*%
%TO.C,U8*%
X69633332Y-102450000D03*
X70933332Y-102450000D03*
X72233332Y-102450000D03*
X69633332Y-101150000D03*
X70933332Y-101150000D03*
X72233332Y-101150000D03*
%TD*%
D15*
%TO.C,J10*%
X71610000Y-27880000D03*
D16*
X74150000Y-27880000D03*
X76690000Y-27880000D03*
X79230000Y-27880000D03*
X81770000Y-27880000D03*
X84310000Y-27880000D03*
%TD*%
D14*
%TO.C, *%
X23500000Y-124500000D03*
%TD*%
D21*
%TO.C,J6*%
X30150000Y-81550000D03*
%TD*%
D13*
%TO.C,U11*%
X115575000Y-102450000D03*
X116875000Y-102450000D03*
X118175000Y-102450000D03*
X115575000Y-101150000D03*
X116875000Y-101150000D03*
X118175000Y-101150000D03*
%TD*%
%TO.C,U9*%
X81300000Y-102450000D03*
X82600000Y-102450000D03*
X83900000Y-102450000D03*
X81300000Y-101150000D03*
X82600000Y-101150000D03*
X83900000Y-101150000D03*
%TD*%
%TO.C,U12*%
X128250000Y-102450000D03*
X129550000Y-102450000D03*
X130850000Y-102450000D03*
X128250000Y-101150000D03*
X129550000Y-101150000D03*
X130850000Y-101150000D03*
%TD*%
D14*
%TO.C, *%
X161500000Y-124500000D03*
%TD*%
D22*
%TO.C,F1*%
X31250000Y-91000000D03*
D23*
X31250000Y-94700000D03*
X31250000Y-99000000D03*
X31250000Y-102700000D03*
%TD*%
D13*
%TO.C,U13*%
X140925000Y-102450000D03*
X142225000Y-102450000D03*
X143525000Y-102450000D03*
X140925000Y-101150000D03*
X142225000Y-101150000D03*
X143525000Y-101150000D03*
%TD*%
%TO.C,U14*%
X153600000Y-102450000D03*
X154900000Y-102450000D03*
X156200000Y-102450000D03*
X153600000Y-101150000D03*
X154900000Y-101150000D03*
X156200000Y-101150000D03*
%TD*%
M02*
