%TF.GenerationSoftware,KiCad,Pcbnew,7.0.9*%
%TF.CreationDate,2024-01-10T08:13:28-06:00*%
%TF.ProjectId,RC15,52433135-2e6b-4696-9361-645f70636258,rev?*%
%TF.SameCoordinates,Original*%
%TF.FileFunction,Copper,L1,Top*%
%TF.FilePolarity,Positive*%
%FSLAX46Y46*%
G04 Gerber Fmt 4.6, Leading zero omitted, Abs format (unit mm)*
G04 Created by KiCad (PCBNEW 7.0.9) date 2024-01-10 08:13:28*
%MOMM*%
%LPD*%
G01*
G04 APERTURE LIST*
G04 Aperture macros list*
%AMRoundRect*
0 Rectangle with rounded corners*
0 $1 Rounding radius*
0 $2 $3 $4 $5 $6 $7 $8 $9 X,Y pos of 4 corners*
0 Add a 4 corners polygon primitive as box body*
4,1,4,$2,$3,$4,$5,$6,$7,$8,$9,$2,$3,0*
0 Add four circle primitives for the rounded corners*
1,1,$1+$1,$2,$3*
1,1,$1+$1,$4,$5*
1,1,$1+$1,$6,$7*
1,1,$1+$1,$8,$9*
0 Add four rect primitives between the rounded corners*
20,1,$1+$1,$2,$3,$4,$5,0*
20,1,$1+$1,$4,$5,$6,$7,0*
20,1,$1+$1,$6,$7,$8,$9,0*
20,1,$1+$1,$8,$9,$2,$3,0*%
G04 Aperture macros list end*
%TA.AperFunction,ComponentPad*%
%ADD10C,0.762000*%
%TD*%
%TA.AperFunction,SMDPad,CuDef*%
%ADD11R,1.330000X1.330000*%
%TD*%
%TA.AperFunction,SMDPad,CuDef*%
%ADD12R,2.000000X0.900000*%
%TD*%
%TA.AperFunction,SMDPad,CuDef*%
%ADD13R,0.900000X2.000000*%
%TD*%
%TA.AperFunction,SMDPad,CuDef*%
%ADD14R,1.460500X0.533400*%
%TD*%
%TA.AperFunction,ComponentPad*%
%ADD15R,2.600000X2.600000*%
%TD*%
%TA.AperFunction,ComponentPad*%
%ADD16C,2.600000*%
%TD*%
%TA.AperFunction,SMDPad,CuDef*%
%ADD17RoundRect,0.150000X-0.587500X-0.150000X0.587500X-0.150000X0.587500X0.150000X-0.587500X0.150000X0*%
%TD*%
%TA.AperFunction,SMDPad,CuDef*%
%ADD18RoundRect,0.225000X-0.250000X0.225000X-0.250000X-0.225000X0.250000X-0.225000X0.250000X0.225000X0*%
%TD*%
%TA.AperFunction,SMDPad,CuDef*%
%ADD19RoundRect,0.150000X-0.150000X0.825000X-0.150000X-0.825000X0.150000X-0.825000X0.150000X0.825000X0*%
%TD*%
%TA.AperFunction,SMDPad,CuDef*%
%ADD20RoundRect,0.250000X-0.475000X0.250000X-0.475000X-0.250000X0.475000X-0.250000X0.475000X0.250000X0*%
%TD*%
%TA.AperFunction,SMDPad,CuDef*%
%ADD21R,1.500000X2.000000*%
%TD*%
%TA.AperFunction,SMDPad,CuDef*%
%ADD22R,3.800000X2.000000*%
%TD*%
%TA.AperFunction,ComponentPad*%
%ADD23C,0.630000*%
%TD*%
%TA.AperFunction,SMDPad,CuDef*%
%ADD24R,4.900000X2.950000*%
%TD*%
%TA.AperFunction,SMDPad,CuDef*%
%ADD25R,0.500000X2.200000*%
%TD*%
%TA.AperFunction,SMDPad,CuDef*%
%ADD26RoundRect,0.250000X0.550000X-1.500000X0.550000X1.500000X-0.550000X1.500000X-0.550000X-1.500000X0*%
%TD*%
%TA.AperFunction,SMDPad,CuDef*%
%ADD27R,5.400000X2.900000*%
%TD*%
%TA.AperFunction,ComponentPad*%
%ADD28R,1.700000X1.700000*%
%TD*%
%TA.AperFunction,ComponentPad*%
%ADD29O,1.700000X1.700000*%
%TD*%
%TA.AperFunction,SMDPad,CuDef*%
%ADD30RoundRect,0.200000X0.200000X0.275000X-0.200000X0.275000X-0.200000X-0.275000X0.200000X-0.275000X0*%
%TD*%
%TA.AperFunction,SMDPad,CuDef*%
%ADD31RoundRect,0.200000X0.275000X-0.200000X0.275000X0.200000X-0.275000X0.200000X-0.275000X-0.200000X0*%
%TD*%
%TA.AperFunction,ComponentPad*%
%ADD32C,2.625000*%
%TD*%
%TA.AperFunction,ComponentPad*%
%ADD33C,4.395000*%
%TD*%
%TA.AperFunction,SMDPad,CuDef*%
%ADD34RoundRect,0.150000X0.150000X0.625000X-0.150000X0.625000X-0.150000X-0.625000X0.150000X-0.625000X0*%
%TD*%
%TA.AperFunction,SMDPad,CuDef*%
%ADD35RoundRect,0.250000X0.350000X0.650000X-0.350000X0.650000X-0.350000X-0.650000X0.350000X-0.650000X0*%
%TD*%
%TA.AperFunction,SMDPad,CuDef*%
%ADD36RoundRect,0.200000X-0.200000X-0.275000X0.200000X-0.275000X0.200000X0.275000X-0.200000X0.275000X0*%
%TD*%
%TA.AperFunction,SMDPad,CuDef*%
%ADD37RoundRect,0.100000X-0.637500X-0.100000X0.637500X-0.100000X0.637500X0.100000X-0.637500X0.100000X0*%
%TD*%
%TA.AperFunction,SMDPad,CuDef*%
%ADD38R,1.500000X0.450000*%
%TD*%
%TA.AperFunction,ComponentPad*%
%ADD39O,1.100000X2.000000*%
%TD*%
%TA.AperFunction,ComponentPad*%
%ADD40O,1.100000X2.200000*%
%TD*%
%TA.AperFunction,SMDPad,CuDef*%
%ADD41R,1.100000X0.250000*%
%TD*%
%TA.AperFunction,ComponentPad*%
%ADD42C,9.000000*%
%TD*%
%TA.AperFunction,SMDPad,CuDef*%
%ADD43RoundRect,0.225000X0.225000X0.250000X-0.225000X0.250000X-0.225000X-0.250000X0.225000X-0.250000X0*%
%TD*%
%TA.AperFunction,SMDPad,CuDef*%
%ADD44R,1.300000X1.500000*%
%TD*%
%TA.AperFunction,SMDPad,CuDef*%
%ADD45RoundRect,0.200000X-0.275000X0.200000X-0.275000X-0.200000X0.275000X-0.200000X0.275000X0.200000X0*%
%TD*%
%TA.AperFunction,SMDPad,CuDef*%
%ADD46R,1.050000X3.210000*%
%TD*%
%TA.AperFunction,SMDPad,CuDef*%
%ADD47R,10.530000X8.460000*%
%TD*%
%TA.AperFunction,SMDPad,CuDef*%
%ADD48R,0.850000X0.300000*%
%TD*%
%TA.AperFunction,SMDPad,CuDef*%
%ADD49RoundRect,0.218750X-0.218750X-0.256250X0.218750X-0.256250X0.218750X0.256250X-0.218750X0.256250X0*%
%TD*%
%TA.AperFunction,SMDPad,CuDef*%
%ADD50RoundRect,0.225000X-0.225000X-0.250000X0.225000X-0.250000X0.225000X0.250000X-0.225000X0.250000X0*%
%TD*%
%TA.AperFunction,SMDPad,CuDef*%
%ADD51RoundRect,0.150000X-0.150000X0.587500X-0.150000X-0.587500X0.150000X-0.587500X0.150000X0.587500X0*%
%TD*%
%TA.AperFunction,SMDPad,CuDef*%
%ADD52RoundRect,0.250000X-1.000000X1.950000X-1.000000X-1.950000X1.000000X-1.950000X1.000000X1.950000X0*%
%TD*%
%TA.AperFunction,SMDPad,CuDef*%
%ADD53RoundRect,1.025000X-1.025000X-1.125000X1.025000X-1.125000X1.025000X1.125000X-1.025000X1.125000X0*%
%TD*%
%TA.AperFunction,SMDPad,CuDef*%
%ADD54R,4.100000X4.300000*%
%TD*%
%TA.AperFunction,SMDPad,CuDef*%
%ADD55RoundRect,0.225000X0.250000X-0.225000X0.250000X0.225000X-0.250000X0.225000X-0.250000X-0.225000X0*%
%TD*%
%TA.AperFunction,SMDPad,CuDef*%
%ADD56R,1.800000X1.800000*%
%TD*%
%TA.AperFunction,ComponentPad*%
%ADD57R,3.000000X2.000000*%
%TD*%
%TA.AperFunction,ComponentPad*%
%ADD58O,3.000000X2.000000*%
%TD*%
%TA.AperFunction,SMDPad,CuDef*%
%ADD59R,1.700000X2.500000*%
%TD*%
%TA.AperFunction,ViaPad*%
%ADD60C,0.800000*%
%TD*%
%TA.AperFunction,Conductor*%
%ADD61C,0.254000*%
%TD*%
%TA.AperFunction,Conductor*%
%ADD62C,0.508000*%
%TD*%
%TA.AperFunction,Conductor*%
%ADD63C,1.016000*%
%TD*%
%TA.AperFunction,Conductor*%
%ADD64C,1.371600*%
%TD*%
%TA.AperFunction,Conductor*%
%ADD65C,1.270000*%
%TD*%
%TA.AperFunction,Conductor*%
%ADD66C,0.762000*%
%TD*%
%TA.AperFunction,Conductor*%
%ADD67C,3.500000*%
%TD*%
G04 APERTURE END LIST*
D10*
%TO.P,U15,G.22,GND*%
%TO.N,GND*%
X58503600Y-52639300D03*
%TO.P,U15,G.21,GND*%
X56668600Y-52639300D03*
%TO.P,U15,G.20,GND*%
X59421100Y-53556800D03*
%TO.P,U15,G.19,GND*%
X57586100Y-53556800D03*
%TO.P,U15,G.18,GND*%
X55751100Y-53556800D03*
%TO.P,U15,G.17,GND*%
X58503600Y-54474300D03*
%TO.P,U15,G.16,GND*%
X56668600Y-54474300D03*
%TO.P,U15,G.15,GND*%
X59421100Y-55391800D03*
%TO.P,U15,G.14,GND*%
X57586100Y-55391800D03*
%TO.P,U15,G.13,GND*%
X55751100Y-55391800D03*
%TO.P,U15,G.12,GND*%
X58503600Y-56309300D03*
%TO.P,U15,G.11,GND*%
X56668600Y-56309300D03*
D11*
%TO.P,U15,G.10,GND*%
X59421100Y-52639300D03*
%TO.P,U15,G.9,GND*%
X57586100Y-52639300D03*
%TO.P,U15,G.8,GND*%
X55751100Y-52639300D03*
%TO.P,U15,G.7,GND*%
X59421100Y-54474300D03*
%TO.P,U15,G.6,GND*%
X57586100Y-54474300D03*
%TO.P,U15,G.5,GND*%
X55751100Y-54474300D03*
%TO.P,U15,G.4,GND*%
X59421100Y-56309300D03*
%TO.P,U15,G.2,GND*%
X57586100Y-56309300D03*
%TO.P,U15,G.1,GND*%
X55751100Y-56309300D03*
D12*
%TO.P,U15,38,GND*%
X48086100Y-61974300D03*
%TO.P,U15,37,IO23*%
%TO.N,MOSI*%
X48086100Y-60704300D03*
%TO.P,U15,36,IO22*%
%TO.N,SCL*%
X48086100Y-59434300D03*
%TO.P,U15,35,TXD0*%
%TO.N,uC_TX*%
X48086100Y-58164300D03*
%TO.P,U15,34,RXD0*%
%TO.N,uC_RX*%
X48086100Y-56894300D03*
%TO.P,U15,33,IO21*%
%TO.N,SDA*%
X48086100Y-55624300D03*
%TO.P,U15,32*%
%TO.N,N/C*%
X48086100Y-54354300D03*
%TO.P,U15,31,IO19*%
%TO.N,MISO*%
X48086100Y-53084300D03*
%TO.P,U15,30,IO18*%
%TO.N,SCK*%
X48086100Y-51814300D03*
%TO.P,U15,29,IO5*%
%TO.N,SS*%
X48086100Y-50544300D03*
%TO.P,U15,28,IO17*%
%TO.N,FlowPin1*%
X48086100Y-49274300D03*
%TO.P,U15,27,IO16*%
%TO.N,FlowPin2*%
X48086100Y-48004300D03*
%TO.P,U15,26,IO4*%
%TO.N,TX2*%
X48086100Y-46734300D03*
%TO.P,U15,25,IO0*%
%TO.N,Net-(Q2-D)*%
X48086100Y-45464300D03*
D13*
%TO.P,U15,24,IO2*%
%TO.N,RX2*%
X50871100Y-44464300D03*
%TO.P,U15,23,IO15*%
%TO.N,RS485_Enable*%
X52141100Y-44464300D03*
%TO.P,U15,22,SD1/SD1*%
%TO.N,unconnected-(U15-SD1{slash}SD1-Pad22)*%
X53411100Y-44464300D03*
%TO.P,U15,21,SDO/SD0*%
%TO.N,unconnected-(U15-SDO{slash}SD0-Pad21)*%
X54681100Y-44464300D03*
%TO.P,U15,20,SCL/CLK*%
%TO.N,unconnected-(U15-SCL{slash}CLK-Pad20)*%
X55951100Y-44464300D03*
%TO.P,U15,19,SCS/CMD*%
%TO.N,unconnected-(U15-SCS{slash}CMD-Pad19)*%
X57221100Y-44464300D03*
%TO.P,U15,18,SWP/SD3*%
%TO.N,unconnected-(U15-SWP{slash}SD3-Pad18)*%
X58491100Y-44464300D03*
%TO.P,U15,17,SHD/SD2*%
%TO.N,unconnected-(U15-SHD{slash}SD2-Pad17)*%
X59761100Y-44464300D03*
%TO.P,U15,16,IO13*%
%TO.N,INTn*%
X61031100Y-44464300D03*
%TO.P,U15,15,GND*%
%TO.N,GND*%
X62301100Y-44464300D03*
D12*
%TO.P,U15,14,IO12*%
%TO.N,unconnected-(U15-IO12-Pad14)*%
X65086100Y-45464300D03*
%TO.P,U15,13,IO14*%
%TO.N,ResetNW*%
X65086100Y-46734300D03*
%TO.P,U15,12,IO27*%
%TO.N,OutputEnable*%
X65086100Y-48004300D03*
%TO.P,U15,11,I026*%
%TO.N,M2_IN2*%
X65086100Y-49274300D03*
%TO.P,U15,10,I025*%
%TO.N,M2_IN1*%
X65086100Y-50544300D03*
%TO.P,U15,9,I033*%
%TO.N,M1_IN2*%
X65086100Y-51814300D03*
%TO.P,U15,8,I032*%
%TO.N,M1_IN1*%
X65086100Y-53084300D03*
%TO.P,U15,7,I035*%
%TO.N,unconnected-(U15-I035-Pad7)*%
X65086100Y-54354300D03*
%TO.P,U15,6,I034*%
%TO.N,unconnected-(U15-I034-Pad6)*%
X65086100Y-55624300D03*
%TO.P,U15,5,SENSOR_VN*%
%TO.N,unconnected-(U15-SENSOR_VN-Pad5)*%
X65086100Y-56894300D03*
%TO.P,U15,4,SENSOR_VP*%
%TO.N,unconnected-(U15-SENSOR_VP-Pad4)*%
X65086100Y-58164300D03*
%TO.P,U15,3,EN*%
%TO.N,uC_EN*%
X65086100Y-59434300D03*
%TO.P,U15,2,3V3*%
%TO.N,+3.3V*%
X65086100Y-60704300D03*
%TO.P,U15,1,GND*%
%TO.N,GND*%
X65086100Y-61974300D03*
%TD*%
D14*
%TO.P,U7,1,RO*%
%TO.N,RX2*%
X64474150Y-31005000D03*
%TO.P,U7,2,~{RE}*%
%TO.N,RS485_Enable*%
X64474150Y-29735000D03*
%TO.P,U7,3,DE*%
X64474150Y-28465000D03*
%TO.P,U7,4,DI*%
%TO.N,TX2*%
X64474150Y-27195000D03*
%TO.P,U7,5,GND*%
%TO.N,GND*%
X59025850Y-27195000D03*
%TO.P,U7,6,A*%
%TO.N,Net-(J8-Pin_1)*%
X59025850Y-28465000D03*
%TO.P,U7,7,B*%
%TO.N,Net-(J3-Pin_1)*%
X59025850Y-29735000D03*
%TO.P,U7,8,VCC*%
%TO.N,+3.3V*%
X59025850Y-31005000D03*
%TD*%
D15*
%TO.P,J8,1,Pin_1*%
%TO.N,Net-(J8-Pin_1)*%
X30400000Y-29300000D03*
D16*
%TO.P,J8,2,Pin_2*%
%TO.N,Net-(J3-Pin_1)*%
X35400000Y-29300000D03*
%TO.P,J8,3,Pin_3*%
%TO.N,GND*%
X40400000Y-29300000D03*
%TD*%
D17*
%TO.P,D5,1,K*%
%TO.N,GND*%
X114525000Y-35350000D03*
%TO.P,D5,2,A*%
%TO.N,+5V*%
X114525000Y-37250000D03*
%TO.P,D5,3,K*%
%TO.N,Net-(U16-AIN3)*%
X116400000Y-36300000D03*
%TD*%
D18*
%TO.P,C15,1*%
%TO.N,+12V*%
X53750000Y-103975000D03*
%TO.P,C15,2*%
%TO.N,GND*%
X53750000Y-105525000D03*
%TD*%
D19*
%TO.P,U3,1,GND*%
%TO.N,GND*%
X39934300Y-64215700D03*
%TO.P,U3,2,TXD*%
%TO.N,uC_RX*%
X38664300Y-64215700D03*
%TO.P,U3,3,RXD*%
%TO.N,uC_TX*%
X37394300Y-64215700D03*
%TO.P,U3,4,V3*%
%TO.N,+3.3V*%
X36124300Y-64215700D03*
%TO.P,U3,5,UD+*%
%TO.N,Net-(J1-D+)*%
X34854300Y-64215700D03*
%TO.P,U3,6,UD-*%
%TO.N,Net-(J1-D-)*%
X33584300Y-64215700D03*
%TO.P,U3,7,NC*%
%TO.N,unconnected-(U3-NC-Pad7)*%
X32314300Y-64215700D03*
%TO.P,U3,8,NC*%
%TO.N,unconnected-(U3-NC-Pad8)*%
X31044300Y-64215700D03*
%TO.P,U3,9,~{CTS}*%
%TO.N,unconnected-(U3-~{CTS}-Pad9)*%
X31044300Y-69165700D03*
%TO.P,U3,10,~{DSR}*%
%TO.N,unconnected-(U3-~{DSR}-Pad10)*%
X32314300Y-69165700D03*
%TO.P,U3,11,~{RI}*%
%TO.N,unconnected-(U3-~{RI}-Pad11)*%
X33584300Y-69165700D03*
%TO.P,U3,12,~{DCD}*%
%TO.N,unconnected-(U3-~{DCD}-Pad12)*%
X34854300Y-69165700D03*
%TO.P,U3,13,~{DTR}*%
%TO.N,Net-(Q1-G)*%
X36124300Y-69165700D03*
%TO.P,U3,14,~{RTS}*%
%TO.N,Net-(Q1-S)*%
X37394300Y-69165700D03*
%TO.P,U3,15,R232*%
%TO.N,unconnected-(U3-R232-Pad15)*%
X38664300Y-69165700D03*
%TO.P,U3,16,VCC*%
%TO.N,+3.3V*%
X39934300Y-69165700D03*
%TD*%
D20*
%TO.P,C7,1*%
%TO.N,+5V*%
X108750000Y-33550000D03*
%TO.P,C7,2*%
%TO.N,GND*%
X108750000Y-35450000D03*
%TD*%
D18*
%TO.P,C33,1*%
%TO.N,+12V*%
X98000000Y-103725000D03*
%TO.P,C33,2*%
%TO.N,GND*%
X98000000Y-105275000D03*
%TD*%
D21*
%TO.P,IC1,1,ADJ/GND*%
%TO.N,GND*%
X101450000Y-33650000D03*
%TO.P,IC1,2,OUTPUT*%
%TO.N,+3.3V*%
X103750000Y-33650000D03*
%TO.P,IC1,3,INPUT*%
%TO.N,+5V*%
X106050000Y-33650000D03*
D22*
%TO.P,IC1,4,VOUT*%
%TO.N,unconnected-(IC1-VOUT-Pad4)*%
X103750000Y-27350000D03*
%TD*%
D23*
%TO.P,U10,9,GND*%
%TO.N,GND*%
X102900000Y-102450000D03*
X104200000Y-102450000D03*
X105500000Y-102450000D03*
D24*
X104200000Y-101800000D03*
D23*
X102900000Y-101150000D03*
X104200000Y-101150000D03*
X105500000Y-101150000D03*
D25*
%TO.P,U10,8,OUT2*%
%TO.N,S3B*%
X106105000Y-104675000D03*
%TO.P,U10,7,ISEN*%
%TO.N,GND*%
X104835000Y-104675000D03*
%TO.P,U10,6,OUT1*%
%TO.N,S3A*%
X103565000Y-104675000D03*
%TO.P,U10,5,VM*%
%TO.N,+12V*%
X102295000Y-104675000D03*
%TO.P,U10,4,VREF*%
%TO.N,+3.3V*%
X102295000Y-98925000D03*
%TO.P,U10,3,IN1*%
%TO.N,Net-(U10-IN1)*%
X103565000Y-98925000D03*
%TO.P,U10,2,IN2*%
%TO.N,Net-(U10-IN2)*%
X104835000Y-98925000D03*
%TO.P,U10,1,GND*%
%TO.N,GND*%
X106105000Y-98925000D03*
%TD*%
D26*
%TO.P,C47,1*%
%TO.N,+12V*%
X146700000Y-90814434D03*
%TO.P,C47,2*%
%TO.N,GND*%
X146700000Y-85214434D03*
%TD*%
%TO.P,C37,1*%
%TO.N,+12V*%
X64733332Y-90814434D03*
%TO.P,C37,2*%
%TO.N,GND*%
X64733332Y-85214434D03*
%TD*%
D27*
%TO.P,L1,1,1*%
%TO.N,Net-(IC2-Output)*%
X139803375Y-55650000D03*
%TO.P,L1,2,2*%
%TO.N,+5V*%
X139803375Y-45750000D03*
%TD*%
D28*
%TO.P,J7,1,Pin_1*%
%TO.N,MISO*%
X71610000Y-48200000D03*
D29*
%TO.P,J7,2,Pin_2*%
%TO.N,ResetNW*%
X74150000Y-48200000D03*
%TO.P,J7,3,Pin_3*%
%TO.N,unconnected-(J7-Pin_3-Pad3)*%
X76690000Y-48200000D03*
%TO.P,J7,4,Pin_4*%
%TO.N,Net-(IC4-OUTPUT)*%
X79230000Y-48200000D03*
%TO.P,J7,5,Pin_5*%
X81770000Y-48200000D03*
%TO.P,J7,6,Pin_6*%
%TO.N,GND*%
X84310000Y-48200000D03*
%TD*%
D30*
%TO.P,R3,1*%
%TO.N,Net-(D1-A)*%
X116700000Y-59800000D03*
%TO.P,R3,2*%
%TO.N,+5V*%
X115050000Y-59800000D03*
%TD*%
D31*
%TO.P,R4,1*%
%TO.N,+3.3V*%
X67684300Y-59140700D03*
%TO.P,R4,2*%
%TO.N,uC_EN*%
X67684300Y-57490700D03*
%TD*%
D17*
%TO.P,D8,1,K*%
%TO.N,GND*%
X120575000Y-41550000D03*
%TO.P,D8,2,A*%
%TO.N,+5V*%
X120575000Y-43450000D03*
%TO.P,D8,3,K*%
%TO.N,Net-(U16-AIN0)*%
X122450000Y-42500000D03*
%TD*%
D15*
%TO.P,KF3,1*%
%TO.N,+5V*%
X157365000Y-27595000D03*
X157365000Y-35215000D03*
D16*
%TO.P,KF3,2*%
%TO.N,GND*%
X152285000Y-27595000D03*
X152285000Y-35215000D03*
%TO.P,KF3,3*%
%TO.N,Net-(U16-AIN0)*%
X147205000Y-27595000D03*
X147205000Y-35215000D03*
%TO.P,KF3,4*%
%TO.N,Net-(U16-AIN1)*%
X142125000Y-27595000D03*
X142125000Y-35215000D03*
%TO.P,KF3,5*%
%TO.N,Net-(U16-AIN2)*%
X137045000Y-27595000D03*
X137045000Y-35215000D03*
%TO.P,KF3,6*%
%TO.N,Net-(U16-AIN3)*%
X131965000Y-27595000D03*
X131965000Y-35215000D03*
%TD*%
D28*
%TO.P,J3,1,Pin_1*%
%TO.N,Net-(J3-Pin_1)*%
X48800000Y-34825000D03*
D29*
%TO.P,J3,2,Pin_2*%
%TO.N,Net-(J3-Pin_2)*%
X48800000Y-32285000D03*
%TD*%
D21*
%TO.P,IC4,1,ADJ/GND*%
%TO.N,GND*%
X88950000Y-33837500D03*
%TO.P,IC4,2,OUTPUT*%
%TO.N,Net-(IC4-OUTPUT)*%
X91250000Y-33837500D03*
%TO.P,IC4,3,INPUT*%
%TO.N,+5V*%
X93550000Y-33837500D03*
D22*
%TO.P,IC4,4,VOUT*%
%TO.N,unconnected-(IC4-VOUT-Pad4)*%
X91250000Y-27537500D03*
%TD*%
D18*
%TO.P,C11,1*%
%TO.N,+3.3V*%
X70184300Y-60790700D03*
%TO.P,C11,2*%
%TO.N,GND*%
X70184300Y-62340700D03*
%TD*%
D20*
%TO.P,C14,1*%
%TO.N,+5V*%
X96000000Y-33600000D03*
%TO.P,C14,2*%
%TO.N,GND*%
X96000000Y-35500000D03*
%TD*%
D32*
%TO.P,J2,1,1*%
%TO.N,M2B*%
X78000000Y-114457200D03*
%TO.P,J2,2,2*%
%TO.N,S1A*%
X82000000Y-114457200D03*
%TO.P,J2,3,3*%
%TO.N,S1B*%
X86000000Y-114457200D03*
%TO.P,J2,4,4*%
%TO.N,S2A*%
X90000000Y-114457200D03*
%TO.P,J2,5,5*%
%TO.N,S2B*%
X94000000Y-114457200D03*
%TO.P,J2,6,6*%
%TO.N,S3A*%
X98000000Y-114457200D03*
%TO.P,J2,7,7*%
%TO.N,S3B*%
X102000000Y-114457200D03*
%TO.P,J2,8,8*%
%TO.N,S4A*%
X106000000Y-114457200D03*
%TO.P,J2,9,9*%
%TO.N,M2A*%
X80000000Y-118457200D03*
%TO.P,J2,10,10*%
%TO.N,FlowSensor1*%
X84000000Y-118457200D03*
%TO.P,J2,11,11*%
%TO.N,FlowSensor2*%
X88000000Y-118457200D03*
%TO.P,J2,12,12*%
%TO.N,GND*%
X92000000Y-118457200D03*
%TO.P,J2,13,13*%
%TO.N,+5V*%
X96000000Y-118457200D03*
%TO.P,J2,14,14*%
%TO.N,S4B*%
X100000000Y-118457200D03*
%TO.P,J2,15,15*%
%TO.N,S5A*%
X104000000Y-118457200D03*
%TO.P,J2,16,16*%
%TO.N,M1B*%
X78000000Y-122457200D03*
%TO.P,J2,17,17*%
%TO.N,M1A*%
X82000000Y-122457200D03*
%TO.P,J2,18,18*%
%TO.N,Net-(J5-Pin_1)*%
X86000000Y-122457200D03*
%TO.P,J2,19,19*%
%TO.N,S7B*%
X90000000Y-122457200D03*
%TO.P,J2,20,20*%
%TO.N,S7A*%
X94000000Y-122457200D03*
%TO.P,J2,21,21*%
%TO.N,S5B*%
X98000000Y-122457200D03*
%TO.P,J2,22,22*%
%TO.N,S6B*%
X102000000Y-122457200D03*
%TO.P,J2,23,23*%
%TO.N,S6A*%
X106000000Y-122457200D03*
D33*
%TO.P,J2,MH1,MH1*%
%TO.N,unconnected-(J2-PadMH1)*%
X71500000Y-118957200D03*
%TO.P,J2,MH2,MH2*%
%TO.N,unconnected-(J2-PadMH2)*%
X112500000Y-118957200D03*
%TD*%
D34*
%TO.P,J9,1,Pin_1*%
%TO.N,GND*%
X101050000Y-57575000D03*
%TO.P,J9,2,Pin_2*%
%TO.N,+3.3V*%
X100050000Y-57575000D03*
%TO.P,J9,3,Pin_3*%
%TO.N,SDA*%
X99050000Y-57575000D03*
%TO.P,J9,4,Pin_4*%
%TO.N,SCL*%
X98050000Y-57575000D03*
D35*
%TO.P,J9,MP,MountPin*%
%TO.N,GND*%
X102350000Y-60100000D03*
X96750000Y-60100000D03*
%TD*%
D17*
%TO.P,D6,1,K*%
%TO.N,GND*%
X114584586Y-41640414D03*
%TO.P,D6,2,A*%
%TO.N,+5V*%
X114584586Y-43540414D03*
%TO.P,D6,3,K*%
%TO.N,Net-(U16-AIN2)*%
X116459586Y-42590414D03*
%TD*%
%TO.P,D7,1,K*%
%TO.N,GND*%
X120625000Y-35250000D03*
%TO.P,D7,2,A*%
%TO.N,+5V*%
X120625000Y-37150000D03*
%TO.P,D7,3,K*%
%TO.N,Net-(U16-AIN1)*%
X122500000Y-36200000D03*
%TD*%
D36*
%TO.P,R28,1*%
%TO.N,+3.3V*%
X98525000Y-54450000D03*
%TO.P,R28,2*%
%TO.N,SDA*%
X100175000Y-54450000D03*
%TD*%
D23*
%TO.P,U5,9,GND*%
%TO.N,GND*%
X57900000Y-102300000D03*
X59200000Y-102300000D03*
X60500000Y-102300000D03*
D24*
X59200000Y-101650000D03*
D23*
X57900000Y-101000000D03*
X59200000Y-101000000D03*
X60500000Y-101000000D03*
D25*
%TO.P,U5,8,OUT2*%
%TO.N,M2B*%
X61105000Y-104525000D03*
%TO.P,U5,7,ISEN*%
%TO.N,GND*%
X59835000Y-104525000D03*
%TO.P,U5,6,OUT1*%
%TO.N,M2A*%
X58565000Y-104525000D03*
%TO.P,U5,5,VM*%
%TO.N,+12V*%
X57295000Y-104525000D03*
%TO.P,U5,4,VREF*%
%TO.N,+3.3V*%
X57295000Y-98775000D03*
%TO.P,U5,3,IN1*%
%TO.N,M2_IN1*%
X58565000Y-98775000D03*
%TO.P,U5,2,IN2*%
%TO.N,M2_IN2*%
X59835000Y-98775000D03*
%TO.P,U5,1,GND*%
%TO.N,GND*%
X61105000Y-98775000D03*
%TD*%
D37*
%TO.P,U6,1,A0*%
%TO.N,+3.3V*%
X93637500Y-68775000D03*
%TO.P,U6,2,A1*%
%TO.N,GND*%
X93637500Y-69425000D03*
%TO.P,U6,3,A2*%
%TO.N,+3.3V*%
X93637500Y-70075000D03*
%TO.P,U6,4,A3*%
%TO.N,GND*%
X93637500Y-70725000D03*
%TO.P,U6,5,A4*%
%TO.N,+3.3V*%
X93637500Y-71375000D03*
%TO.P,U6,6,LED0*%
%TO.N,Net-(U6-LED0)*%
X93637500Y-72025000D03*
%TO.P,U6,7,LED1*%
%TO.N,Net-(U6-LED1)*%
X93637500Y-72675000D03*
%TO.P,U6,8,LED2*%
%TO.N,Net-(U6-LED2)*%
X93637500Y-73325000D03*
%TO.P,U6,9,LED3*%
%TO.N,Net-(U6-LED3)*%
X93637500Y-73975000D03*
%TO.P,U6,10,LED4*%
%TO.N,Net-(U10-IN1)*%
X93637500Y-74625000D03*
%TO.P,U6,11,LED5*%
%TO.N,Net-(U10-IN2)*%
X93637500Y-75275000D03*
%TO.P,U6,12,LED6*%
%TO.N,Net-(U11-IN1)*%
X93637500Y-75925000D03*
%TO.P,U6,13,LED7*%
%TO.N,Net-(U11-IN2)*%
X93637500Y-76575000D03*
%TO.P,U6,14,VSS*%
%TO.N,GND*%
X93637500Y-77225000D03*
%TO.P,U6,15,LED8*%
%TO.N,Net-(U12-IN1)*%
X99362500Y-77225000D03*
%TO.P,U6,16,LED9*%
%TO.N,Net-(U12-IN2)*%
X99362500Y-76575000D03*
%TO.P,U6,17,LED10*%
%TO.N,Net-(U13-IN1)*%
X99362500Y-75925000D03*
%TO.P,U6,18,LED11*%
%TO.N,Net-(U13-IN2)*%
X99362500Y-75275000D03*
%TO.P,U6,19,LED12*%
%TO.N,Net-(U14-IN1)*%
X99362500Y-74625000D03*
%TO.P,U6,20,LED13*%
%TO.N,Net-(U14-IN2)*%
X99362500Y-73975000D03*
%TO.P,U6,21,LED14*%
%TO.N,unconnected-(U6-LED14-Pad21)*%
X99362500Y-73325000D03*
%TO.P,U6,22,LED15*%
%TO.N,unconnected-(U6-LED15-Pad22)*%
X99362500Y-72675000D03*
%TO.P,U6,23,~{OE}*%
%TO.N,OutputEnable*%
X99362500Y-72025000D03*
%TO.P,U6,24,A5*%
%TO.N,GND*%
X99362500Y-71375000D03*
%TO.P,U6,25,EXTCLK*%
X99362500Y-70725000D03*
%TO.P,U6,26,SCL*%
%TO.N,SCL*%
X99362500Y-70075000D03*
%TO.P,U6,27,SDA*%
%TO.N,SDA*%
X99362500Y-69425000D03*
%TO.P,U6,28,VDD*%
%TO.N,+3.3V*%
X99362500Y-68775000D03*
%TD*%
D26*
%TO.P,C16,1*%
%TO.N,+12V*%
X53000000Y-90800000D03*
%TO.P,C16,2*%
%TO.N,GND*%
X53000000Y-85200000D03*
%TD*%
D36*
%TO.P,R2,1*%
%TO.N,FlowSensor2*%
X28784300Y-43815700D03*
%TO.P,R2,2*%
%TO.N,Net-(R2-Pad2)*%
X30434300Y-43815700D03*
%TD*%
D18*
%TO.P,C1,1*%
%TO.N,+12V*%
X41750000Y-103950000D03*
%TO.P,C1,2*%
%TO.N,GND*%
X41750000Y-105500000D03*
%TD*%
D26*
%TO.P,C39,1*%
%TO.N,+12V*%
X100200000Y-90814434D03*
%TO.P,C39,2*%
%TO.N,GND*%
X100200000Y-85214434D03*
%TD*%
D38*
%TO.P,J1,1,VBUS*%
%TO.N,Net-(D4-A)*%
X26934300Y-63715700D03*
%TO.P,J1,2,D-*%
%TO.N,Net-(J1-D-)*%
X26934300Y-64365700D03*
%TO.P,J1,3,D+*%
%TO.N,Net-(J1-D+)*%
X26934300Y-65015700D03*
%TO.P,J1,4,ID*%
%TO.N,unconnected-(J1-ID-Pad4)*%
X26934300Y-65665700D03*
%TO.P,J1,5,GND*%
%TO.N,GND*%
X26934300Y-66315700D03*
D39*
%TO.P,J1,S1,SHIELD*%
X27184300Y-62215700D03*
D40*
%TO.P,J1,S2,SHIELD*%
X27184300Y-67815700D03*
%TO.P,J1,S3,SHIELD*%
X25034300Y-65015700D03*
%TD*%
D41*
%TO.P,U16,1,ADDR*%
%TO.N,GND*%
X117800000Y-48900000D03*
%TO.P,U16,2,ALERT/RDY*%
%TO.N,unconnected-(U16-ALERT{slash}RDY-Pad2)*%
X117800000Y-48400000D03*
%TO.P,U16,3,GND*%
%TO.N,GND*%
X117800000Y-47900000D03*
%TO.P,U16,4,AIN0*%
%TO.N,Net-(U16-AIN0)*%
X117800000Y-47400000D03*
%TO.P,U16,5,AIN1*%
%TO.N,Net-(U16-AIN1)*%
X117800000Y-46900000D03*
%TO.P,U16,6,AIN2*%
%TO.N,Net-(U16-AIN2)*%
X113500000Y-46900000D03*
%TO.P,U16,7,AIN3*%
%TO.N,Net-(U16-AIN3)*%
X113500000Y-47400000D03*
%TO.P,U16,8,VDD*%
%TO.N,+5V*%
X113500000Y-47900000D03*
%TO.P,U16,9,SDA*%
%TO.N,Net-(IC3-SDA2)*%
X113500000Y-48400000D03*
%TO.P,U16,10,SCL*%
%TO.N,Net-(IC3-SCL2)*%
X113500000Y-48900000D03*
%TD*%
D42*
%TO.P,J5,1,Pin_1*%
%TO.N,Net-(J5-Pin_1)*%
X37750000Y-111750000D03*
%TD*%
D43*
%TO.P,C5,1*%
%TO.N,+3.3V*%
X103750000Y-37250000D03*
%TO.P,C5,2*%
%TO.N,GND*%
X102200000Y-37250000D03*
%TD*%
D23*
%TO.P,U2,9,GND*%
%TO.N,GND*%
X46300000Y-102450000D03*
X47600000Y-102450000D03*
X48900000Y-102450000D03*
D24*
X47600000Y-101800000D03*
D23*
X46300000Y-101150000D03*
X47600000Y-101150000D03*
X48900000Y-101150000D03*
D25*
%TO.P,U2,8,OUT2*%
%TO.N,M1B*%
X49505000Y-104675000D03*
%TO.P,U2,7,ISEN*%
%TO.N,GND*%
X48235000Y-104675000D03*
%TO.P,U2,6,OUT1*%
%TO.N,M1A*%
X46965000Y-104675000D03*
%TO.P,U2,5,VM*%
%TO.N,+12V*%
X45695000Y-104675000D03*
%TO.P,U2,4,VREF*%
%TO.N,+3.3V*%
X45695000Y-98925000D03*
%TO.P,U2,3,IN1*%
%TO.N,M1_IN1*%
X46965000Y-98925000D03*
%TO.P,U2,2,IN2*%
%TO.N,M1_IN2*%
X48235000Y-98925000D03*
%TO.P,U2,1,GND*%
%TO.N,GND*%
X49505000Y-98925000D03*
%TD*%
D20*
%TO.P,C8,1*%
%TO.N,Net-(D3-K)*%
X135303375Y-60050000D03*
%TO.P,C8,2*%
%TO.N,GND*%
X135303375Y-61950000D03*
%TD*%
D44*
%TO.P,U1,1*%
%TO.N,Net-(R2-Pad2)*%
X32434300Y-43795700D03*
%TO.P,U1,2*%
%TO.N,GND*%
X32434300Y-46335700D03*
%TO.P,U1,3*%
X41434300Y-46335700D03*
%TO.P,U1,4*%
%TO.N,FlowPin2*%
X41434300Y-43795700D03*
%TD*%
D23*
%TO.P,U8,9,GND*%
%TO.N,GND*%
X69633332Y-102450000D03*
X70933332Y-102450000D03*
X72233332Y-102450000D03*
D24*
X70933332Y-101800000D03*
D23*
X69633332Y-101150000D03*
X70933332Y-101150000D03*
X72233332Y-101150000D03*
D25*
%TO.P,U8,8,OUT2*%
%TO.N,S1B*%
X72838332Y-104675000D03*
%TO.P,U8,7,ISEN*%
%TO.N,GND*%
X71568332Y-104675000D03*
%TO.P,U8,6,OUT1*%
%TO.N,S1A*%
X70298332Y-104675000D03*
%TO.P,U8,5,VM*%
%TO.N,+12V*%
X69028332Y-104675000D03*
%TO.P,U8,4,VREF*%
%TO.N,+3.3V*%
X69028332Y-98925000D03*
%TO.P,U8,3,IN1*%
%TO.N,Net-(U6-LED0)*%
X70298332Y-98925000D03*
%TO.P,U8,2,IN2*%
%TO.N,Net-(U6-LED1)*%
X71568332Y-98925000D03*
%TO.P,U8,1,GND*%
%TO.N,GND*%
X72838332Y-98925000D03*
%TD*%
D36*
%TO.P,R5,1*%
%TO.N,+3.3V*%
X45925000Y-65750000D03*
%TO.P,R5,2*%
%TO.N,SCL*%
X47575000Y-65750000D03*
%TD*%
%TO.P,R6,1*%
%TO.N,+3.3V*%
X45925000Y-68750000D03*
%TO.P,R6,2*%
%TO.N,SDA*%
X47575000Y-68750000D03*
%TD*%
D26*
%TO.P,C46,1*%
%TO.N,+12V*%
X135400000Y-90814434D03*
%TO.P,C46,2*%
%TO.N,GND*%
X135400000Y-85214434D03*
%TD*%
D45*
%TO.P,R7,1*%
%TO.N,Net-(J8-Pin_1)*%
X48850000Y-27225000D03*
%TO.P,R7,2*%
%TO.N,Net-(J3-Pin_2)*%
X48850000Y-28875000D03*
%TD*%
D44*
%TO.P,U4,1*%
%TO.N,Net-(R1-Pad2)*%
X32434300Y-50795700D03*
%TO.P,U4,2*%
%TO.N,GND*%
X32434300Y-53335700D03*
%TO.P,U4,3*%
X41434300Y-53335700D03*
%TO.P,U4,4*%
%TO.N,FlowPin1*%
X41434300Y-50795700D03*
%TD*%
D46*
%TO.P,IC2,1,VIN*%
%TO.N,Net-(D3-K)*%
X130503375Y-57163250D03*
%TO.P,IC2,2,Output*%
%TO.N,Net-(IC2-Output)*%
X128803375Y-57163250D03*
%TO.P,IC2,3,GND*%
%TO.N,GND*%
X127103375Y-57163250D03*
%TO.P,IC2,4,Feedback*%
%TO.N,+5V*%
X125403375Y-57163250D03*
%TO.P,IC2,5,On/Off*%
%TO.N,GND*%
X123703375Y-57163250D03*
D47*
%TO.P,IC2,6,GND_1*%
X127103375Y-66793250D03*
%TD*%
D18*
%TO.P,C43,1*%
%TO.N,+12V*%
X148300000Y-103725000D03*
%TO.P,C43,2*%
%TO.N,GND*%
X148300000Y-105275000D03*
%TD*%
%TO.P,C41,1*%
%TO.N,+12V*%
X123100000Y-103725000D03*
%TO.P,C41,2*%
%TO.N,GND*%
X123100000Y-105275000D03*
%TD*%
D30*
%TO.P,R26,1*%
%TO.N,+5V*%
X107725000Y-48150000D03*
%TO.P,R26,2*%
%TO.N,Net-(IC3-EN)*%
X106075000Y-48150000D03*
%TD*%
D18*
%TO.P,C9,1*%
%TO.N,+3.3V*%
X67434300Y-60790700D03*
%TO.P,C9,2*%
%TO.N,GND*%
X67434300Y-62340700D03*
%TD*%
%TO.P,C3,1*%
%TO.N,+3.3V*%
X41934300Y-69340700D03*
%TO.P,C3,2*%
%TO.N,GND*%
X41934300Y-70890700D03*
%TD*%
D48*
%TO.P,IC3,1,GND*%
%TO.N,GND*%
X103992000Y-50900000D03*
%TO.P,IC3,2,VREF1*%
%TO.N,+3.3V*%
X103992000Y-51400000D03*
%TO.P,IC3,3,SCL1*%
%TO.N,SCL*%
X103992000Y-51900000D03*
%TO.P,IC3,4,SDA1*%
%TO.N,SDA*%
X103992000Y-52400000D03*
%TO.P,IC3,5,SDA2*%
%TO.N,Net-(IC3-SDA2)*%
X107142000Y-52400000D03*
%TO.P,IC3,6,SCL2*%
%TO.N,Net-(IC3-SCL2)*%
X107142000Y-51900000D03*
%TO.P,IC3,7,VREF2*%
%TO.N,Net-(IC3-EN)*%
X107142000Y-51400000D03*
%TO.P,IC3,8,EN*%
X107142000Y-50900000D03*
%TD*%
D36*
%TO.P,R27,1*%
%TO.N,+3.3V*%
X98725000Y-51550000D03*
%TO.P,R27,2*%
%TO.N,SCL*%
X100375000Y-51550000D03*
%TD*%
D49*
%TO.P,D1,1,K*%
%TO.N,GND*%
X115050000Y-64500000D03*
%TO.P,D1,2,A*%
%TO.N,Net-(D1-A)*%
X116625000Y-64500000D03*
%TD*%
D31*
%TO.P,R25,1*%
%TO.N,+5V*%
X110500000Y-52925000D03*
%TO.P,R25,2*%
%TO.N,Net-(IC3-SDA2)*%
X110500000Y-51275000D03*
%TD*%
D50*
%TO.P,C31,1*%
%TO.N,+3.3V*%
X99575000Y-66900000D03*
%TO.P,C31,2*%
%TO.N,GND*%
X101125000Y-66900000D03*
%TD*%
D26*
%TO.P,C44,1*%
%TO.N,+12V*%
X111800000Y-90814434D03*
%TO.P,C44,2*%
%TO.N,GND*%
X111800000Y-85214434D03*
%TD*%
D45*
%TO.P,R24,1*%
%TO.N,+5V*%
X110500000Y-48150000D03*
%TO.P,R24,2*%
%TO.N,Net-(IC3-SCL2)*%
X110500000Y-49800000D03*
%TD*%
D26*
%TO.P,C45,1*%
%TO.N,+12V*%
X124500000Y-90814434D03*
%TO.P,C45,2*%
%TO.N,GND*%
X124500000Y-85214434D03*
%TD*%
D28*
%TO.P,J10,1,Pin_1*%
%TO.N,INTn*%
X71610000Y-27880000D03*
D29*
%TO.P,J10,2,Pin_2*%
%TO.N,SS*%
X74150000Y-27880000D03*
%TO.P,J10,3,Pin_3*%
%TO.N,SCK*%
X76690000Y-27880000D03*
%TO.P,J10,4,Pin_4*%
%TO.N,MOSI*%
X79230000Y-27880000D03*
%TO.P,J10,5,Pin_5*%
%TO.N,GND*%
X81770000Y-27880000D03*
%TO.P,J10,6,Pin_6*%
X84310000Y-27880000D03*
%TD*%
D20*
%TO.P,C4,1*%
%TO.N,uC_EN*%
X44134300Y-75265700D03*
%TO.P,C4,2*%
%TO.N,GND*%
X44134300Y-77165700D03*
%TD*%
D42*
%TO.P,J6,1,Pin_1*%
%TO.N,GND*%
X30150000Y-81550000D03*
%TD*%
D18*
%TO.P,C48,1*%
%TO.N,+5V*%
X115900000Y-50650000D03*
%TO.P,C48,2*%
%TO.N,GND*%
X115900000Y-52200000D03*
%TD*%
D51*
%TO.P,Q1,1,G*%
%TO.N,Net-(Q1-G)*%
X32339300Y-72253200D03*
%TO.P,Q1,2,S*%
%TO.N,Net-(Q1-S)*%
X30439300Y-72253200D03*
%TO.P,Q1,3,D*%
%TO.N,uC_EN*%
X31389300Y-74128200D03*
%TD*%
D52*
%TO.P,C12,1*%
%TO.N,+5V*%
X155303375Y-45500000D03*
%TO.P,C12,2*%
%TO.N,GND*%
X155303375Y-53900000D03*
%TD*%
D45*
%TO.P,R22,1*%
%TO.N,+3.3V*%
X102600000Y-68450000D03*
%TO.P,R22,2*%
%TO.N,OutputEnable*%
X102600000Y-70100000D03*
%TD*%
D26*
%TO.P,C38,1*%
%TO.N,+12V*%
X76400000Y-90814434D03*
%TO.P,C38,2*%
%TO.N,GND*%
X76400000Y-85214434D03*
%TD*%
D50*
%TO.P,C17,1*%
%TO.N,+3.3V*%
X58250850Y-33295000D03*
%TO.P,C17,2*%
%TO.N,GND*%
X59800850Y-33295000D03*
%TD*%
D36*
%TO.P,R1,1*%
%TO.N,FlowSensor1*%
X28784300Y-50835700D03*
%TO.P,R1,2*%
%TO.N,Net-(R1-Pad2)*%
X30434300Y-50835700D03*
%TD*%
D18*
%TO.P,C40,1*%
%TO.N,+12V*%
X110900000Y-103825000D03*
%TO.P,C40,2*%
%TO.N,GND*%
X110900000Y-105375000D03*
%TD*%
D53*
%TO.P,D3,1,K*%
%TO.N,Net-(D3-K)*%
X155403375Y-61300000D03*
D54*
%TO.P,D3,2,A*%
%TO.N,+12V*%
X155403375Y-69500000D03*
%TD*%
D23*
%TO.P,U11,9,GND*%
%TO.N,GND*%
X115575000Y-102450000D03*
X116875000Y-102450000D03*
X118175000Y-102450000D03*
D24*
X116875000Y-101800000D03*
D23*
X115575000Y-101150000D03*
X116875000Y-101150000D03*
X118175000Y-101150000D03*
D25*
%TO.P,U11,8,OUT2*%
%TO.N,S4B*%
X118780000Y-104675000D03*
%TO.P,U11,7,ISEN*%
%TO.N,GND*%
X117510000Y-104675000D03*
%TO.P,U11,6,OUT1*%
%TO.N,S4A*%
X116240000Y-104675000D03*
%TO.P,U11,5,VM*%
%TO.N,+12V*%
X114970000Y-104675000D03*
%TO.P,U11,4,VREF*%
%TO.N,+3.3V*%
X114970000Y-98925000D03*
%TO.P,U11,3,IN1*%
%TO.N,Net-(U11-IN1)*%
X116240000Y-98925000D03*
%TO.P,U11,2,IN2*%
%TO.N,Net-(U11-IN2)*%
X117510000Y-98925000D03*
%TO.P,U11,1,GND*%
%TO.N,GND*%
X118780000Y-98925000D03*
%TD*%
D18*
%TO.P,C42,1*%
%TO.N,+12V*%
X135900000Y-103625000D03*
%TO.P,C42,2*%
%TO.N,GND*%
X135900000Y-105175000D03*
%TD*%
D55*
%TO.P,C6,1*%
%TO.N,uC_EN*%
X70434300Y-59090700D03*
%TO.P,C6,2*%
%TO.N,GND*%
X70434300Y-57540700D03*
%TD*%
D51*
%TO.P,Q2,1,G*%
%TO.N,Net-(Q1-S)*%
X38439300Y-72453200D03*
%TO.P,Q2,2,S*%
%TO.N,Net-(Q1-G)*%
X36539300Y-72453200D03*
%TO.P,Q2,3,D*%
%TO.N,Net-(Q2-D)*%
X37489300Y-74328200D03*
%TD*%
D23*
%TO.P,U9,9,GND*%
%TO.N,GND*%
X81300000Y-102450000D03*
X82600000Y-102450000D03*
X83900000Y-102450000D03*
D24*
X82600000Y-101800000D03*
D23*
X81300000Y-101150000D03*
X82600000Y-101150000D03*
X83900000Y-101150000D03*
D25*
%TO.P,U9,8,OUT2*%
%TO.N,S2B*%
X84505000Y-104675000D03*
%TO.P,U9,7,ISEN*%
%TO.N,GND*%
X83235000Y-104675000D03*
%TO.P,U9,6,OUT1*%
%TO.N,S2A*%
X81965000Y-104675000D03*
%TO.P,U9,5,VM*%
%TO.N,+12V*%
X80695000Y-104675000D03*
%TO.P,U9,4,VREF*%
%TO.N,+3.3V*%
X80695000Y-98925000D03*
%TO.P,U9,3,IN1*%
%TO.N,Net-(U6-LED2)*%
X81965000Y-98925000D03*
%TO.P,U9,2,IN2*%
%TO.N,Net-(U6-LED3)*%
X83235000Y-98925000D03*
%TO.P,U9,1,GND*%
%TO.N,GND*%
X84505000Y-98925000D03*
%TD*%
D23*
%TO.P,U12,9,GND*%
%TO.N,GND*%
X128250000Y-102450000D03*
X129550000Y-102450000D03*
X130850000Y-102450000D03*
D24*
X129550000Y-101800000D03*
D23*
X128250000Y-101150000D03*
X129550000Y-101150000D03*
X130850000Y-101150000D03*
D25*
%TO.P,U12,8,OUT2*%
%TO.N,S5B*%
X131455000Y-104675000D03*
%TO.P,U12,7,ISEN*%
%TO.N,GND*%
X130185000Y-104675000D03*
%TO.P,U12,6,OUT1*%
%TO.N,S5A*%
X128915000Y-104675000D03*
%TO.P,U12,5,VM*%
%TO.N,+12V*%
X127645000Y-104675000D03*
%TO.P,U12,4,VREF*%
%TO.N,+3.3V*%
X127645000Y-98925000D03*
%TO.P,U12,3,IN1*%
%TO.N,Net-(U12-IN1)*%
X128915000Y-98925000D03*
%TO.P,U12,2,IN2*%
%TO.N,Net-(U12-IN2)*%
X130185000Y-98925000D03*
%TO.P,U12,1,GND*%
%TO.N,GND*%
X131455000Y-98925000D03*
%TD*%
D56*
%TO.P,D2,1*%
%TO.N,Net-(IC2-Output)*%
X129803375Y-52000000D03*
%TO.P,D2,2*%
%TO.N,GND*%
X129803375Y-48000000D03*
%TD*%
D18*
%TO.P,C35,1*%
%TO.N,+12V*%
X76300000Y-103625000D03*
%TO.P,C35,2*%
%TO.N,GND*%
X76300000Y-105175000D03*
%TD*%
D26*
%TO.P,C2,1*%
%TO.N,+12V*%
X41400000Y-90814434D03*
%TO.P,C2,2*%
%TO.N,GND*%
X41400000Y-85214434D03*
%TD*%
D57*
%TO.P,F1,1*%
%TO.N,+12V*%
X31250000Y-91000000D03*
D58*
X31250000Y-94700000D03*
%TO.P,F1,2*%
%TO.N,Net-(J5-Pin_1)*%
X31250000Y-99000000D03*
X31250000Y-102700000D03*
%TD*%
D18*
%TO.P,C34,1*%
%TO.N,+12V*%
X64800000Y-103725000D03*
%TO.P,C34,2*%
%TO.N,GND*%
X64800000Y-105275000D03*
%TD*%
D23*
%TO.P,U13,9,GND*%
%TO.N,GND*%
X140925000Y-102450000D03*
X142225000Y-102450000D03*
X143525000Y-102450000D03*
D24*
X142225000Y-101800000D03*
D23*
X140925000Y-101150000D03*
X142225000Y-101150000D03*
X143525000Y-101150000D03*
D25*
%TO.P,U13,8,OUT2*%
%TO.N,S6B*%
X144130000Y-104675000D03*
%TO.P,U13,7,ISEN*%
%TO.N,GND*%
X142860000Y-104675000D03*
%TO.P,U13,6,OUT1*%
%TO.N,S6A*%
X141590000Y-104675000D03*
%TO.P,U13,5,VM*%
%TO.N,+12V*%
X140320000Y-104675000D03*
%TO.P,U13,4,VREF*%
%TO.N,+3.3V*%
X140320000Y-98925000D03*
%TO.P,U13,3,IN1*%
%TO.N,Net-(U13-IN1)*%
X141590000Y-98925000D03*
%TO.P,U13,2,IN2*%
%TO.N,Net-(U13-IN2)*%
X142860000Y-98925000D03*
%TO.P,U13,1,GND*%
%TO.N,GND*%
X144130000Y-98925000D03*
%TD*%
D52*
%TO.P,C10,1*%
%TO.N,Net-(D3-K)*%
X143303375Y-61300000D03*
%TO.P,C10,2*%
%TO.N,GND*%
X143303375Y-69700000D03*
%TD*%
D43*
%TO.P,C13,1*%
%TO.N,Net-(IC4-OUTPUT)*%
X90575000Y-37337500D03*
%TO.P,C13,2*%
%TO.N,GND*%
X89025000Y-37337500D03*
%TD*%
D23*
%TO.P,U14,9,GND*%
%TO.N,GND*%
X153600000Y-102450000D03*
X154900000Y-102450000D03*
X156200000Y-102450000D03*
D24*
X154900000Y-101800000D03*
D23*
X153600000Y-101150000D03*
X154900000Y-101150000D03*
X156200000Y-101150000D03*
D25*
%TO.P,U14,8,OUT2*%
%TO.N,S7B*%
X156805000Y-104675000D03*
%TO.P,U14,7,ISEN*%
%TO.N,GND*%
X155535000Y-104675000D03*
%TO.P,U14,6,OUT1*%
%TO.N,S7A*%
X154265000Y-104675000D03*
%TO.P,U14,5,VM*%
%TO.N,+12V*%
X152995000Y-104675000D03*
%TO.P,U14,4,VREF*%
%TO.N,+3.3V*%
X152995000Y-98925000D03*
%TO.P,U14,3,IN1*%
%TO.N,Net-(U14-IN1)*%
X154265000Y-98925000D03*
%TO.P,U14,2,IN2*%
%TO.N,Net-(U14-IN2)*%
X155535000Y-98925000D03*
%TO.P,U14,1,GND*%
%TO.N,GND*%
X156805000Y-98925000D03*
%TD*%
D59*
%TO.P,D4,1,K*%
%TO.N,+5V*%
X26684300Y-54565700D03*
%TO.P,D4,2,A*%
%TO.N,Net-(D4-A)*%
X26684300Y-58565700D03*
%TD*%
D60*
%TO.N,GND*%
X102350000Y-65850000D03*
X53600000Y-82450000D03*
X135900000Y-106800000D03*
X102400000Y-62250000D03*
X41750000Y-106750000D03*
X86800000Y-34337500D03*
X76563972Y-82939056D03*
X104000000Y-49650000D03*
X70184300Y-63815700D03*
X124131427Y-82883007D03*
X119141756Y-35457088D03*
X134103375Y-66500000D03*
X87300000Y-37337500D03*
X119249918Y-49797238D03*
X134103375Y-70200000D03*
X120703375Y-66400000D03*
X119361000Y-47700000D03*
X96000000Y-37250000D03*
X76250000Y-106500004D03*
X41434300Y-55565700D03*
X123100000Y-106800000D03*
X127443677Y-54678128D03*
X135231427Y-82483007D03*
X91600000Y-70900000D03*
X112590000Y-35284000D03*
X86800000Y-33337500D03*
X67434300Y-63815686D03*
X31434300Y-48315700D03*
X41434300Y-48315700D03*
X62700000Y-42400000D03*
X108750001Y-36750001D03*
X40234300Y-71215700D03*
X148300000Y-106800000D03*
X44134300Y-78815700D03*
X98250000Y-83500000D03*
X103800000Y-58600000D03*
X146700000Y-82514434D03*
X129803376Y-45700001D03*
X122050000Y-57150000D03*
X120803375Y-70200000D03*
X57300000Y-26650000D03*
X155303376Y-57099999D03*
X110000000Y-83500000D03*
X120500000Y-40400000D03*
X96725436Y-62024419D03*
X99500000Y-33250000D03*
X100725000Y-37250000D03*
X115850000Y-53500000D03*
X61265989Y-32735166D03*
X70434300Y-56065700D03*
X113100000Y-41750002D03*
X101200000Y-71100000D03*
X143303375Y-72900000D03*
X64800000Y-82514434D03*
X91600000Y-69200000D03*
X64900000Y-106600000D03*
X135303375Y-63500000D03*
X99500000Y-34250000D03*
X53750000Y-106750000D03*
X46250000Y-62000000D03*
X64434300Y-63815700D03*
X93500000Y-79400000D03*
X32184300Y-55315700D03*
X40319748Y-62421148D03*
X41500000Y-82500000D03*
X114695500Y-66600000D03*
X97900000Y-106700000D03*
X112300000Y-106700000D03*
%TO.N,+5V*%
X145250000Y-121750000D03*
X26684300Y-52065700D03*
X26500000Y-42000000D03*
%TO.N,S7B*%
X139500003Y-124749997D03*
%TO.N,+3.3V*%
X67300000Y-98900000D03*
X45750000Y-86000000D03*
X95200577Y-69549423D03*
X99700000Y-98900000D03*
X112000000Y-98900000D03*
X48125790Y-71875790D03*
X97050000Y-63023000D03*
X79200000Y-98900000D03*
X137800000Y-98900000D03*
X43800000Y-97950000D03*
X46000000Y-70000000D03*
X97750000Y-68648000D03*
X55700000Y-98800000D03*
X43619839Y-69628666D03*
X100050000Y-62950000D03*
X124800000Y-98900000D03*
X150200000Y-98900000D03*
%TO.N,OutputEnable*%
X101200000Y-69250000D03*
X86600000Y-58850000D03*
%TO.N,M1_IN2*%
X69500000Y-67750000D03*
X48250000Y-86250000D03*
X75034300Y-59565700D03*
X48200000Y-97100000D03*
%TO.N,FlowPin2*%
X42934300Y-45315700D03*
X46184300Y-48065700D03*
%TO.N,M1_IN1*%
X47000000Y-97100000D03*
X47000000Y-86250000D03*
X68000000Y-67750000D03*
X73734300Y-59565700D03*
%TO.N,M2_IN2*%
X59750000Y-97000000D03*
X59750000Y-86000000D03*
X77750000Y-59500002D03*
X74500000Y-67750000D03*
%TO.N,SCL*%
X51250000Y-65750000D03*
X55749994Y-66250000D03*
%TO.N,SDA*%
X54999996Y-67000000D03*
X50250000Y-67250000D03*
X93550000Y-67000000D03*
X95404000Y-66850968D03*
%TO.N,Net-(Q2-D)*%
X47750000Y-42750000D03*
X44184300Y-42815700D03*
%TO.N,uC_RX*%
X42707800Y-58142212D03*
X45241300Y-57615700D03*
%TO.N,uC_TX*%
X45334300Y-59215700D03*
X41930800Y-59082914D03*
%TO.N,MISO*%
X64999996Y-42750000D03*
X61717009Y-39540075D03*
%TO.N,Net-(U6-LED2)*%
X81750000Y-86750000D03*
X82000000Y-97000000D03*
%TO.N,Net-(U6-LED3)*%
X83200000Y-97000000D03*
X83000000Y-86750000D03*
%TO.N,Net-(U6-LED0)*%
X70250000Y-86250000D03*
X70250000Y-97000000D03*
%TO.N,Net-(U6-LED1)*%
X71500000Y-97000000D03*
X71500000Y-86250000D03*
%TO.N,Net-(U10-IN1)*%
X104825577Y-86424423D03*
X103500000Y-97000000D03*
%TO.N,Net-(U10-IN2)*%
X106000000Y-86500000D03*
X104800000Y-97000000D03*
%TO.N,Net-(U11-IN1)*%
X116075577Y-86674423D03*
X116200000Y-97000000D03*
%TO.N,Net-(U11-IN2)*%
X117250000Y-86500000D03*
X117500000Y-97000000D03*
%TO.N,Net-(U12-IN1)*%
X128950577Y-86549423D03*
X128900000Y-97000000D03*
%TO.N,Net-(U12-IN2)*%
X130200000Y-97000000D03*
X130000000Y-86500000D03*
%TO.N,Net-(U13-IN1)*%
X140500000Y-86500000D03*
X141600000Y-97000000D03*
%TO.N,Net-(U13-IN2)*%
X142800000Y-97000000D03*
X142000000Y-86750000D03*
%TO.N,Net-(U14-IN1)*%
X154250000Y-88749982D03*
X150980887Y-84730887D03*
%TO.N,Net-(U14-IN2)*%
X151750000Y-84000000D03*
X155275000Y-87475000D03*
%TO.N,FlowPin1*%
X46184300Y-49315700D03*
X42934300Y-50315700D03*
%TO.N,M2_IN1*%
X76434300Y-59500000D03*
X58500000Y-97000000D03*
X58500000Y-86000000D03*
X72500000Y-67750000D03*
%TO.N,RX2*%
X55500000Y-38650000D03*
X52300000Y-42100000D03*
%TO.N,RS485_Enable*%
X53800000Y-42150000D03*
X58600000Y-38723000D03*
%TO.N,TX2*%
X50500000Y-41600000D03*
X54150000Y-38650000D03*
%TD*%
D61*
%TO.N,SCL*%
X92300000Y-66093360D02*
X92743360Y-66093360D01*
X94550000Y-66093360D02*
X92843360Y-66093360D01*
X92756640Y-66093360D02*
X92843360Y-66093360D01*
X92750000Y-66100000D02*
X92756640Y-66093360D01*
X92743360Y-66093360D02*
X92750000Y-66100000D01*
X92300000Y-66093360D02*
X55906634Y-66093360D01*
X55906634Y-66093360D02*
X55749994Y-66250000D01*
%TO.N,SDA*%
X54999996Y-67000000D02*
X93550000Y-67000000D01*
D62*
%TO.N,GND*%
X67434300Y-62340700D02*
X67434300Y-63815686D01*
D63*
%TO.N,+3.3V*%
X59297280Y-60704300D02*
X48125790Y-71875790D01*
D61*
%TO.N,RX2*%
X64474150Y-31225850D02*
X64474150Y-31005000D01*
X57050000Y-38650000D02*
X64474150Y-31225850D01*
%TO.N,RS485_Enable*%
X64474150Y-29735000D02*
X64474150Y-28465000D01*
X64937700Y-29735000D02*
X64474150Y-29735000D01*
X65850000Y-31763211D02*
X65850000Y-30647300D01*
X65850000Y-30647300D02*
X64937700Y-29735000D01*
%TO.N,TX2*%
X62600000Y-28688200D02*
X64093200Y-27195000D01*
X64093200Y-27195000D02*
X64474150Y-27195000D01*
X62600000Y-32450000D02*
X62600000Y-28688200D01*
%TO.N,+3.3V*%
X58250850Y-31780000D02*
X59025850Y-31005000D01*
X58250850Y-33295000D02*
X58250850Y-31780000D01*
%TO.N,Net-(J3-Pin_1)*%
X58615000Y-29735000D02*
X59025850Y-29735000D01*
X53550000Y-34800000D02*
X58615000Y-29735000D01*
%TO.N,Net-(J8-Pin_1)*%
X57365000Y-28465000D02*
X59025850Y-28465000D01*
X56125000Y-27225000D02*
X57365000Y-28465000D01*
X56125000Y-27225000D02*
X48850000Y-27225000D01*
%TO.N,GND*%
X57845000Y-27195000D02*
X57300000Y-26650000D01*
X59025850Y-27195000D02*
X57845000Y-27195000D01*
D64*
X53000000Y-83050000D02*
X53600000Y-82450000D01*
X53000000Y-85200000D02*
X53000000Y-83050000D01*
D61*
%TO.N,Net-(J8-Pin_1)*%
X32475000Y-27225000D02*
X30400000Y-29300000D01*
X48850000Y-27225000D02*
X32475000Y-27225000D01*
%TO.N,Net-(J3-Pin_1)*%
X40925000Y-34825000D02*
X35400000Y-29300000D01*
X48800000Y-34825000D02*
X40925000Y-34825000D01*
D62*
%TO.N,uC_EN*%
X67684300Y-57490700D02*
X68834300Y-57490700D01*
X44184300Y-75215700D02*
X44134300Y-75265700D01*
D61*
X31389300Y-74128200D02*
X32653800Y-75392700D01*
X32653800Y-75392700D02*
X44007300Y-75392700D01*
X59315700Y-59434300D02*
X44250000Y-74500000D01*
X44007300Y-75392700D02*
X44134300Y-75265700D01*
X65086100Y-59434300D02*
X59315700Y-59434300D01*
D62*
X66174100Y-59434300D02*
X66540100Y-59068300D01*
D61*
X44250000Y-75150000D02*
X44134300Y-75265700D01*
D62*
X68834300Y-57490700D02*
X70434300Y-59090700D01*
X66540100Y-59068300D02*
X66540100Y-58634900D01*
X65086100Y-59434300D02*
X66174100Y-59434300D01*
X66540100Y-58634900D02*
X67684300Y-57490700D01*
D61*
X44250000Y-74500000D02*
X44250000Y-75150000D01*
%TO.N,GND*%
X103992000Y-50900000D02*
X103992000Y-49658000D01*
X115900000Y-52200000D02*
X115900000Y-53450000D01*
X117800000Y-47900000D02*
X119161000Y-47900000D01*
D63*
X64800000Y-106500000D02*
X64900000Y-106600000D01*
D62*
X47391800Y-62075700D02*
X46325700Y-62075700D01*
D63*
X64800000Y-105275000D02*
X64800000Y-106500000D01*
D65*
X127103375Y-57163250D02*
X127103375Y-55018430D01*
D64*
X41400000Y-85214434D02*
X41400000Y-82600000D01*
D62*
X118780000Y-98925000D02*
X118780000Y-99895000D01*
D61*
X120575000Y-41550000D02*
X120575000Y-40475000D01*
D63*
X88450000Y-34337500D02*
X88950000Y-33837500D01*
X146700000Y-85214434D02*
X146700000Y-82514434D01*
D61*
X91775000Y-70725000D02*
X91600000Y-70900000D01*
D62*
X118780000Y-99895000D02*
X116875000Y-101800000D01*
D63*
X89025000Y-37337500D02*
X87300000Y-37337500D01*
D62*
X101050000Y-57575000D02*
X102075000Y-58600000D01*
D65*
X155303375Y-53900000D02*
X155303376Y-57099999D01*
X122063250Y-57163250D02*
X122050000Y-57150000D01*
D64*
X53750000Y-106750000D02*
X53750000Y-105546600D01*
D65*
X126710125Y-66400000D02*
X127103375Y-66793250D01*
D61*
X114584586Y-41640414D02*
X113209588Y-41640414D01*
D63*
X148300000Y-105275000D02*
X148300000Y-106800000D01*
D66*
X72838332Y-100545000D02*
X72233332Y-101150000D01*
D63*
X99500000Y-34250000D02*
X100850000Y-34250000D01*
D61*
X93637500Y-70725000D02*
X91775000Y-70725000D01*
D66*
X62301100Y-44464300D02*
X62301100Y-42798900D01*
D65*
X96000000Y-35500000D02*
X96000000Y-37250000D01*
D61*
X91825000Y-69425000D02*
X91600000Y-69200000D01*
D62*
X39934300Y-62806596D02*
X40319748Y-62421148D01*
D63*
X100200000Y-85214434D02*
X98485566Y-83500000D01*
D62*
X41934300Y-71065700D02*
X40384300Y-71065700D01*
D63*
X111800000Y-85214434D02*
X110085566Y-83500000D01*
D62*
X130185000Y-102435000D02*
X129550000Y-101800000D01*
X156805000Y-98925000D02*
X156805000Y-99895000D01*
X104835000Y-102435000D02*
X104200000Y-101800000D01*
D65*
X134103375Y-70200000D02*
X130510125Y-70200000D01*
D62*
X131455000Y-98925000D02*
X131455000Y-100545000D01*
D63*
X100850000Y-34250000D02*
X101450000Y-33650000D01*
D61*
X41434300Y-53335700D02*
X41434300Y-55565700D01*
D62*
X114900000Y-66395500D02*
X114695500Y-66600000D01*
D63*
X98000000Y-105275000D02*
X98000000Y-106600000D01*
D66*
X84505000Y-100545000D02*
X83900000Y-101150000D01*
D64*
X41750000Y-106750000D02*
X41750000Y-105521600D01*
D61*
X60706155Y-33295000D02*
X61265989Y-32735166D01*
D65*
X143303375Y-69700000D02*
X143303375Y-72900000D01*
D62*
X117510000Y-103085000D02*
X116875000Y-102450000D01*
D61*
X59800850Y-33295000D02*
X60706155Y-33295000D01*
D64*
X64733332Y-82581102D02*
X64800000Y-82514434D01*
D65*
X120703375Y-66400000D02*
X126710125Y-66400000D01*
D63*
X102200000Y-37250000D02*
X100725000Y-37250000D01*
D66*
X59901666Y-104675000D02*
X59901666Y-103085000D01*
D63*
X76300000Y-105175000D02*
X76300000Y-106450004D01*
X108750000Y-35450000D02*
X108750001Y-36750001D01*
D62*
X70184300Y-62340700D02*
X70184300Y-63815700D01*
D65*
X123696625Y-70200000D02*
X127103375Y-66793250D01*
D62*
X155535000Y-103085000D02*
X154900000Y-102450000D01*
D64*
X76400000Y-85214434D02*
X76400000Y-83103028D01*
D66*
X48235000Y-104675000D02*
X48235000Y-103085000D01*
D61*
X26934300Y-67565700D02*
X27184300Y-67815700D01*
D62*
X155535000Y-104675000D02*
X155535000Y-103085000D01*
D61*
X113209588Y-41640414D02*
X113100000Y-41750002D01*
X112656000Y-35350000D02*
X112590000Y-35284000D01*
D62*
X144130000Y-98925000D02*
X144130000Y-99895000D01*
D63*
X110975000Y-105375000D02*
X112300000Y-106700000D01*
D61*
X32434300Y-46335700D02*
X32434300Y-47315700D01*
D65*
X129803375Y-48000000D02*
X129803376Y-45700001D01*
D66*
X71568332Y-103085000D02*
X70933332Y-102450000D01*
D63*
X86800000Y-34337500D02*
X88450000Y-34337500D01*
D62*
X142860000Y-103085000D02*
X142225000Y-102450000D01*
D65*
X130510125Y-70200000D02*
X127103375Y-66793250D01*
D66*
X83235000Y-102435000D02*
X82600000Y-101800000D01*
D61*
X103992000Y-49658000D02*
X104000000Y-49650000D01*
D63*
X86800000Y-33337500D02*
X88450000Y-33337500D01*
X98485566Y-83500000D02*
X98250000Y-83500000D01*
D66*
X62301100Y-42798900D02*
X62700000Y-42400000D01*
D62*
X64891800Y-62075700D02*
X64891800Y-63358200D01*
X64891800Y-63358200D02*
X64434300Y-63815700D01*
D61*
X99362500Y-71375000D02*
X100925000Y-71375000D01*
X119348844Y-35250000D02*
X119141756Y-35457088D01*
D65*
X135303375Y-61950000D02*
X135303375Y-63500000D01*
X127396625Y-66500000D02*
X127103375Y-66793250D01*
D63*
X135400000Y-82651580D02*
X135231427Y-82483007D01*
D61*
X99362500Y-70725000D02*
X100825000Y-70725000D01*
X120575000Y-40475000D02*
X120500000Y-40400000D01*
D63*
X135400000Y-85214434D02*
X135400000Y-82651580D01*
D64*
X64733332Y-85214434D02*
X64733332Y-82581102D01*
D62*
X70434300Y-57540700D02*
X70434300Y-56065700D01*
D63*
X99900000Y-33650000D02*
X99500000Y-33250000D01*
D66*
X84505000Y-98925000D02*
X84505000Y-100545000D01*
D65*
X120803375Y-70200000D02*
X123696625Y-70200000D01*
D61*
X41434300Y-46335700D02*
X41434300Y-48315700D01*
D66*
X49505000Y-100545000D02*
X48900000Y-101150000D01*
X61171666Y-100545000D02*
X60566666Y-101150000D01*
D61*
X93637500Y-77225000D02*
X93637500Y-79262500D01*
X119161000Y-47900000D02*
X119361000Y-47700000D01*
X117800000Y-48900000D02*
X118697238Y-49797238D01*
D63*
X101450000Y-33650000D02*
X99900000Y-33650000D01*
D62*
X106105000Y-98925000D02*
X106105000Y-99895000D01*
D63*
X110900000Y-105375000D02*
X110975000Y-105375000D01*
D61*
X93637500Y-69425000D02*
X91825000Y-69425000D01*
D65*
X123703375Y-57163250D02*
X122063250Y-57163250D01*
D66*
X49505000Y-98925000D02*
X49505000Y-100545000D01*
D62*
X156805000Y-99895000D02*
X154900000Y-101800000D01*
D61*
X101125000Y-66900000D02*
X101300000Y-66900000D01*
D62*
X114900000Y-64500000D02*
X114900000Y-66395500D01*
D63*
X124500000Y-85214434D02*
X124500000Y-83251580D01*
D61*
X118697238Y-49797238D02*
X119249918Y-49797238D01*
X101300000Y-66900000D02*
X102350000Y-65850000D01*
D66*
X48235000Y-103085000D02*
X47600000Y-102450000D01*
D62*
X117510000Y-104675000D02*
X117510000Y-103085000D01*
D63*
X110085566Y-83500000D02*
X110000000Y-83500000D01*
D64*
X41400000Y-82600000D02*
X41500000Y-82500000D01*
D63*
X98000000Y-106600000D02*
X97900000Y-106700000D01*
D66*
X83235000Y-104675000D02*
X83235000Y-102435000D01*
D62*
X46325700Y-62075700D02*
X46250000Y-62000000D01*
D65*
X134103375Y-66500000D02*
X127396625Y-66500000D01*
D66*
X72838332Y-98925000D02*
X72838332Y-100545000D01*
D63*
X124500000Y-83251580D02*
X124131427Y-82883007D01*
D62*
X106105000Y-99895000D02*
X104200000Y-101800000D01*
D66*
X71568332Y-104675000D02*
X71568332Y-103085000D01*
D62*
X102075000Y-58600000D02*
X103800000Y-58600000D01*
X39934300Y-64215700D02*
X39934300Y-62806596D01*
D63*
X135900000Y-105175000D02*
X135900000Y-106800000D01*
D61*
X93637500Y-79262500D02*
X93500000Y-79400000D01*
D62*
X130185000Y-104675000D02*
X130185000Y-102435000D01*
D61*
X32434300Y-47315700D02*
X31434300Y-48315700D01*
D62*
X96750000Y-61999855D02*
X96725436Y-62024419D01*
D61*
X26934300Y-66315700D02*
X26934300Y-67565700D01*
X114525000Y-35350000D02*
X112656000Y-35350000D01*
X115900000Y-53450000D02*
X115850000Y-53500000D01*
D62*
X96750000Y-60100000D02*
X96750000Y-61999855D01*
D63*
X123100000Y-105275000D02*
X123100000Y-106800000D01*
D62*
X40384300Y-71065700D02*
X40234300Y-71215700D01*
X142860000Y-104675000D02*
X142860000Y-103085000D01*
D65*
X127103375Y-55018430D02*
X127443677Y-54678128D01*
D62*
X144130000Y-99895000D02*
X142225000Y-101800000D01*
D61*
X100925000Y-71375000D02*
X101200000Y-71100000D01*
X44134300Y-77165700D02*
X44134300Y-78815700D01*
X32434300Y-53335700D02*
X32434300Y-55065700D01*
X32434300Y-55065700D02*
X32184300Y-55315700D01*
D64*
X76400000Y-83103028D02*
X76563972Y-82939056D01*
D62*
X131455000Y-100545000D02*
X130850000Y-101150000D01*
X102400000Y-60150000D02*
X102350000Y-60100000D01*
D66*
X61171666Y-98925000D02*
X61171666Y-100545000D01*
D62*
X104835000Y-104675000D02*
X104835000Y-102435000D01*
D61*
X120625000Y-35250000D02*
X119348844Y-35250000D01*
D66*
X59901666Y-103085000D02*
X59266666Y-102450000D01*
D62*
X102400000Y-62250000D02*
X102400000Y-60150000D01*
D61*
X100825000Y-70725000D02*
X101200000Y-71100000D01*
D63*
X88450000Y-33337500D02*
X88950000Y-33837500D01*
X76300000Y-106450004D02*
X76250000Y-106500004D01*
D61*
%TO.N,+5V*%
X110500000Y-48150000D02*
X107725000Y-48150000D01*
D65*
X96000000Y-33600000D02*
X96000000Y-25400000D01*
X155070000Y-25300000D02*
X108550000Y-25300000D01*
D61*
X113500000Y-47900000D02*
X112673000Y-47900000D01*
D65*
X152550369Y-42746994D02*
X130613479Y-42746994D01*
D61*
X112450000Y-37250000D02*
X114475000Y-37250000D01*
D65*
X157365000Y-27595000D02*
X157195000Y-27595000D01*
X130613479Y-42746994D02*
X125403375Y-47957098D01*
D61*
X115050000Y-59800000D02*
X120250000Y-54600000D01*
D65*
X158800000Y-109200000D02*
X158800000Y-48996624D01*
D61*
X113500000Y-47900000D02*
X115900000Y-47900000D01*
D65*
X95665000Y-25065000D02*
X29535000Y-25065000D01*
D61*
X119175000Y-38625000D02*
X118400000Y-39400000D01*
X112673000Y-47900000D02*
X112623000Y-47950000D01*
D65*
X157365000Y-27595000D02*
X155070000Y-25300000D01*
D61*
X115900000Y-50650000D02*
X115900000Y-47900000D01*
D65*
X29535000Y-25065000D02*
X26500000Y-28100000D01*
D61*
X120625000Y-37150000D02*
X119175000Y-38600000D01*
X115900000Y-44650000D02*
X116250000Y-44300000D01*
X115900000Y-50650000D02*
X115850000Y-50650000D01*
D65*
X155053375Y-45750000D02*
X155303375Y-45500000D01*
X95900000Y-25300000D02*
X95665000Y-25065000D01*
X96000000Y-25400000D02*
X95900000Y-25300000D01*
D61*
X108750000Y-33550000D02*
X112450000Y-37250000D01*
D65*
X125403375Y-50650000D02*
X125403375Y-54600000D01*
D63*
X26684300Y-52065700D02*
X26684300Y-54565700D01*
D61*
X125082098Y-47957098D02*
X120575000Y-43450000D01*
X112623000Y-47950000D02*
X110700000Y-47950000D01*
D65*
X157365000Y-35215000D02*
X157365000Y-43438375D01*
D61*
X125403375Y-47957098D02*
X125082098Y-47957098D01*
X120250000Y-54600000D02*
X125403375Y-54600000D01*
D65*
X139803375Y-45750000D02*
X155053375Y-45750000D01*
X146250000Y-121750000D02*
X158800000Y-109200000D01*
D61*
X114600000Y-37300000D02*
X114575000Y-37250000D01*
X119175000Y-38600000D02*
X119175000Y-38625000D01*
X115490414Y-43540414D02*
X116250000Y-44300000D01*
D65*
X96000000Y-33600000D02*
X93787500Y-33600000D01*
D61*
X110700000Y-47950000D02*
X110500000Y-48150000D01*
D65*
X93787500Y-33600000D02*
X93550000Y-33837500D01*
X108750000Y-33550000D02*
X108750000Y-25500000D01*
D61*
X118400000Y-42150000D02*
X116250000Y-44300000D01*
X115850000Y-50650000D02*
X113575000Y-52925000D01*
D65*
X26500000Y-28100000D02*
X26500000Y-42000000D01*
X108550000Y-25300000D02*
X95900000Y-25300000D01*
D61*
X114584586Y-43540414D02*
X115490414Y-43540414D01*
D65*
X155303375Y-45500000D02*
X152550369Y-42746994D01*
D61*
X115900000Y-50650000D02*
X125403375Y-50650000D01*
D65*
X125403375Y-47957098D02*
X125403375Y-49250000D01*
D61*
X115900000Y-44855828D02*
X115900000Y-44650000D01*
D63*
X108750000Y-33550000D02*
X106150000Y-33550000D01*
D65*
X158800000Y-48996624D02*
X155303375Y-45500000D01*
D61*
X114575000Y-37250000D02*
X114525000Y-37250000D01*
X113575000Y-52925000D02*
X110500000Y-52925000D01*
D65*
X125403375Y-49250000D02*
X125403375Y-50650000D01*
D61*
X118400000Y-39400000D02*
X118400000Y-42150000D01*
X115900000Y-47900000D02*
X115900000Y-44855828D01*
D63*
X106150000Y-33550000D02*
X106050000Y-33650000D01*
D61*
X114475000Y-37250000D02*
X114600000Y-37300000D01*
D65*
X125403375Y-54600000D02*
X125403375Y-57163250D01*
X108750000Y-25500000D02*
X108550000Y-25300000D01*
X157365000Y-27595000D02*
X157365000Y-35215000D01*
X157365000Y-43438375D02*
X155303375Y-45500000D01*
X145250000Y-121750000D02*
X146250000Y-121750000D01*
D64*
%TO.N,+12V*%
X64800000Y-103725000D02*
X67597532Y-103725000D01*
X110900000Y-101400000D02*
X109900000Y-100400000D01*
X127300000Y-104500000D02*
X126989200Y-104500000D01*
X138353400Y-103625000D02*
X139028400Y-104300000D01*
X67597532Y-103725000D02*
X68572532Y-104700000D01*
X135900000Y-91314434D02*
X135400000Y-90814434D01*
X139028400Y-104300000D02*
X140000000Y-104300000D01*
X123100000Y-103725000D02*
X126214200Y-103725000D01*
X109800000Y-92814434D02*
X111800000Y-90814434D01*
X109900000Y-92914434D02*
X109800000Y-92814434D01*
X76200000Y-91014434D02*
X76400000Y-90814434D01*
X100925000Y-103725000D02*
X101900000Y-104700000D01*
X123000000Y-95500000D02*
X123000000Y-92314434D01*
X44264200Y-103950000D02*
X44989200Y-104675000D01*
X126214200Y-103725000D02*
X126989200Y-104500000D01*
X97900000Y-93114434D02*
X100200000Y-90814434D01*
X76300000Y-90914434D02*
X76400000Y-90814434D01*
X109900000Y-100400000D02*
X109900000Y-92914434D01*
X98000000Y-103725000D02*
X100925000Y-103725000D01*
X44989200Y-104675000D02*
X45393400Y-104675000D01*
X53750000Y-91550000D02*
X53000000Y-90800000D01*
X41750000Y-103950000D02*
X41750000Y-91164434D01*
X123100000Y-103725000D02*
X123100000Y-95600000D01*
X135900000Y-103625000D02*
X135900000Y-91314434D01*
X53750000Y-103975000D02*
X55864200Y-103975000D01*
X148300000Y-103725000D02*
X148300000Y-92414434D01*
X123000000Y-92314434D02*
X124500000Y-90814434D01*
X148300000Y-92414434D02*
X146700000Y-90814434D01*
X152600000Y-104600000D02*
X148300000Y-103725000D01*
D67*
X148291453Y-90814434D02*
X146700000Y-90814434D01*
X155403375Y-69500000D02*
X155403375Y-83702512D01*
D64*
X98000000Y-103725000D02*
X98000000Y-93214434D01*
X110900000Y-103825000D02*
X110900000Y-101400000D01*
X135900000Y-103625000D02*
X138353400Y-103625000D01*
X113625000Y-103825000D02*
X114600000Y-104800000D01*
X68572532Y-104700000D02*
X68700000Y-104700000D01*
X98000000Y-93214434D02*
X97900000Y-93114434D01*
X80300000Y-104600000D02*
X76300000Y-103625000D01*
D67*
X155403375Y-83702512D02*
X148291453Y-90814434D01*
D64*
X55864200Y-103975000D02*
X56414200Y-104525000D01*
X41750000Y-103950000D02*
X44264200Y-103950000D01*
X56414200Y-104525000D02*
X57060066Y-104525000D01*
X41750000Y-91164434D02*
X41400000Y-90814434D01*
X123100000Y-95600000D02*
X123000000Y-95500000D01*
X64800000Y-103725000D02*
X64800000Y-90881102D01*
X76300000Y-103625000D02*
X76300000Y-90914434D01*
X110900000Y-103825000D02*
X113625000Y-103825000D01*
X53750000Y-103975000D02*
X53750000Y-91550000D01*
D65*
%TO.N,Net-(D3-K)*%
X133390125Y-60050000D02*
X130503375Y-57163250D01*
X155403375Y-61300000D02*
X143303375Y-61300000D01*
X143303375Y-61300000D02*
X142053375Y-60050000D01*
X142053375Y-60050000D02*
X135303375Y-60050000D01*
X135303375Y-60050000D02*
X133390125Y-60050000D01*
D61*
%TO.N,ResetNW*%
X70433000Y-49377000D02*
X67790300Y-46734300D01*
X72973000Y-49377000D02*
X70433000Y-49377000D01*
X74150000Y-48200000D02*
X72973000Y-49377000D01*
X67790300Y-46734300D02*
X65086100Y-46734300D01*
D65*
%TO.N,S2B*%
X84505000Y-104675000D02*
X84505000Y-104962200D01*
X84505000Y-104962200D02*
X94000000Y-114457200D01*
X84675000Y-104675000D02*
X84505000Y-104675000D01*
%TO.N,S2A*%
X81965000Y-104675000D02*
X81965000Y-106422200D01*
X81965000Y-106422200D02*
X90000000Y-114457200D01*
%TO.N,S3B*%
X106105000Y-110352200D02*
X102000000Y-114457200D01*
X106105000Y-104675000D02*
X106105000Y-110352200D01*
%TO.N,S3A*%
X103565000Y-104675000D02*
X103565000Y-108892200D01*
X103565000Y-108892200D02*
X98000000Y-114457200D01*
%TO.N,S5B*%
X103184524Y-120604700D02*
X102889524Y-120309700D01*
X105244224Y-120250000D02*
X104889524Y-120604700D01*
X102889524Y-120309700D02*
X101110476Y-120309700D01*
X131455000Y-107045000D02*
X116510300Y-121989700D01*
X107250000Y-120250000D02*
X105244224Y-120250000D01*
X98962976Y-122457200D02*
X98000000Y-122457200D01*
X108989700Y-121989700D02*
X107250000Y-120250000D01*
X131455000Y-107045000D02*
X131455000Y-104675000D01*
X116510300Y-121989700D02*
X108989700Y-121989700D01*
X104889524Y-120604700D02*
X103184524Y-120604700D01*
X101110476Y-120309700D02*
X98962976Y-122457200D01*
%TO.N,S5A*%
X112168597Y-115000000D02*
X108711397Y-118457200D01*
X128915000Y-104675000D02*
X128915000Y-107335000D01*
X108711397Y-118457200D02*
X104000000Y-118457200D01*
X128915000Y-107335000D02*
X121250000Y-115000000D01*
X121250000Y-115000000D02*
X112168597Y-115000000D01*
%TO.N,S6B*%
X104472500Y-124929700D02*
X102000000Y-122457200D01*
X144130000Y-107045000D02*
X126245300Y-124929700D01*
X144130000Y-104675000D02*
X144130000Y-107045000D01*
X126245300Y-124929700D02*
X104472500Y-124929700D01*
%TO.N,S6A*%
X107002500Y-123459700D02*
X106000000Y-122457200D01*
X125175300Y-123459700D02*
X107002500Y-123459700D01*
X141590000Y-104675000D02*
X141590000Y-107045000D01*
X141590000Y-107045000D02*
X125175300Y-123459700D01*
%TO.N,S7B*%
X156805000Y-107445000D02*
X139500003Y-124749997D01*
X156805000Y-104675000D02*
X156805000Y-107445000D01*
%TO.N,S7A*%
X134290300Y-126399700D02*
X97942500Y-126399700D01*
X97942500Y-126399700D02*
X94000000Y-122457200D01*
X154265000Y-106425000D02*
X134290300Y-126399700D01*
X154265000Y-104675000D02*
X154265000Y-106425000D01*
%TO.N,S1A*%
X70298332Y-108548332D02*
X73250000Y-111500000D01*
X70298332Y-104675000D02*
X70298332Y-108548332D01*
X73250000Y-111500000D02*
X79042800Y-111500000D01*
X79042800Y-111500000D02*
X82000000Y-114457200D01*
%TO.N,S1B*%
X81042800Y-109500000D02*
X86000000Y-114457200D01*
X74750000Y-109500000D02*
X81042800Y-109500000D01*
X72838332Y-107588332D02*
X74750000Y-109500000D01*
X72838332Y-104675000D02*
X72838332Y-107588332D01*
%TO.N,S4B*%
X103184524Y-116309700D02*
X102889524Y-116604700D01*
X118780000Y-104675000D02*
X118780000Y-106309703D01*
X118780000Y-106309703D02*
X108485003Y-116604700D01*
X105110476Y-116604700D02*
X104815476Y-116309700D01*
X104815476Y-116309700D02*
X103184524Y-116309700D01*
X108485003Y-116604700D02*
X105110476Y-116604700D01*
X101852500Y-116604700D02*
X100000000Y-118457200D01*
X102889524Y-116604700D02*
X101852500Y-116604700D01*
D62*
%TO.N,FlowSensor1*%
X24114300Y-50835700D02*
X28784300Y-50835700D01*
X22700000Y-52250000D02*
X24114300Y-50835700D01*
X80965209Y-126000000D02*
X40250000Y-126000000D01*
X22700000Y-108450000D02*
X22700000Y-52250000D01*
X40250000Y-126000000D02*
X22700000Y-108450000D01*
X84000000Y-118457200D02*
X84000000Y-122965209D01*
X84000000Y-122965209D02*
X80965209Y-126000000D01*
D65*
%TO.N,S4A*%
X108553609Y-114457200D02*
X106000000Y-114457200D01*
X116240000Y-104675000D02*
X116240000Y-106770809D01*
X116240000Y-106770809D02*
X108553609Y-114457200D01*
D63*
%TO.N,+3.3V*%
X103750000Y-37250000D02*
X103750000Y-43250000D01*
X45695000Y-98925000D02*
X44775000Y-98925000D01*
D62*
X97050000Y-63023000D02*
X94273000Y-63023000D01*
X41934300Y-69165700D02*
X39934300Y-69165700D01*
D63*
X79200000Y-98900000D02*
X80670000Y-98900000D01*
D61*
X93637500Y-68775000D02*
X94426154Y-68775000D01*
D62*
X39934300Y-68606515D02*
X36124300Y-64796515D01*
D63*
X69184300Y-60790700D02*
X67434300Y-60790700D01*
X101550000Y-45450000D02*
X103750000Y-43250000D01*
X112000000Y-98900000D02*
X114945000Y-98900000D01*
D61*
X94426154Y-68775000D02*
X95200577Y-69549423D01*
X99575000Y-66900000D02*
X99575000Y-68562500D01*
D63*
X114945000Y-98900000D02*
X114970000Y-98925000D01*
D61*
X100798832Y-50748000D02*
X99527000Y-50748000D01*
D63*
X48055078Y-71875790D02*
X48125790Y-71875790D01*
D62*
X42397266Y-69628666D02*
X41934300Y-69165700D01*
X94273000Y-63023000D02*
X89168830Y-57918830D01*
D61*
X100050000Y-66425000D02*
X99575000Y-66900000D01*
X44125000Y-38750000D02*
X52795850Y-38750000D01*
D62*
X67684300Y-60540700D02*
X67434300Y-60790700D01*
D63*
X99700000Y-98900000D02*
X102270000Y-98900000D01*
X96675000Y-50325000D02*
X101550000Y-45450000D01*
X86296960Y-60790700D02*
X89168830Y-57918830D01*
X46000000Y-73930868D02*
X48055078Y-71875790D01*
D61*
X98600000Y-51675000D02*
X98600000Y-54375000D01*
X94675000Y-70075000D02*
X95200577Y-69549423D01*
X99362500Y-68775000D02*
X97877000Y-68775000D01*
X99527000Y-50748000D02*
X98725000Y-51550000D01*
D63*
X80670000Y-98900000D02*
X80695000Y-98925000D01*
X150200000Y-98900000D02*
X152970000Y-98900000D01*
X137800000Y-98900000D02*
X140295000Y-98900000D01*
D62*
X36124300Y-64796515D02*
X36124300Y-64215700D01*
D63*
X65086100Y-60704300D02*
X59297280Y-60704300D01*
D62*
X100050000Y-62950000D02*
X100050000Y-57575000D01*
D63*
X70184300Y-60790700D02*
X86296960Y-60790700D01*
X46000000Y-73930868D02*
X46000000Y-85750000D01*
D61*
X101450832Y-51400000D02*
X100798832Y-50748000D01*
X98600000Y-54375000D02*
X98525000Y-54450000D01*
D63*
X44775000Y-98925000D02*
X43800000Y-97950000D01*
D61*
X93637500Y-71375000D02*
X94374999Y-71375000D01*
X103992000Y-51400000D02*
X101450832Y-51400000D01*
X52795850Y-38750000D02*
X58250850Y-33295000D01*
D63*
X46000000Y-85750000D02*
X45750000Y-86000000D01*
D61*
X94374999Y-71375000D02*
X95200577Y-70549422D01*
D62*
X43619839Y-69628666D02*
X42397266Y-69628666D01*
D63*
X89168830Y-57918830D02*
X96675000Y-50412660D01*
D61*
X95200577Y-70549422D02*
X95200577Y-69549423D01*
X98725000Y-51550000D02*
X97900000Y-51550000D01*
D63*
X69003332Y-98900000D02*
X69028332Y-98925000D01*
X70184300Y-60790700D02*
X69184300Y-60790700D01*
D61*
X97877000Y-68775000D02*
X97750000Y-68648000D01*
D63*
X127620000Y-98900000D02*
X127645000Y-98925000D01*
X96675000Y-50412660D02*
X96675000Y-50325000D01*
X67434300Y-60790700D02*
X65172500Y-60790700D01*
D61*
X46000000Y-70000000D02*
X46000000Y-68825000D01*
D63*
X103750000Y-33650000D02*
X103750000Y-37250000D01*
D61*
X100050000Y-62650000D02*
X100050000Y-66425000D01*
D63*
X102270000Y-98900000D02*
X102295000Y-98925000D01*
X152970000Y-98900000D02*
X152995000Y-98925000D01*
D61*
X36124300Y-46750700D02*
X44125000Y-38750000D01*
D63*
X124800000Y-98900000D02*
X127620000Y-98900000D01*
D61*
X99575000Y-68562500D02*
X99362500Y-68775000D01*
D63*
X67300000Y-98900000D02*
X69003332Y-98900000D01*
D62*
X39934300Y-69165700D02*
X39934300Y-68606515D01*
D61*
X46000000Y-68825000D02*
X45925000Y-68750000D01*
X98725000Y-51550000D02*
X98600000Y-51675000D01*
D63*
X57236666Y-98800000D02*
X57361666Y-98925000D01*
D61*
X36124300Y-64215700D02*
X36124300Y-46750700D01*
D63*
X55700000Y-98800000D02*
X57236666Y-98800000D01*
D61*
X99575000Y-66900000D02*
X101125000Y-68450000D01*
X97900000Y-51550000D02*
X96675000Y-50325000D01*
D63*
X65172500Y-60790700D02*
X65086100Y-60704300D01*
D61*
X93637500Y-70075000D02*
X94675000Y-70075000D01*
X101125000Y-68450000D02*
X102600000Y-68450000D01*
D63*
X140295000Y-98900000D02*
X140320000Y-98925000D01*
D62*
X67684300Y-59140700D02*
X67684300Y-60540700D01*
D61*
X45925000Y-65750000D02*
X45925000Y-68750000D01*
D65*
%TO.N,M2A*%
X58580866Y-106830866D02*
X58580866Y-104525000D01*
X70243897Y-115467500D02*
X70241397Y-115470000D01*
X70241397Y-115470000D02*
X67220000Y-115470000D01*
X75745803Y-118457200D02*
X80000000Y-118457200D01*
X72756103Y-115467500D02*
X75745803Y-118457200D01*
X72756103Y-115467500D02*
X70243897Y-115467500D01*
X67220000Y-115470000D02*
X58580866Y-106830866D01*
%TO.N,M2B*%
X61117666Y-106117666D02*
X61117666Y-104525000D01*
X68500000Y-113500000D02*
X77042800Y-113500000D01*
X68500000Y-113500000D02*
X61117666Y-106117666D01*
X77042800Y-113500000D02*
X78000000Y-114457200D01*
D62*
%TO.N,Net-(D1-A)*%
X116700000Y-64425000D02*
X116625000Y-64500000D01*
X116700000Y-59800000D02*
X116700000Y-64425000D01*
%TO.N,FlowSensor2*%
X39956736Y-126708000D02*
X21500000Y-108251264D01*
X21500000Y-51100000D02*
X21600000Y-51000000D01*
X21500000Y-108251264D02*
X21500000Y-51100000D01*
X28784300Y-43815700D02*
X21600000Y-51000000D01*
X84247409Y-126708000D02*
X39956736Y-126708000D01*
X88000000Y-118457200D02*
X88000000Y-122955409D01*
X88000000Y-122955409D02*
X84247409Y-126708000D01*
D65*
%TO.N,Net-(IC2-Output)*%
X133453375Y-55650000D02*
X129803375Y-52000000D01*
X129803375Y-54397324D02*
X129803375Y-52000000D01*
X128803375Y-57163250D02*
X128803375Y-55397324D01*
X128803375Y-55397324D02*
X129803375Y-54397324D01*
X139803375Y-55650000D02*
X133453375Y-55650000D01*
D61*
%TO.N,Net-(D4-A)*%
X26307300Y-58942700D02*
X26684300Y-58565700D01*
X26307300Y-63088700D02*
X26307300Y-58942700D01*
X26934300Y-63715700D02*
X26307300Y-63088700D01*
%TO.N,Net-(J1-D-)*%
X33584300Y-63240701D02*
X33159299Y-62815700D01*
X29488300Y-62815700D02*
X27938300Y-64365700D01*
X27938300Y-64365700D02*
X26934300Y-64365700D01*
X33584300Y-64215700D02*
X33584300Y-63240701D01*
X33159299Y-62815700D02*
X29488300Y-62815700D01*
%TO.N,Net-(J1-D+)*%
X34211300Y-65242436D02*
X33936036Y-65517700D01*
X34854300Y-64215700D02*
X34854300Y-64595280D01*
X27938300Y-65015700D02*
X26934300Y-65015700D01*
X34854300Y-64595280D02*
X34211300Y-65238280D01*
X33936036Y-65517700D02*
X28440300Y-65517700D01*
X34211300Y-65238280D02*
X34211300Y-65242436D01*
X28440300Y-65517700D02*
X27938300Y-65015700D01*
D62*
%TO.N,Net-(R1-Pad2)*%
X32394300Y-50835700D02*
X32434300Y-50795700D01*
X30434300Y-50835700D02*
X32394300Y-50835700D01*
D61*
%TO.N,OutputEnable*%
X65086100Y-48004300D02*
X68418248Y-48004300D01*
X68418248Y-48004300D02*
X79263948Y-58850000D01*
X101750000Y-69250000D02*
X102600000Y-70100000D01*
X102600000Y-71200000D02*
X102600000Y-70100000D01*
X79263948Y-58850000D02*
X86600000Y-58850000D01*
X101775000Y-72025000D02*
X102600000Y-71200000D01*
X101200000Y-69250000D02*
X101750000Y-69250000D01*
X99362500Y-72025000D02*
X101775000Y-72025000D01*
D65*
%TO.N,M1B*%
X67287200Y-122457200D02*
X78000000Y-122457200D01*
X49505000Y-104675000D02*
X67287200Y-122457200D01*
%TO.N,M1A*%
X65354700Y-124604700D02*
X79852500Y-124604700D01*
X79852500Y-124604700D02*
X82000000Y-122457200D01*
X46965000Y-106215000D02*
X65354700Y-124604700D01*
X46965000Y-104675000D02*
X46965000Y-106215000D01*
D62*
%TO.N,Net-(R2-Pad2)*%
X32414300Y-43815700D02*
X32434300Y-43795700D01*
X30434300Y-43815700D02*
X32414300Y-43815700D01*
%TO.N,M1_IN2*%
X48235000Y-97135000D02*
X48200000Y-97100000D01*
X68500000Y-68750000D02*
X65000000Y-68750000D01*
X48235000Y-98925000D02*
X48235000Y-97135000D01*
X65000000Y-68750000D02*
X48250000Y-85500000D01*
X64891800Y-51915700D02*
X69033036Y-51915700D01*
X69033036Y-51915700D02*
X75034300Y-57916964D01*
X75034300Y-57916964D02*
X75034300Y-59565700D01*
X69500000Y-67750000D02*
X68500000Y-68750000D01*
X48250000Y-85500000D02*
X48250000Y-86250000D01*
D61*
%TO.N,FlowPin2*%
X48024700Y-48065700D02*
X48086100Y-48004300D01*
X42934300Y-45295700D02*
X41434300Y-43795700D01*
X42934300Y-45315700D02*
X42934300Y-45295700D01*
X46184300Y-48065700D02*
X48024700Y-48065700D01*
D62*
%TO.N,M1_IN1*%
X46965000Y-97135000D02*
X47000000Y-97100000D01*
X68000000Y-67750000D02*
X64000000Y-67750000D01*
X46965000Y-98925000D02*
X46965000Y-97135000D01*
X73734300Y-57618228D02*
X73734300Y-59565700D01*
X47000000Y-84750000D02*
X47000000Y-86250000D01*
X64000000Y-67750000D02*
X47000000Y-84750000D01*
X69301772Y-53185700D02*
X73734300Y-57618228D01*
X64891800Y-53185700D02*
X69301772Y-53185700D01*
%TO.N,M2_IN2*%
X74500000Y-67750000D02*
X59750000Y-82500000D01*
D61*
X59900000Y-98923334D02*
X59901666Y-98925000D01*
D62*
X68774300Y-49274300D02*
X77750000Y-58250000D01*
X65086100Y-49274300D02*
X65044700Y-49315700D01*
X77750000Y-58250000D02*
X77750000Y-59500002D01*
X65086100Y-49274300D02*
X68774300Y-49274300D01*
X65044700Y-49315700D02*
X65184300Y-49315700D01*
X59750000Y-82500000D02*
X59750000Y-86000000D01*
X65184300Y-49315700D02*
X65184300Y-49176100D01*
D61*
X59900000Y-97000000D02*
X59750000Y-97000000D01*
D62*
X65184300Y-49176100D02*
X65302700Y-49057700D01*
D61*
X59750000Y-97000000D02*
X59900000Y-98923334D01*
%TO.N,SS*%
X77867000Y-27367000D02*
X77100000Y-26600000D01*
X47377050Y-40765002D02*
X65469528Y-40765002D01*
X45369300Y-44538647D02*
X46407300Y-43500650D01*
X46407300Y-43500650D02*
X46407300Y-41734752D01*
X45369300Y-49763648D02*
X45369300Y-44538647D01*
X75430000Y-26600000D02*
X74150000Y-27880000D01*
X48086100Y-50544300D02*
X46149952Y-50544300D01*
X77867000Y-28367530D02*
X77867000Y-27367000D01*
X46149952Y-50544300D02*
X45369300Y-49763648D01*
X77100000Y-26600000D02*
X75430000Y-26600000D01*
X46407300Y-41734752D02*
X47377050Y-40765002D01*
X65469528Y-40765002D02*
X77867000Y-28367530D01*
%TO.N,SCL*%
X46832100Y-59434300D02*
X45500000Y-60766400D01*
X99252000Y-55598001D02*
X98050000Y-56800001D01*
X103992000Y-51900000D02*
X100725000Y-51900000D01*
X47575000Y-65275000D02*
X47575000Y-65750000D01*
X98050000Y-56800001D02*
X98050000Y-57575000D01*
X45500000Y-60766400D02*
X45500000Y-63200000D01*
X94627000Y-66170360D02*
X94550000Y-66093360D01*
X98050000Y-57575000D02*
X98025000Y-57600000D01*
X51250000Y-65750000D02*
X47575000Y-65750000D01*
X99362500Y-70075000D02*
X96932948Y-70075000D01*
X99252000Y-52673000D02*
X99252000Y-55598001D01*
X97206640Y-66093360D02*
X94550000Y-66093360D01*
X94627000Y-67769052D02*
X94627000Y-66170360D01*
X100725000Y-51900000D02*
X100375000Y-51550000D01*
X48086100Y-59434300D02*
X46832100Y-59434300D01*
X96932948Y-70075000D02*
X94627000Y-67769052D01*
X100375000Y-51550000D02*
X99252000Y-52673000D01*
X98050000Y-57575000D02*
X98050000Y-65250000D01*
X45500000Y-63200000D02*
X47575000Y-65275000D01*
X98050000Y-65250000D02*
X97206640Y-66093360D01*
%TO.N,SDA*%
X48086100Y-55624300D02*
X45875700Y-55624300D01*
X44500000Y-57000000D02*
X44500000Y-63000000D01*
X46848000Y-68023000D02*
X47575000Y-68750000D01*
X96925000Y-69425000D02*
X95404000Y-67904000D01*
X46848000Y-65348000D02*
X46848000Y-68023000D01*
X45875700Y-55624300D02*
X44500000Y-57000000D01*
X44500000Y-63000000D02*
X46848000Y-65348000D01*
X99362500Y-69425000D02*
X96925000Y-69425000D01*
X99050000Y-65200000D02*
X97399032Y-66850968D01*
X100175000Y-54450000D02*
X100175000Y-55317053D01*
X99050000Y-56442053D02*
X99050000Y-57575000D01*
X100175000Y-55317053D02*
X99050000Y-56442053D01*
X97399032Y-66850968D02*
X95404000Y-66850968D01*
X48750000Y-68750000D02*
X47575000Y-68750000D01*
X99050000Y-57575000D02*
X99050000Y-65200000D01*
X103992000Y-52400000D02*
X102225000Y-52400000D01*
X95404000Y-67904000D02*
X95404000Y-66850968D01*
X50250000Y-67250000D02*
X48750000Y-68750000D01*
X102225000Y-52400000D02*
X100175000Y-54450000D01*
%TO.N,SCK*%
X76690000Y-27880000D02*
X64259002Y-40310998D01*
X48395800Y-51915700D02*
X47391800Y-51915700D01*
X44915300Y-44350595D02*
X44915300Y-50438752D01*
X64259002Y-40310998D02*
X47189001Y-40310998D01*
X47189001Y-40310998D02*
X45953300Y-41546699D01*
X45953300Y-43312596D02*
X44915300Y-44350595D01*
X46290848Y-51814300D02*
X48086100Y-51814300D01*
X44915300Y-50438752D02*
X46290848Y-51814300D01*
X45953300Y-41546699D02*
X45953300Y-43312596D01*
D62*
%TO.N,Net-(Q1-G)*%
X36124300Y-72038200D02*
X36539300Y-72453200D01*
X32539300Y-72453200D02*
X32339300Y-72253200D01*
X36539300Y-72453200D02*
X32539300Y-72453200D01*
X36124300Y-69165700D02*
X36124300Y-72038200D01*
%TO.N,Net-(Q1-S)*%
X30644115Y-67736700D02*
X36524485Y-67736700D01*
X30290300Y-68090515D02*
X30644115Y-67736700D01*
X37394300Y-68606515D02*
X37394300Y-69165700D01*
X30439300Y-72253200D02*
X30290300Y-72104200D01*
X37394300Y-69165700D02*
X37394300Y-71408200D01*
X30290300Y-72104200D02*
X30290300Y-68090515D01*
X36524485Y-67736700D02*
X37394300Y-68606515D01*
X37394300Y-71408200D02*
X38439300Y-72453200D01*
D61*
%TO.N,Net-(Q2-D)*%
X44434300Y-69015700D02*
X43684300Y-68265700D01*
X44434300Y-72215700D02*
X44434300Y-69015700D01*
X37489300Y-74328200D02*
X42321800Y-74328200D01*
X48073900Y-45476500D02*
X48086100Y-45464300D01*
X42321800Y-74328200D02*
X44434300Y-72215700D01*
X48086100Y-43086100D02*
X47750000Y-42750000D01*
X43684300Y-43315700D02*
X44184300Y-42815700D01*
X48086100Y-45464300D02*
X48086100Y-43086100D01*
X43684300Y-68265700D02*
X43684300Y-43315700D01*
%TO.N,uC_RX*%
X45861300Y-56995700D02*
X45241300Y-57615700D01*
X41934300Y-60315700D02*
X42707800Y-59542200D01*
X38664300Y-64215700D02*
X38664300Y-62977752D01*
X41326352Y-60315700D02*
X41934300Y-60315700D01*
X38664300Y-62977752D02*
X41326352Y-60315700D01*
X47391800Y-56995700D02*
X45861300Y-56995700D01*
X42707800Y-59542200D02*
X42707800Y-58142212D01*
%TO.N,uC_TX*%
X37394300Y-63605700D02*
X41917086Y-59082914D01*
X41917086Y-59082914D02*
X41930800Y-59082914D01*
X46284300Y-58265700D02*
X47391800Y-58265700D01*
X37394300Y-64215700D02*
X37394300Y-63605700D01*
X45334300Y-59215700D02*
X46284300Y-58265700D01*
%TO.N,MOSI*%
X49340100Y-60704300D02*
X50023100Y-60021300D01*
X50023100Y-43208300D02*
X52012400Y-41219000D01*
X48395800Y-60805700D02*
X47391800Y-60805700D01*
X65891000Y-41219000D02*
X79230000Y-27880000D01*
X50023100Y-60021300D02*
X50023100Y-43208300D01*
X48086100Y-60704300D02*
X49340100Y-60704300D01*
X52012400Y-41219000D02*
X65891000Y-41219000D01*
%TO.N,MISO*%
X44461300Y-44162543D02*
X45499300Y-43124543D01*
X46832100Y-53084300D02*
X44461300Y-50713500D01*
X44461300Y-50713500D02*
X44461300Y-44162543D01*
X71440000Y-48200000D02*
X70940000Y-47700000D01*
X48364300Y-53185700D02*
X47391800Y-53185700D01*
X47250000Y-39500000D02*
X61676934Y-39500000D01*
X64999996Y-42750000D02*
X70449996Y-48200000D01*
X61676934Y-39500000D02*
X61717009Y-39540075D01*
X70449996Y-48200000D02*
X71610000Y-48200000D01*
X45499300Y-43124543D02*
X45499300Y-41250700D01*
X45499300Y-41250700D02*
X47250000Y-39500000D01*
X71610000Y-48200000D02*
X71440000Y-48200000D01*
X48086100Y-53084300D02*
X46832100Y-53084300D01*
%TO.N,INTn*%
X61031100Y-43020056D02*
X62378156Y-41673000D01*
X67101530Y-41673000D02*
X80407000Y-28367530D01*
X80407000Y-27392470D02*
X79114530Y-26100000D01*
X61031100Y-44464300D02*
X61031100Y-43020056D01*
X79114530Y-26100000D02*
X73390000Y-26100000D01*
X73390000Y-26100000D02*
X71610000Y-27880000D01*
X62378156Y-41673000D02*
X67101530Y-41673000D01*
X80407000Y-28367530D02*
X80407000Y-27392470D01*
%TO.N,Net-(U6-LED2)*%
X93637500Y-73325000D02*
X92106792Y-73325000D01*
X82000000Y-98890000D02*
X81965000Y-98925000D01*
X82000000Y-97000000D02*
X82000000Y-98890000D01*
X92106792Y-73325000D02*
X81750000Y-83681792D01*
X81750000Y-83681792D02*
X81750000Y-86750000D01*
%TO.N,Net-(U6-LED3)*%
X83200000Y-98890000D02*
X83235000Y-98925000D01*
X93637500Y-73975000D02*
X92098844Y-73975000D01*
X83200000Y-97000000D02*
X83200000Y-98890000D01*
X83000000Y-83073844D02*
X83000000Y-86750000D01*
X92098844Y-73975000D02*
X83000000Y-83073844D01*
%TO.N,Net-(U6-LED0)*%
X93637500Y-72025000D02*
X93582499Y-72080001D01*
X70300000Y-98923332D02*
X70298332Y-98925000D01*
X82832948Y-72025000D02*
X70250000Y-84607948D01*
X70250000Y-84607948D02*
X70250000Y-86250000D01*
X70300000Y-97000000D02*
X70300000Y-98923332D01*
X93637500Y-72025000D02*
X82832948Y-72025000D01*
%TO.N,Net-(U6-LED1)*%
X71600000Y-97000000D02*
X71600000Y-98893332D01*
X92825001Y-72750000D02*
X82750000Y-72750000D01*
X92900001Y-72675000D02*
X92825001Y-72750000D01*
X93637500Y-72675000D02*
X92900001Y-72675000D01*
X82750000Y-72750000D02*
X71500000Y-84000000D01*
X71600000Y-98893332D02*
X71568332Y-98925000D01*
X71500000Y-84000000D02*
X71500000Y-86250000D01*
%TO.N,Net-(U10-IN1)*%
X90592000Y-76123896D02*
X90592000Y-79876105D01*
X103565000Y-98925000D02*
X103565000Y-97065000D01*
X93637500Y-74625000D02*
X92090896Y-74625000D01*
X104825577Y-86075577D02*
X104825577Y-86424423D01*
X93077895Y-82362000D02*
X101112000Y-82362000D01*
X90592000Y-79876105D02*
X93077895Y-82362000D01*
X92090896Y-74625000D02*
X90592000Y-76123896D01*
X101112000Y-82362000D02*
X104825577Y-86075577D01*
%TO.N,Net-(U10-IN2)*%
X91046000Y-76311948D02*
X91046000Y-79438052D01*
X92082948Y-75275000D02*
X91046000Y-76311948D01*
X93637500Y-75275000D02*
X92082948Y-75275000D01*
X104835000Y-98925000D02*
X104835000Y-97035000D01*
X93515948Y-81908000D02*
X101408000Y-81908000D01*
X101408000Y-81908000D02*
X106000000Y-86500000D01*
X91046000Y-79438052D02*
X93515948Y-81908000D01*
%TO.N,Net-(U11-IN1)*%
X92325000Y-75925000D02*
X91500000Y-76750000D01*
X111105154Y-81454000D02*
X116075577Y-86424423D01*
X93704000Y-81454000D02*
X111105154Y-81454000D01*
X116200000Y-97000000D02*
X116200000Y-98885000D01*
X93637500Y-75925000D02*
X92325000Y-75925000D01*
X91500000Y-79250000D02*
X93704000Y-81454000D01*
X116075577Y-86424423D02*
X116075577Y-86674423D01*
X91500000Y-76750000D02*
X91500000Y-79250000D01*
X116200000Y-98885000D02*
X116240000Y-98925000D01*
%TO.N,Net-(U11-IN2)*%
X98756640Y-81000000D02*
X111500000Y-81000000D01*
X117500000Y-98915000D02*
X117510000Y-98925000D01*
X94331640Y-76575000D02*
X98756640Y-81000000D01*
X117000000Y-86500000D02*
X117250000Y-86500000D01*
X111500000Y-81000000D02*
X117000000Y-86500000D01*
X117500000Y-97000000D02*
X117500000Y-98915000D01*
X93637500Y-76575000D02*
X94331640Y-76575000D01*
X93637500Y-76575000D02*
X92946131Y-76575000D01*
%TO.N,Net-(U12-IN1)*%
X99362500Y-77225000D02*
X119725000Y-77225000D01*
X119725000Y-77225000D02*
X128950577Y-86450577D01*
X128900000Y-98910000D02*
X128915000Y-98925000D01*
X128950577Y-86450577D02*
X128950577Y-86549423D01*
X128900000Y-97000000D02*
X128900000Y-98910000D01*
%TO.N,Net-(U12-IN2)*%
X120075000Y-76575000D02*
X130000000Y-86500000D01*
X130200000Y-98910000D02*
X130185000Y-98925000D01*
X130200000Y-97000000D02*
X130200000Y-98910000D01*
X99362500Y-76575000D02*
X120075000Y-76575000D01*
%TO.N,Net-(U13-IN1)*%
X99362500Y-75925000D02*
X129925000Y-75925000D01*
X141600000Y-98915000D02*
X141590000Y-98925000D01*
X141600000Y-97000000D02*
X141600000Y-98915000D01*
X129925000Y-75925000D02*
X140500000Y-86500000D01*
%TO.N,Net-(U13-IN2)*%
X142800000Y-97000000D02*
X142800000Y-98865000D01*
X142800000Y-98865000D02*
X142860000Y-98925000D01*
X99362500Y-75275000D02*
X130525000Y-75275000D01*
X130525000Y-75275000D02*
X142000000Y-86750000D01*
%TO.N,Net-(U14-IN1)*%
X154265000Y-88764982D02*
X154250000Y-88749982D01*
X140875000Y-74625000D02*
X150980887Y-84730887D01*
X99362500Y-74625000D02*
X140875000Y-74625000D01*
X154265000Y-98925000D02*
X154265000Y-88764982D01*
%TO.N,Net-(U14-IN2)*%
X155535000Y-87735000D02*
X155275000Y-87475000D01*
X99362500Y-73975000D02*
X141725000Y-73975000D01*
X155535000Y-98925000D02*
X155535000Y-87735000D01*
X141725000Y-73975000D02*
X151750000Y-84000000D01*
%TO.N,Net-(J3-Pin_1)*%
X48825000Y-34800000D02*
X48800000Y-34825000D01*
X53550000Y-34800000D02*
X48825000Y-34800000D01*
%TO.N,Net-(J3-Pin_2)*%
X48800000Y-28925000D02*
X48850000Y-28875000D01*
X48800000Y-32285000D02*
X48800000Y-28925000D01*
%TO.N,FlowPin1*%
X41914300Y-50315700D02*
X41434300Y-50795700D01*
X42934300Y-50315700D02*
X41914300Y-50315700D01*
D62*
X46184300Y-49315700D02*
X47934300Y-49315700D01*
X48044700Y-49315700D02*
X48086100Y-49274300D01*
X47934300Y-49315700D02*
X48044700Y-49315700D01*
D61*
%TO.N,Net-(U16-AIN3)*%
X112671000Y-47400000D02*
X113500000Y-47400000D01*
X119400000Y-33300000D02*
X116400000Y-36300000D01*
X131965000Y-35215000D02*
X131965000Y-27595000D01*
X115350000Y-39950000D02*
X113801156Y-39950000D01*
X113801156Y-39950000D02*
X111550000Y-42201156D01*
X116400000Y-36300000D02*
X116400000Y-38900000D01*
X111550000Y-42201156D02*
X111550000Y-46279000D01*
X130050000Y-33300000D02*
X131965000Y-35215000D01*
X119400000Y-33300000D02*
X130050000Y-33300000D01*
X116400000Y-38900000D02*
X115350000Y-39950000D01*
X111550000Y-46279000D02*
X112671000Y-47400000D01*
%TO.N,Net-(U16-AIN2)*%
X117673000Y-35827000D02*
X119050000Y-34450000D01*
X135418000Y-36842000D02*
X137045000Y-35215000D01*
X116450000Y-42600000D02*
X113500000Y-42600000D01*
X119050000Y-34450000D02*
X128899074Y-34450000D01*
X113500000Y-42600000D02*
X112550000Y-43550000D01*
X116900000Y-42150000D02*
X116900000Y-39550000D01*
X128899074Y-34450000D02*
X131291074Y-36842000D01*
X116900000Y-39550000D02*
X117673000Y-38777000D01*
X116459586Y-42590414D02*
X116450000Y-42600000D01*
X112550000Y-45950000D02*
X113500000Y-46900000D01*
X116459586Y-42590414D02*
X116900000Y-42150000D01*
X117673000Y-38777000D02*
X117673000Y-35827000D01*
X131291074Y-36842000D02*
X135418000Y-36842000D01*
X137045000Y-35215000D02*
X137045000Y-27595000D01*
X112550000Y-43550000D02*
X112550000Y-45950000D01*
%TO.N,Net-(U16-AIN1)*%
X119050000Y-42492053D02*
X117800000Y-43742053D01*
X122500000Y-36915947D02*
X119050000Y-40365947D01*
X122500000Y-36200000D02*
X122500000Y-36915947D01*
X130896000Y-37296000D02*
X140044000Y-37296000D01*
X117800000Y-43742053D02*
X117800000Y-46900000D01*
X122500000Y-36200000D02*
X129800000Y-36200000D01*
X142125000Y-35215000D02*
X142125000Y-27595000D01*
X129800000Y-36200000D02*
X130896000Y-37296000D01*
X140044000Y-37296000D02*
X142125000Y-35215000D01*
X119050000Y-40365947D02*
X119050000Y-42492053D01*
%TO.N,Net-(IC3-EN)*%
X106075000Y-48150000D02*
X106075000Y-49833000D01*
X106075000Y-49833000D02*
X107142000Y-50900000D01*
X107142000Y-51400000D02*
X107142000Y-50900000D01*
%TO.N,Net-(IC3-SCL2)*%
X110500000Y-49800000D02*
X109971000Y-49800000D01*
X109971000Y-49800000D02*
X107871000Y-51900000D01*
X113500000Y-48900000D02*
X111400000Y-48900000D01*
X107142000Y-51900000D02*
X107871000Y-51900000D01*
X111400000Y-48900000D02*
X110500000Y-49800000D01*
%TO.N,Net-(IC3-SDA2)*%
X114900000Y-48971000D02*
X114900000Y-49600000D01*
X113500000Y-48400000D02*
X114329000Y-48400000D01*
X113200000Y-51300000D02*
X110525000Y-51300000D01*
X110525000Y-51300000D02*
X110500000Y-51275000D01*
X109375000Y-52400000D02*
X107142000Y-52400000D01*
X114900000Y-49600000D02*
X113200000Y-51300000D01*
X114329000Y-48400000D02*
X114900000Y-48971000D01*
X110500000Y-51275000D02*
X109375000Y-52400000D01*
%TO.N,Net-(U16-AIN0)*%
X122450000Y-42500000D02*
X127100000Y-37850000D01*
X122450000Y-42500000D02*
X120108764Y-42500000D01*
X144570000Y-37850000D02*
X147205000Y-35215000D01*
X119510500Y-46518500D02*
X118629000Y-47400000D01*
X118629000Y-47400000D02*
X117800000Y-47400000D01*
X147205000Y-35215000D02*
X147205000Y-27595000D01*
X120108764Y-42500000D02*
X119510500Y-43098264D01*
X119510500Y-43098264D02*
X119510500Y-46518500D01*
X127100000Y-37850000D02*
X144570000Y-37850000D01*
D63*
%TO.N,Net-(IC4-OUTPUT)*%
X81993196Y-48200000D02*
X81770000Y-48200000D01*
X90575000Y-39395000D02*
X81770000Y-48200000D01*
X81770000Y-48200000D02*
X79230000Y-48200000D01*
X91250000Y-33837500D02*
X91250000Y-36662500D01*
X90575000Y-37337500D02*
X90575000Y-39395000D01*
X91250000Y-36662500D02*
X90575000Y-37337500D01*
D61*
%TO.N,M2_IN1*%
X58600000Y-97000000D02*
X58600000Y-98893334D01*
D62*
X58500000Y-81750000D02*
X58500000Y-86000000D01*
X76434300Y-58315700D02*
X76434300Y-59500000D01*
X68662900Y-50544300D02*
X76434300Y-58315700D01*
X72500000Y-67750000D02*
X58500000Y-81750000D01*
X65086100Y-50544300D02*
X68662900Y-50544300D01*
D61*
X58600000Y-98893334D02*
X58631666Y-98925000D01*
%TO.N,unconnected-(U6-LED15-Pad22)*%
X99439500Y-72752000D02*
X99362500Y-72675000D01*
D67*
%TO.N,Net-(J5-Pin_1)*%
X37750000Y-111750000D02*
X37750000Y-110190000D01*
X31250000Y-105250000D02*
X37750000Y-111750000D01*
X31250000Y-99000000D02*
X31250000Y-105250000D01*
D61*
%TO.N,RX2*%
X55500000Y-38650000D02*
X57050000Y-38650000D01*
X50871100Y-44464300D02*
X50871100Y-43528900D01*
X50871100Y-43528900D02*
X52300000Y-42100000D01*
%TO.N,RS485_Enable*%
X65850000Y-31763211D02*
X58890211Y-38723000D01*
X58890211Y-38723000D02*
X58600000Y-38723000D01*
X52141100Y-43808900D02*
X53800000Y-42150000D01*
X52141100Y-44464300D02*
X52141100Y-43808900D01*
%TO.N,TX2*%
X46923000Y-42528156D02*
X47851156Y-41600000D01*
X57300000Y-37750000D02*
X62600000Y-32450000D01*
X46923000Y-43627000D02*
X46923000Y-42528156D01*
X47851156Y-41600000D02*
X50500000Y-41600000D01*
X46832100Y-46734300D02*
X46759100Y-46661300D01*
X46759100Y-43790900D02*
X46923000Y-43627000D01*
X46759100Y-46661300D02*
X46759100Y-43790900D01*
X55050000Y-37750000D02*
X57300000Y-37750000D01*
X54150000Y-38650000D02*
X55050000Y-37750000D01*
X48086100Y-46734300D02*
X46832100Y-46734300D01*
%TD*%
%TA.AperFunction,Conductor*%
%TO.N,+12V*%
G36*
X39500000Y-87600000D02*
G01*
X81000000Y-87600000D01*
X81000000Y-96314434D01*
X80999999Y-96314434D01*
X80983316Y-96331116D01*
X80979998Y-96342418D01*
X80926342Y-96388911D01*
X80874298Y-96400297D01*
X72257291Y-96420691D01*
X72189123Y-96400850D01*
X72163358Y-96379003D01*
X72111253Y-96321134D01*
X72111250Y-96321132D01*
X71956752Y-96208882D01*
X71782288Y-96131206D01*
X71595487Y-96091500D01*
X71404513Y-96091500D01*
X71217711Y-96131206D01*
X71043247Y-96208882D01*
X70949061Y-96277313D01*
X70882193Y-96301172D01*
X70813042Y-96285091D01*
X70800939Y-96277313D01*
X70706752Y-96208882D01*
X70532288Y-96131206D01*
X70345487Y-96091500D01*
X70154513Y-96091500D01*
X69967711Y-96131206D01*
X69793247Y-96208882D01*
X69638743Y-96321136D01*
X69580736Y-96385559D01*
X69520290Y-96422798D01*
X69487399Y-96427248D01*
X60532279Y-96448443D01*
X60464111Y-96428602D01*
X60438346Y-96406755D01*
X60361253Y-96321134D01*
X60361250Y-96321132D01*
X60206752Y-96208882D01*
X60032288Y-96131206D01*
X59845487Y-96091500D01*
X59654513Y-96091500D01*
X59467711Y-96131206D01*
X59293247Y-96208882D01*
X59199061Y-96277313D01*
X59132193Y-96301172D01*
X59063042Y-96285091D01*
X59050939Y-96277313D01*
X58956752Y-96208882D01*
X58782288Y-96131206D01*
X58595487Y-96091500D01*
X58404513Y-96091500D01*
X58217711Y-96131206D01*
X58043247Y-96208882D01*
X57888749Y-96321132D01*
X57888744Y-96321136D01*
X57805642Y-96413429D01*
X57745196Y-96450668D01*
X57712305Y-96455118D01*
X48916993Y-96475935D01*
X48848825Y-96456094D01*
X48823060Y-96434247D01*
X48811249Y-96421130D01*
X48656752Y-96308882D01*
X48482288Y-96231206D01*
X48295487Y-96191500D01*
X48104513Y-96191500D01*
X47917711Y-96231206D01*
X47743247Y-96308882D01*
X47674061Y-96359149D01*
X47607193Y-96383008D01*
X47538041Y-96366927D01*
X47525939Y-96359149D01*
X47456752Y-96308882D01*
X47282288Y-96231206D01*
X47095487Y-96191500D01*
X46904513Y-96191500D01*
X46717711Y-96231206D01*
X46543247Y-96308882D01*
X46388749Y-96421132D01*
X46388746Y-96421134D01*
X46371313Y-96440495D01*
X46310865Y-96477732D01*
X46277978Y-96482181D01*
X38750000Y-96500000D01*
X35250000Y-96500000D01*
X27326000Y-96500000D01*
X27257879Y-96479998D01*
X27211386Y-96426342D01*
X27200000Y-96374000D01*
X27200000Y-94954000D01*
X29261765Y-94954000D01*
X29267668Y-95002617D01*
X29267670Y-95002626D01*
X29335405Y-95236477D01*
X29439783Y-95456450D01*
X29578098Y-95656832D01*
X29746757Y-95832424D01*
X29941405Y-95978694D01*
X30156995Y-96091843D01*
X30387941Y-96168944D01*
X30387949Y-96168946D01*
X30628251Y-96207998D01*
X30628266Y-96208000D01*
X30996000Y-96208000D01*
X30996000Y-94954000D01*
X31504000Y-94954000D01*
X31504000Y-96208000D01*
X31810775Y-96208000D01*
X31992682Y-96193314D01*
X32229090Y-96135045D01*
X32453080Y-96039612D01*
X32658870Y-95909479D01*
X32658871Y-95909478D01*
X32841106Y-95748032D01*
X32841115Y-95748022D01*
X32995091Y-95559436D01*
X33116834Y-95348573D01*
X33116836Y-95348570D01*
X33203172Y-95120920D01*
X33237250Y-94954000D01*
X31504000Y-94954000D01*
X30996000Y-94954000D01*
X29261765Y-94954000D01*
X27200000Y-94954000D01*
X27200000Y-94700000D01*
X30295102Y-94700000D01*
X30314505Y-94797545D01*
X30369760Y-94880240D01*
X30452455Y-94935495D01*
X30525376Y-94950000D01*
X31974624Y-94950000D01*
X32047545Y-94935495D01*
X32130240Y-94880240D01*
X32185495Y-94797545D01*
X32204898Y-94700000D01*
X32185495Y-94602455D01*
X32130240Y-94519760D01*
X32047545Y-94464505D01*
X31974624Y-94450000D01*
X30525376Y-94450000D01*
X30452455Y-94464505D01*
X30369760Y-94519760D01*
X30314505Y-94602455D01*
X30295102Y-94700000D01*
X27200000Y-94700000D01*
X27200000Y-94446000D01*
X29262749Y-94446000D01*
X30996000Y-94446000D01*
X30996000Y-93192000D01*
X31504000Y-93192000D01*
X31504000Y-94446000D01*
X33238234Y-94446000D01*
X33238234Y-94445999D01*
X33232331Y-94397382D01*
X33232329Y-94397373D01*
X33164594Y-94163522D01*
X33060216Y-93943549D01*
X32921901Y-93743167D01*
X32753242Y-93567575D01*
X32558594Y-93421305D01*
X32343004Y-93308156D01*
X32112058Y-93231055D01*
X32112050Y-93231053D01*
X31871748Y-93192001D01*
X31871734Y-93192000D01*
X31504000Y-93192000D01*
X30996000Y-93192000D01*
X30689225Y-93192000D01*
X30507317Y-93206685D01*
X30270909Y-93264954D01*
X30046919Y-93360387D01*
X29841129Y-93490520D01*
X29841128Y-93490521D01*
X29658893Y-93651967D01*
X29658884Y-93651977D01*
X29504908Y-93840563D01*
X29383165Y-94051426D01*
X29383163Y-94051429D01*
X29296827Y-94279079D01*
X29262749Y-94446000D01*
X27200000Y-94446000D01*
X27200000Y-91254000D01*
X29242000Y-91254000D01*
X29242000Y-92048597D01*
X29248505Y-92109093D01*
X29299555Y-92245964D01*
X29299555Y-92245965D01*
X29387095Y-92362904D01*
X29504034Y-92450444D01*
X29640906Y-92501494D01*
X29701402Y-92507999D01*
X29701415Y-92508000D01*
X30996000Y-92508000D01*
X30996000Y-91254000D01*
X31504000Y-91254000D01*
X31504000Y-92508000D01*
X32798585Y-92508000D01*
X32798597Y-92507999D01*
X32859093Y-92501494D01*
X32995964Y-92450444D01*
X32995965Y-92450444D01*
X33112904Y-92362904D01*
X33200444Y-92245965D01*
X33200444Y-92245964D01*
X33251494Y-92109093D01*
X33257999Y-92048597D01*
X33258000Y-92048585D01*
X33258000Y-91254000D01*
X31504000Y-91254000D01*
X30996000Y-91254000D01*
X29242000Y-91254000D01*
X27200000Y-91254000D01*
X27200000Y-91000000D01*
X30295102Y-91000000D01*
X30314505Y-91097545D01*
X30369760Y-91180240D01*
X30452455Y-91235495D01*
X30525376Y-91250000D01*
X31974624Y-91250000D01*
X32047545Y-91235495D01*
X32130240Y-91180240D01*
X32185495Y-91097545D01*
X32191286Y-91068434D01*
X40092000Y-91068434D01*
X40092000Y-92364950D01*
X40102605Y-92468752D01*
X40102606Y-92468755D01*
X40158342Y-92636959D01*
X40251365Y-92787773D01*
X40251370Y-92787779D01*
X40376654Y-92913063D01*
X40376660Y-92913068D01*
X40527474Y-93006091D01*
X40695678Y-93061827D01*
X40695681Y-93061828D01*
X40799483Y-93072433D01*
X40799483Y-93072434D01*
X41146000Y-93072434D01*
X41146000Y-91068434D01*
X41654000Y-91068434D01*
X41654000Y-93072434D01*
X42000517Y-93072434D01*
X42000516Y-93072433D01*
X42104318Y-93061828D01*
X42104321Y-93061827D01*
X42272525Y-93006091D01*
X42423339Y-92913068D01*
X42423345Y-92913063D01*
X42548629Y-92787779D01*
X42548634Y-92787773D01*
X42641657Y-92636959D01*
X42697393Y-92468755D01*
X42697394Y-92468752D01*
X42707999Y-92364950D01*
X42708000Y-92364950D01*
X42708000Y-91068434D01*
X41654000Y-91068434D01*
X41146000Y-91068434D01*
X40092000Y-91068434D01*
X32191286Y-91068434D01*
X32194157Y-91054000D01*
X51692000Y-91054000D01*
X51692000Y-92350516D01*
X51702605Y-92454318D01*
X51702606Y-92454321D01*
X51758342Y-92622525D01*
X51851365Y-92773339D01*
X51851370Y-92773345D01*
X51976654Y-92898629D01*
X51976660Y-92898634D01*
X52127474Y-92991657D01*
X52295678Y-93047393D01*
X52295681Y-93047394D01*
X52399483Y-93057999D01*
X52399483Y-93058000D01*
X52746000Y-93058000D01*
X52746000Y-91054000D01*
X53254000Y-91054000D01*
X53254000Y-93058000D01*
X53600517Y-93058000D01*
X53600516Y-93057999D01*
X53704318Y-93047394D01*
X53704321Y-93047393D01*
X53872525Y-92991657D01*
X54023339Y-92898634D01*
X54023345Y-92898629D01*
X54148629Y-92773345D01*
X54148634Y-92773339D01*
X54241657Y-92622525D01*
X54297393Y-92454321D01*
X54297394Y-92454318D01*
X54307999Y-92350516D01*
X54308000Y-92350516D01*
X54308000Y-91068434D01*
X63425332Y-91068434D01*
X63425332Y-92364950D01*
X63435937Y-92468752D01*
X63435938Y-92468755D01*
X63491674Y-92636959D01*
X63584697Y-92787773D01*
X63584702Y-92787779D01*
X63709986Y-92913063D01*
X63709992Y-92913068D01*
X63860806Y-93006091D01*
X64029010Y-93061827D01*
X64029013Y-93061828D01*
X64132815Y-93072433D01*
X64132815Y-93072434D01*
X64479332Y-93072434D01*
X64479332Y-91068434D01*
X64987332Y-91068434D01*
X64987332Y-93072434D01*
X65333849Y-93072434D01*
X65333848Y-93072433D01*
X65437650Y-93061828D01*
X65437653Y-93061827D01*
X65605857Y-93006091D01*
X65756671Y-92913068D01*
X65756677Y-92913063D01*
X65881961Y-92787779D01*
X65881966Y-92787773D01*
X65974989Y-92636959D01*
X66030725Y-92468755D01*
X66030726Y-92468752D01*
X66041331Y-92364950D01*
X66041332Y-92364950D01*
X66041332Y-91068434D01*
X75092000Y-91068434D01*
X75092000Y-92364950D01*
X75102605Y-92468752D01*
X75102606Y-92468755D01*
X75158342Y-92636959D01*
X75251365Y-92787773D01*
X75251370Y-92787779D01*
X75376654Y-92913063D01*
X75376660Y-92913068D01*
X75527474Y-93006091D01*
X75695678Y-93061827D01*
X75695681Y-93061828D01*
X75799483Y-93072433D01*
X75799483Y-93072434D01*
X76146000Y-93072434D01*
X76146000Y-91068434D01*
X76654000Y-91068434D01*
X76654000Y-93072434D01*
X77000517Y-93072434D01*
X77000516Y-93072433D01*
X77104318Y-93061828D01*
X77104321Y-93061827D01*
X77272525Y-93006091D01*
X77423339Y-92913068D01*
X77423345Y-92913063D01*
X77548629Y-92787779D01*
X77548634Y-92787773D01*
X77641657Y-92636959D01*
X77697393Y-92468755D01*
X77697394Y-92468752D01*
X77707999Y-92364950D01*
X77708000Y-92364950D01*
X77708000Y-91068434D01*
X76654000Y-91068434D01*
X76146000Y-91068434D01*
X75092000Y-91068434D01*
X66041332Y-91068434D01*
X64987332Y-91068434D01*
X64479332Y-91068434D01*
X63425332Y-91068434D01*
X54308000Y-91068434D01*
X54308000Y-91054000D01*
X53254000Y-91054000D01*
X52746000Y-91054000D01*
X51692000Y-91054000D01*
X32194157Y-91054000D01*
X32204898Y-91000000D01*
X32185495Y-90902455D01*
X32130240Y-90819760D01*
X32047545Y-90764505D01*
X31974624Y-90750000D01*
X30525376Y-90750000D01*
X30452455Y-90764505D01*
X30369760Y-90819760D01*
X30314505Y-90902455D01*
X30295102Y-91000000D01*
X27200000Y-91000000D01*
X27200000Y-90746000D01*
X29242000Y-90746000D01*
X30996000Y-90746000D01*
X30996000Y-89492000D01*
X31504000Y-89492000D01*
X31504000Y-90746000D01*
X33258000Y-90746000D01*
X33258000Y-90560434D01*
X40092000Y-90560434D01*
X41146000Y-90560434D01*
X41146000Y-88556434D01*
X41654000Y-88556434D01*
X41654000Y-90560434D01*
X42708000Y-90560434D01*
X63425332Y-90560434D01*
X64479332Y-90560434D01*
X64479332Y-88556434D01*
X64987332Y-88556434D01*
X64987332Y-90560434D01*
X66041332Y-90560434D01*
X75092000Y-90560434D01*
X76146000Y-90560434D01*
X76146000Y-88556434D01*
X76654000Y-88556434D01*
X76654000Y-90560434D01*
X77708000Y-90560434D01*
X77708000Y-89263917D01*
X77697394Y-89160115D01*
X77697393Y-89160112D01*
X77641657Y-88991908D01*
X77548634Y-88841094D01*
X77548629Y-88841088D01*
X77423345Y-88715804D01*
X77423339Y-88715799D01*
X77272525Y-88622776D01*
X77104321Y-88567040D01*
X77104318Y-88567039D01*
X77000516Y-88556434D01*
X76654000Y-88556434D01*
X76146000Y-88556434D01*
X75799483Y-88556434D01*
X75695681Y-88567039D01*
X75695678Y-88567040D01*
X75527474Y-88622776D01*
X75376660Y-88715799D01*
X75376654Y-88715804D01*
X75251370Y-88841088D01*
X75251365Y-88841094D01*
X75158342Y-88991908D01*
X75102606Y-89160112D01*
X75102605Y-89160115D01*
X75092000Y-89263917D01*
X75092000Y-90560434D01*
X66041332Y-90560434D01*
X66041332Y-89263917D01*
X66030726Y-89160115D01*
X66030725Y-89160112D01*
X65974989Y-88991908D01*
X65881966Y-88841094D01*
X65881961Y-88841088D01*
X65756677Y-88715804D01*
X65756671Y-88715799D01*
X65605857Y-88622776D01*
X65437653Y-88567040D01*
X65437650Y-88567039D01*
X65333848Y-88556434D01*
X64987332Y-88556434D01*
X64479332Y-88556434D01*
X64132815Y-88556434D01*
X64029013Y-88567039D01*
X64029010Y-88567040D01*
X63860806Y-88622776D01*
X63709992Y-88715799D01*
X63709986Y-88715804D01*
X63584702Y-88841088D01*
X63584697Y-88841094D01*
X63491674Y-88991908D01*
X63435938Y-89160112D01*
X63435937Y-89160115D01*
X63425332Y-89263917D01*
X63425332Y-90560434D01*
X42708000Y-90560434D01*
X42708000Y-90546000D01*
X51692000Y-90546000D01*
X52746000Y-90546000D01*
X52746000Y-88542000D01*
X53254000Y-88542000D01*
X53254000Y-90546000D01*
X54308000Y-90546000D01*
X54308000Y-89249483D01*
X54297394Y-89145681D01*
X54297393Y-89145678D01*
X54241657Y-88977474D01*
X54148634Y-88826660D01*
X54148629Y-88826654D01*
X54023345Y-88701370D01*
X54023339Y-88701365D01*
X53872525Y-88608342D01*
X53704321Y-88552606D01*
X53704318Y-88552605D01*
X53600516Y-88542000D01*
X53254000Y-88542000D01*
X52746000Y-88542000D01*
X52399483Y-88542000D01*
X52295681Y-88552605D01*
X52295678Y-88552606D01*
X52127474Y-88608342D01*
X51976660Y-88701365D01*
X51976654Y-88701370D01*
X51851370Y-88826654D01*
X51851365Y-88826660D01*
X51758342Y-88977474D01*
X51702606Y-89145678D01*
X51702605Y-89145681D01*
X51692000Y-89249483D01*
X51692000Y-90546000D01*
X42708000Y-90546000D01*
X42708000Y-89263917D01*
X42697394Y-89160115D01*
X42697393Y-89160112D01*
X42641657Y-88991908D01*
X42548634Y-88841094D01*
X42548629Y-88841088D01*
X42423345Y-88715804D01*
X42423339Y-88715799D01*
X42272525Y-88622776D01*
X42104321Y-88567040D01*
X42104318Y-88567039D01*
X42000516Y-88556434D01*
X41654000Y-88556434D01*
X41146000Y-88556434D01*
X40799483Y-88556434D01*
X40695681Y-88567039D01*
X40695678Y-88567040D01*
X40527474Y-88622776D01*
X40376660Y-88715799D01*
X40376654Y-88715804D01*
X40251370Y-88841088D01*
X40251365Y-88841094D01*
X40158342Y-88991908D01*
X40102606Y-89160112D01*
X40102605Y-89160115D01*
X40092000Y-89263917D01*
X40092000Y-90560434D01*
X33258000Y-90560434D01*
X33258000Y-89951414D01*
X33257999Y-89951402D01*
X33251494Y-89890906D01*
X33200444Y-89754035D01*
X33200444Y-89754034D01*
X33112904Y-89637095D01*
X32995965Y-89549555D01*
X32859093Y-89498505D01*
X32798597Y-89492000D01*
X31504000Y-89492000D01*
X30996000Y-89492000D01*
X29701402Y-89492000D01*
X29640906Y-89498505D01*
X29504035Y-89549555D01*
X29504034Y-89549555D01*
X29387095Y-89637095D01*
X29299555Y-89754034D01*
X29299555Y-89754035D01*
X29248505Y-89890906D01*
X29242000Y-89951402D01*
X29242000Y-90746000D01*
X27200000Y-90746000D01*
X27200000Y-87676000D01*
X27220002Y-87607879D01*
X27273658Y-87561386D01*
X27326000Y-87550000D01*
X35000000Y-87550000D01*
X39500000Y-87600000D01*
G37*
%TD.AperFunction*%
%TD*%
%TA.AperFunction,Conductor*%
%TO.N,GND*%
G36*
X129594033Y-102150924D02*
G01*
X129639095Y-102179885D01*
X130250742Y-102791532D01*
X130284768Y-102853844D01*
X130279703Y-102924659D01*
X130250743Y-102969722D01*
X130193465Y-103026999D01*
X130193466Y-103027000D01*
X130309000Y-103027000D01*
X130377121Y-103047002D01*
X130423614Y-103100658D01*
X130435000Y-103153000D01*
X130435000Y-103300000D01*
X129935000Y-103300000D01*
X129935000Y-103194210D01*
X129934999Y-103194208D01*
X129279885Y-102539094D01*
X129245859Y-102476782D01*
X129249240Y-102429516D01*
X129381301Y-102429516D01*
X129391105Y-102510261D01*
X129437310Y-102577200D01*
X129509331Y-102615000D01*
X129570035Y-102615000D01*
X129628974Y-102600473D01*
X129689856Y-102546536D01*
X129718699Y-102470484D01*
X129708895Y-102389739D01*
X129662690Y-102322800D01*
X129590669Y-102285000D01*
X129529965Y-102285000D01*
X129471026Y-102299527D01*
X129410144Y-102353464D01*
X129381301Y-102429516D01*
X129249240Y-102429516D01*
X129250924Y-102405967D01*
X129279885Y-102360903D01*
X129460905Y-102179884D01*
X129523217Y-102145859D01*
X129594033Y-102150924D01*
G37*
%TD.AperFunction*%
%TA.AperFunction,Conductor*%
G36*
X131705000Y-100447000D02*
G01*
X131684998Y-100515121D01*
X131631342Y-100561614D01*
X131579000Y-100573000D01*
X131493465Y-100573000D01*
X131550742Y-100630277D01*
X131584768Y-100692589D01*
X131579703Y-100763404D01*
X131550743Y-100808467D01*
X130939096Y-101420115D01*
X130876783Y-101454140D01*
X130805968Y-101449076D01*
X130760905Y-101420115D01*
X130579885Y-101239095D01*
X130545859Y-101176783D01*
X130549240Y-101129516D01*
X130681301Y-101129516D01*
X130691105Y-101210261D01*
X130737310Y-101277200D01*
X130809331Y-101315000D01*
X130870035Y-101315000D01*
X130928974Y-101300473D01*
X130989856Y-101246536D01*
X131018699Y-101170484D01*
X131008895Y-101089739D01*
X130962690Y-101022800D01*
X130890669Y-100985000D01*
X130829965Y-100985000D01*
X130771026Y-100999527D01*
X130710144Y-101053464D01*
X130681301Y-101129516D01*
X130549240Y-101129516D01*
X130550924Y-101105968D01*
X130579885Y-101060904D01*
X131205000Y-100435789D01*
X131205000Y-100300000D01*
X131705000Y-100300000D01*
X131705000Y-100447000D01*
G37*
%TD.AperFunction*%
%TD*%
%TA.AperFunction,Conductor*%
%TO.N,GND*%
G36*
X116919033Y-102150924D02*
G01*
X116964095Y-102179885D01*
X117575742Y-102791532D01*
X117609768Y-102853844D01*
X117604703Y-102924659D01*
X117575743Y-102969722D01*
X117518465Y-103026999D01*
X117518466Y-103027000D01*
X117634000Y-103027000D01*
X117702121Y-103047002D01*
X117748614Y-103100658D01*
X117760000Y-103153000D01*
X117760000Y-103300000D01*
X117260000Y-103300000D01*
X117260000Y-103194210D01*
X117259999Y-103194208D01*
X116604885Y-102539094D01*
X116570859Y-102476782D01*
X116574240Y-102429516D01*
X116706301Y-102429516D01*
X116716105Y-102510261D01*
X116762310Y-102577200D01*
X116834331Y-102615000D01*
X116895035Y-102615000D01*
X116953974Y-102600473D01*
X117014856Y-102546536D01*
X117043699Y-102470484D01*
X117033895Y-102389739D01*
X116987690Y-102322800D01*
X116915669Y-102285000D01*
X116854965Y-102285000D01*
X116796026Y-102299527D01*
X116735144Y-102353464D01*
X116706301Y-102429516D01*
X116574240Y-102429516D01*
X116575924Y-102405967D01*
X116604885Y-102360903D01*
X116785905Y-102179884D01*
X116848217Y-102145859D01*
X116919033Y-102150924D01*
G37*
%TD.AperFunction*%
%TA.AperFunction,Conductor*%
G36*
X119030000Y-100447000D02*
G01*
X119009998Y-100515121D01*
X118956342Y-100561614D01*
X118904000Y-100573000D01*
X118818465Y-100573000D01*
X118875742Y-100630277D01*
X118909768Y-100692589D01*
X118904703Y-100763404D01*
X118875743Y-100808467D01*
X118264096Y-101420115D01*
X118201783Y-101454140D01*
X118130968Y-101449076D01*
X118085905Y-101420115D01*
X117904885Y-101239095D01*
X117870859Y-101176783D01*
X117874240Y-101129516D01*
X118006301Y-101129516D01*
X118016105Y-101210261D01*
X118062310Y-101277200D01*
X118134331Y-101315000D01*
X118195035Y-101315000D01*
X118253974Y-101300473D01*
X118314856Y-101246536D01*
X118343699Y-101170484D01*
X118333895Y-101089739D01*
X118287690Y-101022800D01*
X118215669Y-100985000D01*
X118154965Y-100985000D01*
X118096026Y-100999527D01*
X118035144Y-101053464D01*
X118006301Y-101129516D01*
X117874240Y-101129516D01*
X117875924Y-101105968D01*
X117904885Y-101060904D01*
X118530000Y-100435789D01*
X118530000Y-100300000D01*
X119030000Y-100300000D01*
X119030000Y-100447000D01*
G37*
%TD.AperFunction*%
%TD*%
%TA.AperFunction,Conductor*%
%TO.N,GND*%
G36*
X82644033Y-102150924D02*
G01*
X82689095Y-102179885D01*
X83300742Y-102791532D01*
X83334768Y-102853844D01*
X83329703Y-102924659D01*
X83300743Y-102969722D01*
X83243465Y-103026999D01*
X83243466Y-103027000D01*
X83359000Y-103027000D01*
X83427121Y-103047002D01*
X83473614Y-103100658D01*
X83485000Y-103153000D01*
X83485000Y-103300000D01*
X82985000Y-103300000D01*
X82985000Y-103194210D01*
X82984999Y-103194208D01*
X82329885Y-102539094D01*
X82295859Y-102476782D01*
X82299240Y-102429516D01*
X82431301Y-102429516D01*
X82441105Y-102510261D01*
X82487310Y-102577200D01*
X82559331Y-102615000D01*
X82620035Y-102615000D01*
X82678974Y-102600473D01*
X82739856Y-102546536D01*
X82768699Y-102470484D01*
X82758895Y-102389739D01*
X82712690Y-102322800D01*
X82640669Y-102285000D01*
X82579965Y-102285000D01*
X82521026Y-102299527D01*
X82460144Y-102353464D01*
X82431301Y-102429516D01*
X82299240Y-102429516D01*
X82300924Y-102405967D01*
X82329885Y-102360903D01*
X82510905Y-102179884D01*
X82573217Y-102145859D01*
X82644033Y-102150924D01*
G37*
%TD.AperFunction*%
%TA.AperFunction,Conductor*%
G36*
X84755000Y-100447000D02*
G01*
X84734998Y-100515121D01*
X84681342Y-100561614D01*
X84629000Y-100573000D01*
X84543465Y-100573000D01*
X84600742Y-100630277D01*
X84634768Y-100692589D01*
X84629703Y-100763404D01*
X84600743Y-100808467D01*
X83989096Y-101420115D01*
X83926783Y-101454140D01*
X83855968Y-101449076D01*
X83810905Y-101420115D01*
X83629885Y-101239095D01*
X83595859Y-101176783D01*
X83599240Y-101129516D01*
X83731301Y-101129516D01*
X83741105Y-101210261D01*
X83787310Y-101277200D01*
X83859331Y-101315000D01*
X83920035Y-101315000D01*
X83978974Y-101300473D01*
X84039856Y-101246536D01*
X84068699Y-101170484D01*
X84058895Y-101089739D01*
X84012690Y-101022800D01*
X83940669Y-100985000D01*
X83879965Y-100985000D01*
X83821026Y-100999527D01*
X83760144Y-101053464D01*
X83731301Y-101129516D01*
X83599240Y-101129516D01*
X83600924Y-101105968D01*
X83629885Y-101060904D01*
X84255000Y-100435789D01*
X84255000Y-100300000D01*
X84755000Y-100300000D01*
X84755000Y-100447000D01*
G37*
%TD.AperFunction*%
%TD*%
%TA.AperFunction,Conductor*%
%TO.N,GND*%
G36*
X154944033Y-102150924D02*
G01*
X154989095Y-102179885D01*
X155600742Y-102791532D01*
X155634768Y-102853844D01*
X155629703Y-102924659D01*
X155600743Y-102969722D01*
X155543465Y-103026999D01*
X155543466Y-103027000D01*
X155659000Y-103027000D01*
X155727121Y-103047002D01*
X155773614Y-103100658D01*
X155785000Y-103153000D01*
X155785000Y-103300000D01*
X155285000Y-103300000D01*
X155285000Y-103194210D01*
X155284999Y-103194208D01*
X154629885Y-102539094D01*
X154595859Y-102476782D01*
X154599240Y-102429516D01*
X154731301Y-102429516D01*
X154741105Y-102510261D01*
X154787310Y-102577200D01*
X154859331Y-102615000D01*
X154920035Y-102615000D01*
X154978974Y-102600473D01*
X155039856Y-102546536D01*
X155068699Y-102470484D01*
X155058895Y-102389739D01*
X155012690Y-102322800D01*
X154940669Y-102285000D01*
X154879965Y-102285000D01*
X154821026Y-102299527D01*
X154760144Y-102353464D01*
X154731301Y-102429516D01*
X154599240Y-102429516D01*
X154600924Y-102405967D01*
X154629885Y-102360903D01*
X154810905Y-102179884D01*
X154873217Y-102145859D01*
X154944033Y-102150924D01*
G37*
%TD.AperFunction*%
%TA.AperFunction,Conductor*%
G36*
X157055000Y-100447000D02*
G01*
X157034998Y-100515121D01*
X156981342Y-100561614D01*
X156929000Y-100573000D01*
X156843465Y-100573000D01*
X156900742Y-100630277D01*
X156934768Y-100692589D01*
X156929703Y-100763404D01*
X156900743Y-100808467D01*
X156289096Y-101420115D01*
X156226783Y-101454140D01*
X156155968Y-101449076D01*
X156110905Y-101420115D01*
X155929885Y-101239095D01*
X155895859Y-101176783D01*
X155899240Y-101129516D01*
X156031301Y-101129516D01*
X156041105Y-101210261D01*
X156087310Y-101277200D01*
X156159331Y-101315000D01*
X156220035Y-101315000D01*
X156278974Y-101300473D01*
X156339856Y-101246536D01*
X156368699Y-101170484D01*
X156358895Y-101089739D01*
X156312690Y-101022800D01*
X156240669Y-100985000D01*
X156179965Y-100985000D01*
X156121026Y-100999527D01*
X156060144Y-101053464D01*
X156031301Y-101129516D01*
X155899240Y-101129516D01*
X155900924Y-101105968D01*
X155929885Y-101060904D01*
X156555000Y-100435789D01*
X156555000Y-100300000D01*
X157055000Y-100300000D01*
X157055000Y-100447000D01*
G37*
%TD.AperFunction*%
%TD*%
%TA.AperFunction,Conductor*%
%TO.N,GND*%
G36*
X70977365Y-102150924D02*
G01*
X71022427Y-102179885D01*
X71634074Y-102791532D01*
X71668100Y-102853844D01*
X71663035Y-102924659D01*
X71634075Y-102969722D01*
X71576797Y-103026999D01*
X71576798Y-103027000D01*
X71692332Y-103027000D01*
X71760453Y-103047002D01*
X71806946Y-103100658D01*
X71818332Y-103153000D01*
X71818332Y-103300000D01*
X71318332Y-103300000D01*
X71318332Y-103194210D01*
X71318331Y-103194208D01*
X70663217Y-102539094D01*
X70629191Y-102476782D01*
X70632572Y-102429516D01*
X70764633Y-102429516D01*
X70774437Y-102510261D01*
X70820642Y-102577200D01*
X70892663Y-102615000D01*
X70953367Y-102615000D01*
X71012306Y-102600473D01*
X71073188Y-102546536D01*
X71102031Y-102470484D01*
X71092227Y-102389739D01*
X71046022Y-102322800D01*
X70974001Y-102285000D01*
X70913297Y-102285000D01*
X70854358Y-102299527D01*
X70793476Y-102353464D01*
X70764633Y-102429516D01*
X70632572Y-102429516D01*
X70634256Y-102405967D01*
X70663217Y-102360903D01*
X70844237Y-102179884D01*
X70906549Y-102145859D01*
X70977365Y-102150924D01*
G37*
%TD.AperFunction*%
%TA.AperFunction,Conductor*%
G36*
X73088332Y-100447000D02*
G01*
X73068330Y-100515121D01*
X73014674Y-100561614D01*
X72962332Y-100573000D01*
X72876797Y-100573000D01*
X72934074Y-100630277D01*
X72968100Y-100692589D01*
X72963035Y-100763404D01*
X72934075Y-100808467D01*
X72322428Y-101420115D01*
X72260115Y-101454140D01*
X72189300Y-101449076D01*
X72144237Y-101420115D01*
X71963217Y-101239095D01*
X71929191Y-101176783D01*
X71932572Y-101129516D01*
X72064633Y-101129516D01*
X72074437Y-101210261D01*
X72120642Y-101277200D01*
X72192663Y-101315000D01*
X72253367Y-101315000D01*
X72312306Y-101300473D01*
X72373188Y-101246536D01*
X72402031Y-101170484D01*
X72392227Y-101089739D01*
X72346022Y-101022800D01*
X72274001Y-100985000D01*
X72213297Y-100985000D01*
X72154358Y-100999527D01*
X72093476Y-101053464D01*
X72064633Y-101129516D01*
X71932572Y-101129516D01*
X71934256Y-101105968D01*
X71963217Y-101060904D01*
X72588332Y-100435789D01*
X72588332Y-100300000D01*
X73088332Y-100300000D01*
X73088332Y-100447000D01*
G37*
%TD.AperFunction*%
%TD*%
%TA.AperFunction,Conductor*%
%TO.N,GND*%
G36*
X47644033Y-102150924D02*
G01*
X47689095Y-102179885D01*
X48300742Y-102791532D01*
X48334768Y-102853844D01*
X48329703Y-102924659D01*
X48300743Y-102969722D01*
X48243465Y-103026999D01*
X48243466Y-103027000D01*
X48359000Y-103027000D01*
X48427121Y-103047002D01*
X48473614Y-103100658D01*
X48485000Y-103153000D01*
X48485000Y-103300000D01*
X47985000Y-103300000D01*
X47985000Y-103194210D01*
X47984999Y-103194208D01*
X47329885Y-102539094D01*
X47295859Y-102476782D01*
X47299240Y-102429516D01*
X47431301Y-102429516D01*
X47441105Y-102510261D01*
X47487310Y-102577200D01*
X47559331Y-102615000D01*
X47620035Y-102615000D01*
X47678974Y-102600473D01*
X47739856Y-102546536D01*
X47768699Y-102470484D01*
X47758895Y-102389739D01*
X47712690Y-102322800D01*
X47640669Y-102285000D01*
X47579965Y-102285000D01*
X47521026Y-102299527D01*
X47460144Y-102353464D01*
X47431301Y-102429516D01*
X47299240Y-102429516D01*
X47300924Y-102405967D01*
X47329885Y-102360903D01*
X47510905Y-102179884D01*
X47573217Y-102145859D01*
X47644033Y-102150924D01*
G37*
%TD.AperFunction*%
%TA.AperFunction,Conductor*%
G36*
X49755000Y-100447000D02*
G01*
X49734998Y-100515121D01*
X49681342Y-100561614D01*
X49629000Y-100573000D01*
X49543465Y-100573000D01*
X49600742Y-100630277D01*
X49634768Y-100692589D01*
X49629703Y-100763404D01*
X49600743Y-100808467D01*
X48989096Y-101420115D01*
X48926783Y-101454140D01*
X48855968Y-101449076D01*
X48810905Y-101420115D01*
X48629885Y-101239095D01*
X48595859Y-101176783D01*
X48599240Y-101129516D01*
X48731301Y-101129516D01*
X48741105Y-101210261D01*
X48787310Y-101277200D01*
X48859331Y-101315000D01*
X48920035Y-101315000D01*
X48978974Y-101300473D01*
X49039856Y-101246536D01*
X49068699Y-101170484D01*
X49058895Y-101089739D01*
X49012690Y-101022800D01*
X48940669Y-100985000D01*
X48879965Y-100985000D01*
X48821026Y-100999527D01*
X48760144Y-101053464D01*
X48731301Y-101129516D01*
X48599240Y-101129516D01*
X48600924Y-101105968D01*
X48629885Y-101060904D01*
X49255000Y-100435789D01*
X49255000Y-100300000D01*
X49755000Y-100300000D01*
X49755000Y-100447000D01*
G37*
%TD.AperFunction*%
%TD*%
%TA.AperFunction,Conductor*%
%TO.N,GND*%
G36*
X104244033Y-102150924D02*
G01*
X104289095Y-102179885D01*
X104900742Y-102791532D01*
X104934768Y-102853844D01*
X104929703Y-102924659D01*
X104900743Y-102969722D01*
X104843465Y-103026999D01*
X104843466Y-103027000D01*
X104959000Y-103027000D01*
X105027121Y-103047002D01*
X105073614Y-103100658D01*
X105085000Y-103153000D01*
X105085000Y-103300000D01*
X104585000Y-103300000D01*
X104585000Y-103194210D01*
X104584999Y-103194208D01*
X103929885Y-102539094D01*
X103895859Y-102476782D01*
X103899240Y-102429516D01*
X104031301Y-102429516D01*
X104041105Y-102510261D01*
X104087310Y-102577200D01*
X104159331Y-102615000D01*
X104220035Y-102615000D01*
X104278974Y-102600473D01*
X104339856Y-102546536D01*
X104368699Y-102470484D01*
X104358895Y-102389739D01*
X104312690Y-102322800D01*
X104240669Y-102285000D01*
X104179965Y-102285000D01*
X104121026Y-102299527D01*
X104060144Y-102353464D01*
X104031301Y-102429516D01*
X103899240Y-102429516D01*
X103900924Y-102405967D01*
X103929885Y-102360903D01*
X104110905Y-102179884D01*
X104173217Y-102145859D01*
X104244033Y-102150924D01*
G37*
%TD.AperFunction*%
%TA.AperFunction,Conductor*%
G36*
X106355000Y-100447000D02*
G01*
X106334998Y-100515121D01*
X106281342Y-100561614D01*
X106229000Y-100573000D01*
X106143465Y-100573000D01*
X106200742Y-100630277D01*
X106234768Y-100692589D01*
X106229703Y-100763404D01*
X106200743Y-100808467D01*
X105589096Y-101420115D01*
X105526783Y-101454140D01*
X105455968Y-101449076D01*
X105410905Y-101420115D01*
X105229885Y-101239095D01*
X105195859Y-101176783D01*
X105199240Y-101129516D01*
X105331301Y-101129516D01*
X105341105Y-101210261D01*
X105387310Y-101277200D01*
X105459331Y-101315000D01*
X105520035Y-101315000D01*
X105578974Y-101300473D01*
X105639856Y-101246536D01*
X105668699Y-101170484D01*
X105658895Y-101089739D01*
X105612690Y-101022800D01*
X105540669Y-100985000D01*
X105479965Y-100985000D01*
X105421026Y-100999527D01*
X105360144Y-101053464D01*
X105331301Y-101129516D01*
X105199240Y-101129516D01*
X105200924Y-101105968D01*
X105229885Y-101060904D01*
X105855000Y-100435789D01*
X105855000Y-100300000D01*
X106355000Y-100300000D01*
X106355000Y-100447000D01*
G37*
%TD.AperFunction*%
%TD*%
%TA.AperFunction,Conductor*%
%TO.N,GND*%
G36*
X58547631Y-52340224D02*
G01*
X58592697Y-52369186D01*
X58608811Y-52385300D01*
X59549100Y-52385300D01*
X59617221Y-52405302D01*
X59663714Y-52458958D01*
X59675100Y-52511300D01*
X59675100Y-53451591D01*
X59691214Y-53467705D01*
X59725240Y-53530017D01*
X59720175Y-53600832D01*
X59691214Y-53645895D01*
X59675100Y-53662008D01*
X59675100Y-55286591D01*
X59691214Y-55302705D01*
X59725240Y-55365017D01*
X59720175Y-55435832D01*
X59691214Y-55480895D01*
X59675100Y-55497008D01*
X59675100Y-56437300D01*
X59655098Y-56505421D01*
X59601442Y-56551914D01*
X59549100Y-56563300D01*
X58608808Y-56563300D01*
X58592695Y-56579414D01*
X58530383Y-56613440D01*
X58459568Y-56608375D01*
X58414505Y-56579414D01*
X58398391Y-56563300D01*
X56773808Y-56563300D01*
X56757695Y-56579414D01*
X56695383Y-56613440D01*
X56624568Y-56608375D01*
X56579505Y-56579414D01*
X56563391Y-56563300D01*
X55623100Y-56563300D01*
X55554979Y-56543298D01*
X55508486Y-56489642D01*
X55497100Y-56437300D01*
X55497100Y-56328137D01*
X56537585Y-56328137D01*
X56568567Y-56395979D01*
X56631309Y-56436300D01*
X56686861Y-56436300D01*
X56740160Y-56420650D01*
X56789001Y-56364285D01*
X56794198Y-56328137D01*
X58372585Y-56328137D01*
X58403567Y-56395979D01*
X58466309Y-56436300D01*
X58521861Y-56436300D01*
X58575160Y-56420650D01*
X58624001Y-56364285D01*
X58634615Y-56290463D01*
X58603633Y-56222621D01*
X58540891Y-56182300D01*
X58485339Y-56182300D01*
X58432040Y-56197950D01*
X58383199Y-56254315D01*
X58372585Y-56328137D01*
X56794198Y-56328137D01*
X56799615Y-56290463D01*
X56768633Y-56222621D01*
X56705891Y-56182300D01*
X56650339Y-56182300D01*
X56597040Y-56197950D01*
X56548199Y-56254315D01*
X56537585Y-56328137D01*
X55497100Y-56328137D01*
X55497100Y-56005009D01*
X56005100Y-56005009D01*
X56005100Y-56055300D01*
X56055390Y-56055300D01*
X56055390Y-56055299D01*
X57281809Y-56055299D01*
X57281810Y-56055300D01*
X57332100Y-56055300D01*
X57332100Y-56005010D01*
X57332099Y-56005009D01*
X57840100Y-56005009D01*
X57840100Y-56055300D01*
X57890390Y-56055300D01*
X57890390Y-56055299D01*
X59116809Y-56055299D01*
X59116810Y-56055300D01*
X59167100Y-56055300D01*
X59167100Y-56005010D01*
X59167099Y-56005009D01*
X59116809Y-56055299D01*
X57890390Y-56055299D01*
X57840100Y-56005009D01*
X57332099Y-56005009D01*
X57281809Y-56055299D01*
X56055390Y-56055299D01*
X56005100Y-56005009D01*
X55497100Y-56005009D01*
X55497100Y-55497010D01*
X55480986Y-55480897D01*
X55446960Y-55418585D01*
X55447528Y-55410637D01*
X55620085Y-55410637D01*
X55651067Y-55478479D01*
X55713809Y-55518800D01*
X55769361Y-55518800D01*
X55822660Y-55503150D01*
X55871501Y-55446785D01*
X55879407Y-55391800D01*
X56110310Y-55391800D01*
X56191303Y-55472792D01*
X56668600Y-55950089D01*
X57208052Y-55410637D01*
X57455085Y-55410637D01*
X57486067Y-55478479D01*
X57548809Y-55518800D01*
X57604361Y-55518800D01*
X57657660Y-55503150D01*
X57706501Y-55446785D01*
X57714407Y-55391800D01*
X57945310Y-55391800D01*
X58026303Y-55472792D01*
X58503600Y-55950089D01*
X59043052Y-55410637D01*
X59290085Y-55410637D01*
X59321067Y-55478479D01*
X59383809Y-55518800D01*
X59439361Y-55518800D01*
X59492660Y-55503150D01*
X59541501Y-55446785D01*
X59552115Y-55372963D01*
X59521133Y-55305121D01*
X59458391Y-55264800D01*
X59402839Y-55264800D01*
X59349540Y-55280450D01*
X59300699Y-55336815D01*
X59290085Y-55410637D01*
X59043052Y-55410637D01*
X59061889Y-55391800D01*
X58980897Y-55310808D01*
X58503600Y-54833510D01*
X58026303Y-55310808D01*
X57945310Y-55391800D01*
X57714407Y-55391800D01*
X57717115Y-55372963D01*
X57686133Y-55305121D01*
X57623391Y-55264800D01*
X57567839Y-55264800D01*
X57514540Y-55280450D01*
X57465699Y-55336815D01*
X57455085Y-55410637D01*
X57208052Y-55410637D01*
X57226889Y-55391800D01*
X57145897Y-55310808D01*
X56668600Y-54833510D01*
X56191303Y-55310808D01*
X56110310Y-55391800D01*
X55879407Y-55391800D01*
X55882115Y-55372963D01*
X55851133Y-55305121D01*
X55788391Y-55264800D01*
X55732839Y-55264800D01*
X55679540Y-55280450D01*
X55630699Y-55336815D01*
X55620085Y-55410637D01*
X55447528Y-55410637D01*
X55452024Y-55347769D01*
X55480986Y-55302703D01*
X55497100Y-55286589D01*
X55497100Y-54728300D01*
X56005100Y-54728300D01*
X56005100Y-54778590D01*
X56055390Y-54728300D01*
X57281809Y-54728300D01*
X57332099Y-54778590D01*
X57332100Y-54778590D01*
X57332100Y-54728300D01*
X57840100Y-54728300D01*
X57840100Y-54778590D01*
X57890390Y-54728300D01*
X59116809Y-54728300D01*
X59167099Y-54778590D01*
X59167100Y-54778590D01*
X59167100Y-54728300D01*
X59116809Y-54728300D01*
X57890390Y-54728300D01*
X57840100Y-54728300D01*
X57332100Y-54728300D01*
X57281809Y-54728300D01*
X56055390Y-54728300D01*
X56005100Y-54728300D01*
X55497100Y-54728300D01*
X55497100Y-54493137D01*
X56537585Y-54493137D01*
X56568567Y-54560979D01*
X56631309Y-54601300D01*
X56686861Y-54601300D01*
X56740160Y-54585650D01*
X56789001Y-54529285D01*
X56794198Y-54493137D01*
X58372585Y-54493137D01*
X58403567Y-54560979D01*
X58466309Y-54601300D01*
X58521861Y-54601300D01*
X58575160Y-54585650D01*
X58624001Y-54529285D01*
X58634615Y-54455463D01*
X58603633Y-54387621D01*
X58540891Y-54347300D01*
X58485339Y-54347300D01*
X58432040Y-54362950D01*
X58383199Y-54419315D01*
X58372585Y-54493137D01*
X56794198Y-54493137D01*
X56799615Y-54455463D01*
X56768633Y-54387621D01*
X56705891Y-54347300D01*
X56650339Y-54347300D01*
X56597040Y-54362950D01*
X56548199Y-54419315D01*
X56537585Y-54493137D01*
X55497100Y-54493137D01*
X55497100Y-54170009D01*
X56005100Y-54170009D01*
X56005100Y-54220300D01*
X56055390Y-54220300D01*
X56055390Y-54220299D01*
X57281809Y-54220299D01*
X57281810Y-54220300D01*
X57332100Y-54220300D01*
X57332100Y-54170010D01*
X57332099Y-54170009D01*
X57840100Y-54170009D01*
X57840100Y-54220300D01*
X57890390Y-54220300D01*
X57890390Y-54220299D01*
X59116809Y-54220299D01*
X59116810Y-54220300D01*
X59167100Y-54220300D01*
X59167100Y-54170010D01*
X59167099Y-54170009D01*
X59116809Y-54220299D01*
X57890390Y-54220299D01*
X57840100Y-54170009D01*
X57332099Y-54170009D01*
X57281809Y-54220299D01*
X56055390Y-54220299D01*
X56005100Y-54170009D01*
X55497100Y-54170009D01*
X55497100Y-53662010D01*
X55480986Y-53645897D01*
X55446960Y-53583585D01*
X55447528Y-53575637D01*
X55620085Y-53575637D01*
X55651067Y-53643479D01*
X55713809Y-53683800D01*
X55769361Y-53683800D01*
X55822660Y-53668150D01*
X55871501Y-53611785D01*
X55879407Y-53556800D01*
X56110310Y-53556800D01*
X56191303Y-53637792D01*
X56668600Y-54115089D01*
X57208052Y-53575637D01*
X57455085Y-53575637D01*
X57486067Y-53643479D01*
X57548809Y-53683800D01*
X57604361Y-53683800D01*
X57657660Y-53668150D01*
X57706501Y-53611785D01*
X57714407Y-53556800D01*
X57945310Y-53556800D01*
X58026303Y-53637792D01*
X58503600Y-54115089D01*
X59043052Y-53575637D01*
X59290085Y-53575637D01*
X59321067Y-53643479D01*
X59383809Y-53683800D01*
X59439361Y-53683800D01*
X59492660Y-53668150D01*
X59541501Y-53611785D01*
X59552115Y-53537963D01*
X59521133Y-53470121D01*
X59458391Y-53429800D01*
X59402839Y-53429800D01*
X59349540Y-53445450D01*
X59300699Y-53501815D01*
X59290085Y-53575637D01*
X59043052Y-53575637D01*
X59061889Y-53556800D01*
X58980897Y-53475808D01*
X58503600Y-52998510D01*
X58026303Y-53475808D01*
X57945310Y-53556800D01*
X57714407Y-53556800D01*
X57717115Y-53537963D01*
X57686133Y-53470121D01*
X57623391Y-53429800D01*
X57567839Y-53429800D01*
X57514540Y-53445450D01*
X57465699Y-53501815D01*
X57455085Y-53575637D01*
X57208052Y-53575637D01*
X57226889Y-53556800D01*
X57145897Y-53475808D01*
X56668600Y-52998510D01*
X56191303Y-53475808D01*
X56110310Y-53556800D01*
X55879407Y-53556800D01*
X55882115Y-53537963D01*
X55851133Y-53470121D01*
X55788391Y-53429800D01*
X55732839Y-53429800D01*
X55679540Y-53445450D01*
X55630699Y-53501815D01*
X55620085Y-53575637D01*
X55447528Y-53575637D01*
X55452024Y-53512769D01*
X55480986Y-53467703D01*
X55497100Y-53451589D01*
X55497100Y-52893300D01*
X56005100Y-52893300D01*
X56005100Y-52943590D01*
X56055390Y-52893300D01*
X57281809Y-52893300D01*
X57332099Y-52943590D01*
X57332100Y-52943590D01*
X57332100Y-52893300D01*
X57840100Y-52893300D01*
X57840100Y-52943590D01*
X57890390Y-52893300D01*
X59116809Y-52893300D01*
X59167099Y-52943590D01*
X59167100Y-52943590D01*
X59167100Y-52893300D01*
X59116809Y-52893300D01*
X57890390Y-52893300D01*
X57840100Y-52893300D01*
X57332100Y-52893300D01*
X57281809Y-52893300D01*
X56055390Y-52893300D01*
X56005100Y-52893300D01*
X55497100Y-52893300D01*
X55497100Y-52658137D01*
X56537585Y-52658137D01*
X56568567Y-52725979D01*
X56631309Y-52766300D01*
X56686861Y-52766300D01*
X56740160Y-52750650D01*
X56789001Y-52694285D01*
X56794198Y-52658137D01*
X58372585Y-52658137D01*
X58403567Y-52725979D01*
X58466309Y-52766300D01*
X58521861Y-52766300D01*
X58575160Y-52750650D01*
X58624001Y-52694285D01*
X58634615Y-52620463D01*
X58603633Y-52552621D01*
X58540891Y-52512300D01*
X58485339Y-52512300D01*
X58432040Y-52527950D01*
X58383199Y-52584315D01*
X58372585Y-52658137D01*
X56794198Y-52658137D01*
X56799615Y-52620463D01*
X56768633Y-52552621D01*
X56705891Y-52512300D01*
X56650339Y-52512300D01*
X56597040Y-52527950D01*
X56548199Y-52584315D01*
X56537585Y-52658137D01*
X55497100Y-52658137D01*
X55497100Y-52511300D01*
X55517102Y-52443179D01*
X55570758Y-52396686D01*
X55623100Y-52385300D01*
X56563389Y-52385300D01*
X56579503Y-52369186D01*
X56641815Y-52335160D01*
X56712631Y-52340224D01*
X56757697Y-52369186D01*
X56773811Y-52385300D01*
X58398389Y-52385300D01*
X58414503Y-52369186D01*
X58476815Y-52335160D01*
X58547631Y-52340224D01*
G37*
%TD.AperFunction*%
%TD*%
%TA.AperFunction,Conductor*%
%TO.N,GND*%
G36*
X59244033Y-102000924D02*
G01*
X59289095Y-102029885D01*
X59900742Y-102641532D01*
X59934768Y-102703844D01*
X59929703Y-102774659D01*
X59900743Y-102819722D01*
X59843465Y-102876999D01*
X59843466Y-102877000D01*
X59959000Y-102877000D01*
X60027121Y-102897002D01*
X60073614Y-102950658D01*
X60085000Y-103003000D01*
X60085000Y-103300000D01*
X59585000Y-103300000D01*
X59585000Y-103044210D01*
X59584999Y-103044208D01*
X58929885Y-102389094D01*
X58895859Y-102326782D01*
X58899240Y-102279516D01*
X59031301Y-102279516D01*
X59041105Y-102360261D01*
X59087310Y-102427200D01*
X59159331Y-102465000D01*
X59220035Y-102465000D01*
X59278974Y-102450473D01*
X59339856Y-102396536D01*
X59368699Y-102320484D01*
X59358895Y-102239739D01*
X59312690Y-102172800D01*
X59240669Y-102135000D01*
X59179965Y-102135000D01*
X59121026Y-102149527D01*
X59060144Y-102203464D01*
X59031301Y-102279516D01*
X58899240Y-102279516D01*
X58900924Y-102255967D01*
X58929885Y-102210903D01*
X59110905Y-102029884D01*
X59173217Y-101995859D01*
X59244033Y-102000924D01*
G37*
%TD.AperFunction*%
%TA.AperFunction,Conductor*%
G36*
X61334998Y-100365121D02*
G01*
X61281342Y-100411614D01*
X61229000Y-100423000D01*
X61143465Y-100423000D01*
X61200742Y-100480277D01*
X61234768Y-100542589D01*
X61229703Y-100613404D01*
X61200743Y-100658467D01*
X60589096Y-101270115D01*
X60526783Y-101304140D01*
X60455968Y-101299076D01*
X60410905Y-101270115D01*
X60229885Y-101089095D01*
X60195859Y-101026783D01*
X60199240Y-100979516D01*
X60331301Y-100979516D01*
X60341105Y-101060261D01*
X60387310Y-101127200D01*
X60459331Y-101165000D01*
X60520035Y-101165000D01*
X60578974Y-101150473D01*
X60639856Y-101096536D01*
X60668699Y-101020484D01*
X60658895Y-100939739D01*
X60612690Y-100872800D01*
X60540669Y-100835000D01*
X60479965Y-100835000D01*
X60421026Y-100849527D01*
X60360144Y-100903464D01*
X60331301Y-100979516D01*
X60199240Y-100979516D01*
X60200924Y-100955968D01*
X60229885Y-100910904D01*
X60840789Y-100300000D01*
X61354119Y-100300000D01*
X61334998Y-100365121D01*
G37*
%TD.AperFunction*%
%TD*%
%TA.AperFunction,Conductor*%
%TO.N,GND*%
G36*
X142269033Y-102150924D02*
G01*
X142314095Y-102179885D01*
X142925742Y-102791532D01*
X142959768Y-102853844D01*
X142954703Y-102924659D01*
X142925743Y-102969722D01*
X142868465Y-103026999D01*
X142868466Y-103027000D01*
X142984000Y-103027000D01*
X143052121Y-103047002D01*
X143098614Y-103100658D01*
X143110000Y-103153000D01*
X143110000Y-103300000D01*
X142610000Y-103300000D01*
X142610000Y-103194210D01*
X142609999Y-103194208D01*
X141954885Y-102539094D01*
X141920859Y-102476782D01*
X141924240Y-102429516D01*
X142056301Y-102429516D01*
X142066105Y-102510261D01*
X142112310Y-102577200D01*
X142184331Y-102615000D01*
X142245035Y-102615000D01*
X142303974Y-102600473D01*
X142364856Y-102546536D01*
X142393699Y-102470484D01*
X142383895Y-102389739D01*
X142337690Y-102322800D01*
X142265669Y-102285000D01*
X142204965Y-102285000D01*
X142146026Y-102299527D01*
X142085144Y-102353464D01*
X142056301Y-102429516D01*
X141924240Y-102429516D01*
X141925924Y-102405967D01*
X141954885Y-102360903D01*
X142135905Y-102179884D01*
X142198217Y-102145859D01*
X142269033Y-102150924D01*
G37*
%TD.AperFunction*%
%TA.AperFunction,Conductor*%
G36*
X144380000Y-100447000D02*
G01*
X144359998Y-100515121D01*
X144306342Y-100561614D01*
X144254000Y-100573000D01*
X144168465Y-100573000D01*
X144225742Y-100630277D01*
X144259768Y-100692589D01*
X144254703Y-100763404D01*
X144225743Y-100808467D01*
X143614096Y-101420115D01*
X143551783Y-101454140D01*
X143480968Y-101449076D01*
X143435905Y-101420115D01*
X143254885Y-101239095D01*
X143220859Y-101176783D01*
X143224240Y-101129516D01*
X143356301Y-101129516D01*
X143366105Y-101210261D01*
X143412310Y-101277200D01*
X143484331Y-101315000D01*
X143545035Y-101315000D01*
X143603974Y-101300473D01*
X143664856Y-101246536D01*
X143693699Y-101170484D01*
X143683895Y-101089739D01*
X143637690Y-101022800D01*
X143565669Y-100985000D01*
X143504965Y-100985000D01*
X143446026Y-100999527D01*
X143385144Y-101053464D01*
X143356301Y-101129516D01*
X143224240Y-101129516D01*
X143225924Y-101105968D01*
X143254885Y-101060904D01*
X143880000Y-100435789D01*
X143880000Y-100300000D01*
X144380000Y-100300000D01*
X144380000Y-100447000D01*
G37*
%TD.AperFunction*%
%TD*%
%TA.AperFunction,Conductor*%
%TO.N,+12V*%
G36*
X151738497Y-87331801D02*
G01*
X151785140Y-87385326D01*
X151796674Y-87437943D01*
X151798520Y-92364950D01*
X151799931Y-96131206D01*
X151799953Y-96188387D01*
X151779976Y-96256515D01*
X151726338Y-96303028D01*
X151673953Y-96314434D01*
X143442971Y-96314434D01*
X143374850Y-96294432D01*
X143368910Y-96290370D01*
X143256752Y-96208882D01*
X143082288Y-96131206D01*
X142895487Y-96091500D01*
X142704513Y-96091500D01*
X142517711Y-96131206D01*
X142343247Y-96208882D01*
X142274061Y-96259149D01*
X142207193Y-96283008D01*
X142138041Y-96266927D01*
X142125939Y-96259149D01*
X142056752Y-96208882D01*
X141882288Y-96131206D01*
X141695487Y-96091500D01*
X141504513Y-96091500D01*
X141317711Y-96131206D01*
X141143247Y-96208882D01*
X141031090Y-96290370D01*
X140964222Y-96314228D01*
X140957029Y-96314434D01*
X130842971Y-96314434D01*
X130774850Y-96294432D01*
X130768910Y-96290370D01*
X130656752Y-96208882D01*
X130482288Y-96131206D01*
X130295487Y-96091500D01*
X130104513Y-96091500D01*
X129917711Y-96131206D01*
X129743247Y-96208882D01*
X129631090Y-96290370D01*
X129564222Y-96314228D01*
X129557029Y-96314434D01*
X129542971Y-96314434D01*
X129474850Y-96294432D01*
X129468910Y-96290370D01*
X129356752Y-96208882D01*
X129182288Y-96131206D01*
X128995487Y-96091500D01*
X128804513Y-96091500D01*
X128617711Y-96131206D01*
X128443247Y-96208882D01*
X128331090Y-96290370D01*
X128264222Y-96314228D01*
X128257029Y-96314434D01*
X118142971Y-96314434D01*
X118074850Y-96294432D01*
X118068910Y-96290370D01*
X117956752Y-96208882D01*
X117782288Y-96131206D01*
X117595487Y-96091500D01*
X117404513Y-96091500D01*
X117217711Y-96131206D01*
X117043247Y-96208882D01*
X116931090Y-96290370D01*
X116864222Y-96314228D01*
X116857029Y-96314434D01*
X116842971Y-96314434D01*
X116774850Y-96294432D01*
X116768910Y-96290370D01*
X116656752Y-96208882D01*
X116482288Y-96131206D01*
X116295487Y-96091500D01*
X116104513Y-96091500D01*
X115917711Y-96131206D01*
X115743247Y-96208882D01*
X115631090Y-96290370D01*
X115564222Y-96314228D01*
X115557029Y-96314434D01*
X105442971Y-96314434D01*
X105374850Y-96294432D01*
X105368910Y-96290370D01*
X105256752Y-96208882D01*
X105082288Y-96131206D01*
X104895487Y-96091500D01*
X104704513Y-96091500D01*
X104517711Y-96131206D01*
X104343247Y-96208882D01*
X104231090Y-96290370D01*
X104164222Y-96314228D01*
X104157029Y-96314434D01*
X104142971Y-96314434D01*
X104074850Y-96294432D01*
X104068910Y-96290370D01*
X103956752Y-96208882D01*
X103782288Y-96131206D01*
X103595487Y-96091500D01*
X103404513Y-96091500D01*
X103217711Y-96131206D01*
X103043247Y-96208882D01*
X102931090Y-96290370D01*
X102864222Y-96314228D01*
X102857029Y-96314434D01*
X83842971Y-96314434D01*
X83774850Y-96294432D01*
X83768910Y-96290370D01*
X83656752Y-96208882D01*
X83482288Y-96131206D01*
X83295487Y-96091500D01*
X83104513Y-96091500D01*
X82917711Y-96131206D01*
X82743247Y-96208882D01*
X82674061Y-96259149D01*
X82607193Y-96283008D01*
X82538041Y-96266927D01*
X82525939Y-96259149D01*
X82456752Y-96208882D01*
X82282288Y-96131206D01*
X82095487Y-96091500D01*
X81904513Y-96091500D01*
X81717711Y-96131206D01*
X81543247Y-96208882D01*
X81431090Y-96290370D01*
X81364222Y-96314228D01*
X81357029Y-96314434D01*
X80500000Y-96314434D01*
X80497990Y-91068434D01*
X98892000Y-91068434D01*
X98892000Y-92364950D01*
X98902605Y-92468752D01*
X98902606Y-92468755D01*
X98958342Y-92636959D01*
X99051365Y-92787773D01*
X99051370Y-92787779D01*
X99176654Y-92913063D01*
X99176660Y-92913068D01*
X99327474Y-93006091D01*
X99495678Y-93061827D01*
X99495681Y-93061828D01*
X99599483Y-93072433D01*
X99599483Y-93072434D01*
X99946000Y-93072434D01*
X99946000Y-91068434D01*
X100454000Y-91068434D01*
X100454000Y-93072434D01*
X100800517Y-93072434D01*
X100800516Y-93072433D01*
X100904318Y-93061828D01*
X100904321Y-93061827D01*
X101072525Y-93006091D01*
X101223339Y-92913068D01*
X101223345Y-92913063D01*
X101348629Y-92787779D01*
X101348634Y-92787773D01*
X101441657Y-92636959D01*
X101497393Y-92468755D01*
X101497394Y-92468752D01*
X101507999Y-92364950D01*
X101508000Y-92364950D01*
X101508000Y-91068434D01*
X110492000Y-91068434D01*
X110492000Y-92364950D01*
X110502605Y-92468752D01*
X110502606Y-92468755D01*
X110558342Y-92636959D01*
X110651365Y-92787773D01*
X110651370Y-92787779D01*
X110776654Y-92913063D01*
X110776660Y-92913068D01*
X110927474Y-93006091D01*
X111095678Y-93061827D01*
X111095681Y-93061828D01*
X111199483Y-93072433D01*
X111199483Y-93072434D01*
X111546000Y-93072434D01*
X111546000Y-91068434D01*
X112054000Y-91068434D01*
X112054000Y-93072434D01*
X112400517Y-93072434D01*
X112400516Y-93072433D01*
X112504318Y-93061828D01*
X112504321Y-93061827D01*
X112672525Y-93006091D01*
X112823339Y-92913068D01*
X112823345Y-92913063D01*
X112948629Y-92787779D01*
X112948634Y-92787773D01*
X113041657Y-92636959D01*
X113097393Y-92468755D01*
X113097394Y-92468752D01*
X113107999Y-92364950D01*
X113108000Y-92364950D01*
X113108000Y-91068434D01*
X123192000Y-91068434D01*
X123192000Y-92364950D01*
X123202605Y-92468752D01*
X123202606Y-92468755D01*
X123258342Y-92636959D01*
X123351365Y-92787773D01*
X123351370Y-92787779D01*
X123476654Y-92913063D01*
X123476660Y-92913068D01*
X123627474Y-93006091D01*
X123795678Y-93061827D01*
X123795681Y-93061828D01*
X123899483Y-93072433D01*
X123899483Y-93072434D01*
X124246000Y-93072434D01*
X124246000Y-91068434D01*
X124754000Y-91068434D01*
X124754000Y-93072434D01*
X125100517Y-93072434D01*
X125100516Y-93072433D01*
X125204318Y-93061828D01*
X125204321Y-93061827D01*
X125372525Y-93006091D01*
X125523339Y-92913068D01*
X125523345Y-92913063D01*
X125648629Y-92787779D01*
X125648634Y-92787773D01*
X125741657Y-92636959D01*
X125797393Y-92468755D01*
X125797394Y-92468752D01*
X125807999Y-92364950D01*
X125808000Y-92364950D01*
X125808000Y-91068434D01*
X134092000Y-91068434D01*
X134092000Y-92364950D01*
X134102605Y-92468752D01*
X134102606Y-92468755D01*
X134158342Y-92636959D01*
X134251365Y-92787773D01*
X134251370Y-92787779D01*
X134376654Y-92913063D01*
X134376660Y-92913068D01*
X134527474Y-93006091D01*
X134695678Y-93061827D01*
X134695681Y-93061828D01*
X134799483Y-93072433D01*
X134799483Y-93072434D01*
X135146000Y-93072434D01*
X135146000Y-91068434D01*
X135654000Y-91068434D01*
X135654000Y-93072434D01*
X136000517Y-93072434D01*
X136000516Y-93072433D01*
X136104318Y-93061828D01*
X136104321Y-93061827D01*
X136272525Y-93006091D01*
X136423339Y-92913068D01*
X136423345Y-92913063D01*
X136548629Y-92787779D01*
X136548634Y-92787773D01*
X136641657Y-92636959D01*
X136697393Y-92468755D01*
X136697394Y-92468752D01*
X136707999Y-92364950D01*
X136708000Y-92364950D01*
X136708000Y-91068434D01*
X145392000Y-91068434D01*
X145392000Y-92364950D01*
X145402605Y-92468752D01*
X145402606Y-92468755D01*
X145458342Y-92636959D01*
X145551365Y-92787773D01*
X145551370Y-92787779D01*
X145676654Y-92913063D01*
X145676660Y-92913068D01*
X145827474Y-93006091D01*
X145995678Y-93061827D01*
X145995681Y-93061828D01*
X146099483Y-93072433D01*
X146099483Y-93072434D01*
X146446000Y-93072434D01*
X146446000Y-91068434D01*
X146954000Y-91068434D01*
X146954000Y-93072434D01*
X147300517Y-93072434D01*
X147300516Y-93072433D01*
X147404318Y-93061828D01*
X147404321Y-93061827D01*
X147572525Y-93006091D01*
X147723339Y-92913068D01*
X147723345Y-92913063D01*
X147848629Y-92787779D01*
X147848634Y-92787773D01*
X147941657Y-92636959D01*
X147997393Y-92468755D01*
X147997394Y-92468752D01*
X148007999Y-92364950D01*
X148008000Y-92364950D01*
X148008000Y-91068434D01*
X146954000Y-91068434D01*
X146446000Y-91068434D01*
X145392000Y-91068434D01*
X136708000Y-91068434D01*
X135654000Y-91068434D01*
X135146000Y-91068434D01*
X134092000Y-91068434D01*
X125808000Y-91068434D01*
X124754000Y-91068434D01*
X124246000Y-91068434D01*
X123192000Y-91068434D01*
X113108000Y-91068434D01*
X112054000Y-91068434D01*
X111546000Y-91068434D01*
X110492000Y-91068434D01*
X101508000Y-91068434D01*
X100454000Y-91068434D01*
X99946000Y-91068434D01*
X98892000Y-91068434D01*
X80497990Y-91068434D01*
X80497795Y-90560434D01*
X98892000Y-90560434D01*
X99946000Y-90560434D01*
X99946000Y-88556434D01*
X100454000Y-88556434D01*
X100454000Y-90560434D01*
X101508000Y-90560434D01*
X110492000Y-90560434D01*
X111546000Y-90560434D01*
X111546000Y-88556434D01*
X112054000Y-88556434D01*
X112054000Y-90560434D01*
X113108000Y-90560434D01*
X123192000Y-90560434D01*
X124246000Y-90560434D01*
X124246000Y-88556434D01*
X124754000Y-88556434D01*
X124754000Y-90560434D01*
X125808000Y-90560434D01*
X134092000Y-90560434D01*
X135146000Y-90560434D01*
X135146000Y-88556434D01*
X135654000Y-88556434D01*
X135654000Y-90560434D01*
X136708000Y-90560434D01*
X145392000Y-90560434D01*
X146446000Y-90560434D01*
X146446000Y-88556434D01*
X146954000Y-88556434D01*
X146954000Y-90560434D01*
X148008000Y-90560434D01*
X148008000Y-89263917D01*
X147997394Y-89160115D01*
X147997393Y-89160112D01*
X147941657Y-88991908D01*
X147848634Y-88841094D01*
X147848629Y-88841088D01*
X147723345Y-88715804D01*
X147723339Y-88715799D01*
X147572525Y-88622776D01*
X147404321Y-88567040D01*
X147404318Y-88567039D01*
X147300516Y-88556434D01*
X146954000Y-88556434D01*
X146446000Y-88556434D01*
X146099483Y-88556434D01*
X145995681Y-88567039D01*
X145995678Y-88567040D01*
X145827474Y-88622776D01*
X145676660Y-88715799D01*
X145676654Y-88715804D01*
X145551370Y-88841088D01*
X145551365Y-88841094D01*
X145458342Y-88991908D01*
X145402606Y-89160112D01*
X145402605Y-89160115D01*
X145392000Y-89263917D01*
X145392000Y-90560434D01*
X136708000Y-90560434D01*
X136708000Y-89263917D01*
X136697394Y-89160115D01*
X136697393Y-89160112D01*
X136641657Y-88991908D01*
X136548634Y-88841094D01*
X136548629Y-88841088D01*
X136423345Y-88715804D01*
X136423339Y-88715799D01*
X136272525Y-88622776D01*
X136104321Y-88567040D01*
X136104318Y-88567039D01*
X136000516Y-88556434D01*
X135654000Y-88556434D01*
X135146000Y-88556434D01*
X134799483Y-88556434D01*
X134695681Y-88567039D01*
X134695678Y-88567040D01*
X134527474Y-88622776D01*
X134376660Y-88715799D01*
X134376654Y-88715804D01*
X134251370Y-88841088D01*
X134251365Y-88841094D01*
X134158342Y-88991908D01*
X134102606Y-89160112D01*
X134102605Y-89160115D01*
X134092000Y-89263917D01*
X134092000Y-90560434D01*
X125808000Y-90560434D01*
X125808000Y-89263917D01*
X125797394Y-89160115D01*
X125797393Y-89160112D01*
X125741657Y-88991908D01*
X125648634Y-88841094D01*
X125648629Y-88841088D01*
X125523345Y-88715804D01*
X125523339Y-88715799D01*
X125372525Y-88622776D01*
X125204321Y-88567040D01*
X125204318Y-88567039D01*
X125100516Y-88556434D01*
X124754000Y-88556434D01*
X124246000Y-88556434D01*
X123899483Y-88556434D01*
X123795681Y-88567039D01*
X123795678Y-88567040D01*
X123627474Y-88622776D01*
X123476660Y-88715799D01*
X123476654Y-88715804D01*
X123351370Y-88841088D01*
X123351365Y-88841094D01*
X123258342Y-88991908D01*
X123202606Y-89160112D01*
X123202605Y-89160115D01*
X123192000Y-89263917D01*
X123192000Y-90560434D01*
X113108000Y-90560434D01*
X113108000Y-89263917D01*
X113097394Y-89160115D01*
X113097393Y-89160112D01*
X113041657Y-88991908D01*
X112948634Y-88841094D01*
X112948629Y-88841088D01*
X112823345Y-88715804D01*
X112823339Y-88715799D01*
X112672525Y-88622776D01*
X112504321Y-88567040D01*
X112504318Y-88567039D01*
X112400516Y-88556434D01*
X112054000Y-88556434D01*
X111546000Y-88556434D01*
X111199483Y-88556434D01*
X111095681Y-88567039D01*
X111095678Y-88567040D01*
X110927474Y-88622776D01*
X110776660Y-88715799D01*
X110776654Y-88715804D01*
X110651370Y-88841088D01*
X110651365Y-88841094D01*
X110558342Y-88991908D01*
X110502606Y-89160112D01*
X110502605Y-89160115D01*
X110492000Y-89263917D01*
X110492000Y-90560434D01*
X101508000Y-90560434D01*
X101508000Y-89263917D01*
X101497394Y-89160115D01*
X101497393Y-89160112D01*
X101441657Y-88991908D01*
X101348634Y-88841094D01*
X101348629Y-88841088D01*
X101223345Y-88715804D01*
X101223339Y-88715799D01*
X101072525Y-88622776D01*
X100904321Y-88567040D01*
X100904318Y-88567039D01*
X100800516Y-88556434D01*
X100454000Y-88556434D01*
X99946000Y-88556434D01*
X99599483Y-88556434D01*
X99495681Y-88567039D01*
X99495678Y-88567040D01*
X99327474Y-88622776D01*
X99176660Y-88715799D01*
X99176654Y-88715804D01*
X99051370Y-88841088D01*
X99051365Y-88841094D01*
X98958342Y-88991908D01*
X98902606Y-89160112D01*
X98902605Y-89160115D01*
X98892000Y-89263917D01*
X98892000Y-90560434D01*
X80497795Y-90560434D01*
X80496661Y-87600000D01*
X80512169Y-87584485D01*
X80516650Y-87569205D01*
X80570286Y-87522690D01*
X80622319Y-87511283D01*
X81208628Y-87509638D01*
X81276803Y-87529449D01*
X81283042Y-87533703D01*
X81293244Y-87541115D01*
X81293246Y-87541117D01*
X81293247Y-87541117D01*
X81293248Y-87541118D01*
X81467712Y-87618794D01*
X81654513Y-87658500D01*
X81845487Y-87658500D01*
X82032288Y-87618794D01*
X82206752Y-87541118D01*
X82221150Y-87530656D01*
X82288013Y-87506797D01*
X82294825Y-87506591D01*
X82453822Y-87506145D01*
X82521996Y-87525956D01*
X82528211Y-87530193D01*
X82543248Y-87541118D01*
X82717712Y-87618794D01*
X82904513Y-87658500D01*
X83095487Y-87658500D01*
X83282288Y-87618794D01*
X83456752Y-87541118D01*
X83475997Y-87527135D01*
X83542860Y-87503277D01*
X83549668Y-87503072D01*
X99463731Y-87458432D01*
X99490456Y-87461224D01*
X99495564Y-87462317D01*
X99495574Y-87462321D01*
X99599455Y-87472934D01*
X100800544Y-87472933D01*
X100904426Y-87462321D01*
X100909427Y-87460663D01*
X100948706Y-87454266D01*
X110965795Y-87426168D01*
X111005764Y-87432561D01*
X111095574Y-87462321D01*
X111199455Y-87472934D01*
X112400544Y-87472933D01*
X112504426Y-87462321D01*
X112608471Y-87427844D01*
X112647743Y-87421450D01*
X115505812Y-87413433D01*
X115573987Y-87433244D01*
X115580225Y-87437497D01*
X115618820Y-87465538D01*
X115618822Y-87465539D01*
X115618825Y-87465541D01*
X115793289Y-87543217D01*
X115980090Y-87582923D01*
X116171064Y-87582923D01*
X116357865Y-87543217D01*
X116532329Y-87465541D01*
X116575342Y-87434289D01*
X116642206Y-87410431D01*
X116648987Y-87410226D01*
X117264611Y-87408500D01*
X117346416Y-87408500D01*
X117350907Y-87408258D01*
X117672120Y-87407356D01*
X123565687Y-87390825D01*
X123619423Y-87405995D01*
X123620612Y-87403448D01*
X123627258Y-87406547D01*
X123627259Y-87406547D01*
X123627262Y-87406549D01*
X123795574Y-87462321D01*
X123899455Y-87472934D01*
X125100544Y-87472933D01*
X125204426Y-87462321D01*
X125372738Y-87406549D01*
X125376347Y-87404323D01*
X125379343Y-87403468D01*
X125379392Y-87403446D01*
X125379395Y-87403453D01*
X125442142Y-87385561D01*
X128548242Y-87376848D01*
X128599840Y-87387742D01*
X128668284Y-87418216D01*
X128668289Y-87418217D01*
X128855090Y-87457923D01*
X129046064Y-87457923D01*
X129232865Y-87418217D01*
X129306410Y-87385472D01*
X129357303Y-87374579D01*
X129726467Y-87373543D01*
X129753002Y-87376295D01*
X129904513Y-87408500D01*
X129904517Y-87408500D01*
X130095486Y-87408500D01*
X130095487Y-87408500D01*
X130254301Y-87374742D01*
X130280127Y-87371990D01*
X134416342Y-87360388D01*
X134482835Y-87379146D01*
X134527262Y-87406549D01*
X134695574Y-87462321D01*
X134799455Y-87472934D01*
X136000544Y-87472933D01*
X136104426Y-87462321D01*
X136272738Y-87406549D01*
X136326148Y-87373605D01*
X136391936Y-87354846D01*
X140135670Y-87344345D01*
X140187263Y-87355237D01*
X140217712Y-87368794D01*
X140404513Y-87408500D01*
X140595487Y-87408500D01*
X140782288Y-87368794D01*
X140817352Y-87353182D01*
X140868240Y-87342290D01*
X141253372Y-87341210D01*
X141321545Y-87361020D01*
X141347359Y-87382900D01*
X141388744Y-87428864D01*
X141401240Y-87437943D01*
X141543248Y-87541118D01*
X141717712Y-87618794D01*
X141904513Y-87658500D01*
X142095487Y-87658500D01*
X142282288Y-87618794D01*
X142456752Y-87541118D01*
X142611253Y-87428866D01*
X142656421Y-87378701D01*
X142716864Y-87341462D01*
X142749694Y-87337013D01*
X145665183Y-87328834D01*
X145731679Y-87347592D01*
X145827262Y-87406549D01*
X145995574Y-87462321D01*
X146099455Y-87472934D01*
X147300544Y-87472933D01*
X147404426Y-87462321D01*
X147572738Y-87406549D01*
X147677772Y-87341762D01*
X147743559Y-87323005D01*
X151670322Y-87311990D01*
X151738497Y-87331801D01*
G37*
%TD.AperFunction*%
%TD*%
M02*
