%TF.GenerationSoftware,KiCad,Pcbnew,7.0.9*%
%TF.CreationDate,2024-01-10T08:13:28-06:00*%
%TF.ProjectId,RC15,52433135-2e6b-4696-9361-645f70636258,rev?*%
%TF.SameCoordinates,Original*%
%TF.FileFunction,Soldermask,Top*%
%TF.FilePolarity,Negative*%
%FSLAX46Y46*%
G04 Gerber Fmt 4.6, Leading zero omitted, Abs format (unit mm)*
G04 Created by KiCad (PCBNEW 7.0.9) date 2024-01-10 08:13:28*
%MOMM*%
%LPD*%
G01*
G04 APERTURE LIST*
G04 Aperture macros list*
%AMRoundRect*
0 Rectangle with rounded corners*
0 $1 Rounding radius*
0 $2 $3 $4 $5 $6 $7 $8 $9 X,Y pos of 4 corners*
0 Add a 4 corners polygon primitive as box body*
4,1,4,$2,$3,$4,$5,$6,$7,$8,$9,$2,$3,0*
0 Add four circle primitives for the rounded corners*
1,1,$1+$1,$2,$3*
1,1,$1+$1,$4,$5*
1,1,$1+$1,$6,$7*
1,1,$1+$1,$8,$9*
0 Add four rect primitives between the rounded corners*
20,1,$1+$1,$2,$3,$4,$5,0*
20,1,$1+$1,$4,$5,$6,$7,0*
20,1,$1+$1,$6,$7,$8,$9,0*
20,1,$1+$1,$8,$9,$2,$3,0*%
G04 Aperture macros list end*
%ADD10C,0.966000*%
%ADD11RoundRect,0.102000X0.665000X0.665000X-0.665000X0.665000X-0.665000X-0.665000X0.665000X-0.665000X0*%
%ADD12RoundRect,0.102000X1.000000X0.450000X-1.000000X0.450000X-1.000000X-0.450000X1.000000X-0.450000X0*%
%ADD13RoundRect,0.102000X0.450000X1.000000X-0.450000X1.000000X-0.450000X-1.000000X0.450000X-1.000000X0*%
%ADD14R,1.460500X0.533400*%
%ADD15R,2.600000X2.600000*%
%ADD16C,2.600000*%
%ADD17RoundRect,0.150000X-0.587500X-0.150000X0.587500X-0.150000X0.587500X0.150000X-0.587500X0.150000X0*%
%ADD18RoundRect,0.225000X-0.250000X0.225000X-0.250000X-0.225000X0.250000X-0.225000X0.250000X0.225000X0*%
%ADD19RoundRect,0.150000X-0.150000X0.825000X-0.150000X-0.825000X0.150000X-0.825000X0.150000X0.825000X0*%
%ADD20RoundRect,0.250000X-0.475000X0.250000X-0.475000X-0.250000X0.475000X-0.250000X0.475000X0.250000X0*%
%ADD21R,1.500000X2.000000*%
%ADD22R,3.800000X2.000000*%
%ADD23C,0.770000*%
%ADD24RoundRect,0.070000X-0.250000X1.100000X-0.250000X-1.100000X0.250000X-1.100000X0.250000X1.100000X0*%
%ADD25R,3.100000X2.400000*%
%ADD26RoundRect,0.250000X0.550000X-1.500000X0.550000X1.500000X-0.550000X1.500000X-0.550000X-1.500000X0*%
%ADD27C,3.200000*%
%ADD28R,5.400000X2.900000*%
%ADD29R,1.700000X1.700000*%
%ADD30O,1.700000X1.700000*%
%ADD31RoundRect,0.200000X0.200000X0.275000X-0.200000X0.275000X-0.200000X-0.275000X0.200000X-0.275000X0*%
%ADD32RoundRect,0.200000X0.275000X-0.200000X0.275000X0.200000X-0.275000X0.200000X-0.275000X-0.200000X0*%
%ADD33C,2.625000*%
%ADD34C,4.395000*%
%ADD35RoundRect,0.150000X0.150000X0.625000X-0.150000X0.625000X-0.150000X-0.625000X0.150000X-0.625000X0*%
%ADD36RoundRect,0.250000X0.350000X0.650000X-0.350000X0.650000X-0.350000X-0.650000X0.350000X-0.650000X0*%
%ADD37RoundRect,0.200000X-0.200000X-0.275000X0.200000X-0.275000X0.200000X0.275000X-0.200000X0.275000X0*%
%ADD38RoundRect,0.100000X-0.637500X-0.100000X0.637500X-0.100000X0.637500X0.100000X-0.637500X0.100000X0*%
%ADD39R,1.500000X0.450000*%
%ADD40O,1.100000X2.000000*%
%ADD41O,1.100000X2.200000*%
%ADD42R,1.100000X0.250000*%
%ADD43C,9.000000*%
%ADD44RoundRect,0.225000X0.225000X0.250000X-0.225000X0.250000X-0.225000X-0.250000X0.225000X-0.250000X0*%
%ADD45R,1.300000X1.500000*%
%ADD46RoundRect,0.200000X-0.275000X0.200000X-0.275000X-0.200000X0.275000X-0.200000X0.275000X0.200000X0*%
%ADD47R,1.050000X3.210000*%
%ADD48R,10.530000X8.460000*%
%ADD49R,0.850000X0.300000*%
%ADD50RoundRect,0.218750X-0.218750X-0.256250X0.218750X-0.256250X0.218750X0.256250X-0.218750X0.256250X0*%
%ADD51RoundRect,0.225000X-0.225000X-0.250000X0.225000X-0.250000X0.225000X0.250000X-0.225000X0.250000X0*%
%ADD52RoundRect,0.150000X-0.150000X0.587500X-0.150000X-0.587500X0.150000X-0.587500X0.150000X0.587500X0*%
%ADD53RoundRect,0.250000X-1.000000X1.950000X-1.000000X-1.950000X1.000000X-1.950000X1.000000X1.950000X0*%
%ADD54RoundRect,1.025000X-1.025000X-1.125000X1.025000X-1.125000X1.025000X1.125000X-1.025000X1.125000X0*%
%ADD55R,4.100000X4.300000*%
%ADD56RoundRect,0.225000X0.250000X-0.225000X0.250000X0.225000X-0.250000X0.225000X-0.250000X-0.225000X0*%
%ADD57R,1.800000X1.800000*%
%ADD58R,3.000000X2.000000*%
%ADD59O,3.000000X2.000000*%
%ADD60R,1.700000X2.500000*%
G04 APERTURE END LIST*
D10*
%TO.C,U15*%
X58503600Y-52639300D03*
X56668600Y-52639300D03*
X59421100Y-53556800D03*
X57586100Y-53556800D03*
X55751100Y-53556800D03*
X58503600Y-54474300D03*
X56668600Y-54474300D03*
X59421100Y-55391800D03*
X57586100Y-55391800D03*
X55751100Y-55391800D03*
X58503600Y-56309300D03*
X56668600Y-56309300D03*
D11*
X59421100Y-52639300D03*
X57586100Y-52639300D03*
X55751100Y-52639300D03*
X59421100Y-54474300D03*
X57586100Y-54474300D03*
X55751100Y-54474300D03*
X59421100Y-56309300D03*
X57586100Y-56309300D03*
X55751100Y-56309300D03*
D12*
X48086100Y-61974300D03*
X48086100Y-60704300D03*
X48086100Y-59434300D03*
X48086100Y-58164300D03*
X48086100Y-56894300D03*
X48086100Y-55624300D03*
X48086100Y-54354300D03*
X48086100Y-53084300D03*
X48086100Y-51814300D03*
X48086100Y-50544300D03*
X48086100Y-49274300D03*
X48086100Y-48004300D03*
X48086100Y-46734300D03*
X48086100Y-45464300D03*
D13*
X50871100Y-44464300D03*
X52141100Y-44464300D03*
X53411100Y-44464300D03*
X54681100Y-44464300D03*
X55951100Y-44464300D03*
X57221100Y-44464300D03*
X58491100Y-44464300D03*
X59761100Y-44464300D03*
X61031100Y-44464300D03*
X62301100Y-44464300D03*
D12*
X65086100Y-45464300D03*
X65086100Y-46734300D03*
X65086100Y-48004300D03*
X65086100Y-49274300D03*
X65086100Y-50544300D03*
X65086100Y-51814300D03*
X65086100Y-53084300D03*
X65086100Y-54354300D03*
X65086100Y-55624300D03*
X65086100Y-56894300D03*
X65086100Y-58164300D03*
X65086100Y-59434300D03*
X65086100Y-60704300D03*
X65086100Y-61974300D03*
%TD*%
D14*
%TO.C,U7*%
X64474150Y-31005000D03*
X64474150Y-29735000D03*
X64474150Y-28465000D03*
X64474150Y-27195000D03*
X59025850Y-27195000D03*
X59025850Y-28465000D03*
X59025850Y-29735000D03*
X59025850Y-31005000D03*
%TD*%
D15*
%TO.C,J8*%
X30400000Y-29300000D03*
D16*
X35400000Y-29300000D03*
X40400000Y-29300000D03*
%TD*%
D17*
%TO.C,D5*%
X114525000Y-35350000D03*
X114525000Y-37250000D03*
X116400000Y-36300000D03*
%TD*%
D18*
%TO.C,C15*%
X53750000Y-103975000D03*
X53750000Y-105525000D03*
%TD*%
D19*
%TO.C,U3*%
X39934300Y-64215700D03*
X38664300Y-64215700D03*
X37394300Y-64215700D03*
X36124300Y-64215700D03*
X34854300Y-64215700D03*
X33584300Y-64215700D03*
X32314300Y-64215700D03*
X31044300Y-64215700D03*
X31044300Y-69165700D03*
X32314300Y-69165700D03*
X33584300Y-69165700D03*
X34854300Y-69165700D03*
X36124300Y-69165700D03*
X37394300Y-69165700D03*
X38664300Y-69165700D03*
X39934300Y-69165700D03*
%TD*%
D20*
%TO.C,C7*%
X108750000Y-33550000D03*
X108750000Y-35450000D03*
%TD*%
D18*
%TO.C,C33*%
X98000000Y-103725000D03*
X98000000Y-105275000D03*
%TD*%
D21*
%TO.C,IC1*%
X101450000Y-33650000D03*
X103750000Y-33650000D03*
X106050000Y-33650000D03*
D22*
X103750000Y-27350000D03*
%TD*%
D23*
%TO.C,U10*%
X102900000Y-102450000D03*
X104200000Y-102450000D03*
X105500000Y-102450000D03*
X102900000Y-101150000D03*
X104200000Y-101150000D03*
X105500000Y-101150000D03*
D24*
X106105000Y-104675000D03*
X104835000Y-104675000D03*
X103565000Y-104675000D03*
X102295000Y-104675000D03*
X102295000Y-98925000D03*
X103565000Y-98925000D03*
X104835000Y-98925000D03*
X106105000Y-98925000D03*
D25*
X104200000Y-101800000D03*
%TD*%
D26*
%TO.C,C47*%
X146700000Y-90814434D03*
X146700000Y-85214434D03*
%TD*%
%TO.C,C37*%
X64733332Y-90814434D03*
X64733332Y-85214434D03*
%TD*%
D27*
%TO.C, *%
X23500000Y-23500000D03*
%TD*%
D28*
%TO.C,L1*%
X139803375Y-55650000D03*
X139803375Y-45750000D03*
%TD*%
D29*
%TO.C,J7*%
X71610000Y-48200000D03*
D30*
X74150000Y-48200000D03*
X76690000Y-48200000D03*
X79230000Y-48200000D03*
X81770000Y-48200000D03*
X84310000Y-48200000D03*
%TD*%
D31*
%TO.C,R3*%
X116700000Y-59800000D03*
X115050000Y-59800000D03*
%TD*%
D32*
%TO.C,R4*%
X67684300Y-59140700D03*
X67684300Y-57490700D03*
%TD*%
D17*
%TO.C,D8*%
X120575000Y-41550000D03*
X120575000Y-43450000D03*
X122450000Y-42500000D03*
%TD*%
D15*
%TO.C,KF3*%
X157365000Y-27595000D03*
X157365000Y-35215000D03*
D16*
X152285000Y-27595000D03*
X152285000Y-35215000D03*
X147205000Y-27595000D03*
X147205000Y-35215000D03*
X142125000Y-27595000D03*
X142125000Y-35215000D03*
X137045000Y-27595000D03*
X137045000Y-35215000D03*
X131965000Y-27595000D03*
X131965000Y-35215000D03*
%TD*%
D29*
%TO.C,J3*%
X48800000Y-34825000D03*
D30*
X48800000Y-32285000D03*
%TD*%
D21*
%TO.C,IC4*%
X88950000Y-33837500D03*
X91250000Y-33837500D03*
X93550000Y-33837500D03*
D22*
X91250000Y-27537500D03*
%TD*%
D18*
%TO.C,C11*%
X70184300Y-60790700D03*
X70184300Y-62340700D03*
%TD*%
D20*
%TO.C,C14*%
X96000000Y-33600000D03*
X96000000Y-35500000D03*
%TD*%
D33*
%TO.C,J2*%
X78000000Y-114457200D03*
X82000000Y-114457200D03*
X86000000Y-114457200D03*
X90000000Y-114457200D03*
X94000000Y-114457200D03*
X98000000Y-114457200D03*
X102000000Y-114457200D03*
X106000000Y-114457200D03*
X80000000Y-118457200D03*
X84000000Y-118457200D03*
X88000000Y-118457200D03*
X92000000Y-118457200D03*
X96000000Y-118457200D03*
X100000000Y-118457200D03*
X104000000Y-118457200D03*
X78000000Y-122457200D03*
X82000000Y-122457200D03*
X86000000Y-122457200D03*
X90000000Y-122457200D03*
X94000000Y-122457200D03*
X98000000Y-122457200D03*
X102000000Y-122457200D03*
X106000000Y-122457200D03*
D34*
X71500000Y-118957200D03*
X112500000Y-118957200D03*
%TD*%
D35*
%TO.C,J9*%
X101050000Y-57575000D03*
X100050000Y-57575000D03*
X99050000Y-57575000D03*
X98050000Y-57575000D03*
D36*
X102350000Y-60100000D03*
X96750000Y-60100000D03*
%TD*%
D17*
%TO.C,D6*%
X114584586Y-41640414D03*
X114584586Y-43540414D03*
X116459586Y-42590414D03*
%TD*%
%TO.C,D7*%
X120625000Y-35250000D03*
X120625000Y-37150000D03*
X122500000Y-36200000D03*
%TD*%
D27*
%TO.C, *%
X161500000Y-23500000D03*
%TD*%
D37*
%TO.C,R28*%
X98525000Y-54450000D03*
X100175000Y-54450000D03*
%TD*%
D23*
%TO.C,U5*%
X57900000Y-102300000D03*
X59200000Y-102300000D03*
X60500000Y-102300000D03*
X57900000Y-101000000D03*
X59200000Y-101000000D03*
X60500000Y-101000000D03*
D24*
X61105000Y-104525000D03*
X59835000Y-104525000D03*
X58565000Y-104525000D03*
X57295000Y-104525000D03*
X57295000Y-98775000D03*
X58565000Y-98775000D03*
X59835000Y-98775000D03*
X61105000Y-98775000D03*
D25*
X59200000Y-101650000D03*
%TD*%
D38*
%TO.C,U6*%
X93637500Y-68775000D03*
X93637500Y-69425000D03*
X93637500Y-70075000D03*
X93637500Y-70725000D03*
X93637500Y-71375000D03*
X93637500Y-72025000D03*
X93637500Y-72675000D03*
X93637500Y-73325000D03*
X93637500Y-73975000D03*
X93637500Y-74625000D03*
X93637500Y-75275000D03*
X93637500Y-75925000D03*
X93637500Y-76575000D03*
X93637500Y-77225000D03*
X99362500Y-77225000D03*
X99362500Y-76575000D03*
X99362500Y-75925000D03*
X99362500Y-75275000D03*
X99362500Y-74625000D03*
X99362500Y-73975000D03*
X99362500Y-73325000D03*
X99362500Y-72675000D03*
X99362500Y-72025000D03*
X99362500Y-71375000D03*
X99362500Y-70725000D03*
X99362500Y-70075000D03*
X99362500Y-69425000D03*
X99362500Y-68775000D03*
%TD*%
D26*
%TO.C,C16*%
X53000000Y-90800000D03*
X53000000Y-85200000D03*
%TD*%
D37*
%TO.C,R2*%
X28784300Y-43815700D03*
X30434300Y-43815700D03*
%TD*%
D18*
%TO.C,C1*%
X41750000Y-103950000D03*
X41750000Y-105500000D03*
%TD*%
D26*
%TO.C,C39*%
X100200000Y-90814434D03*
X100200000Y-85214434D03*
%TD*%
D39*
%TO.C,J1*%
X26934300Y-63715700D03*
X26934300Y-64365700D03*
X26934300Y-65015700D03*
X26934300Y-65665700D03*
X26934300Y-66315700D03*
D40*
X27184300Y-62215700D03*
D41*
X27184300Y-67815700D03*
X25034300Y-65015700D03*
%TD*%
D42*
%TO.C,U16*%
X117800000Y-48900000D03*
X117800000Y-48400000D03*
X117800000Y-47900000D03*
X117800000Y-47400000D03*
X117800000Y-46900000D03*
X113500000Y-46900000D03*
X113500000Y-47400000D03*
X113500000Y-47900000D03*
X113500000Y-48400000D03*
X113500000Y-48900000D03*
%TD*%
D43*
%TO.C,J5*%
X37750000Y-111750000D03*
%TD*%
D44*
%TO.C,C5*%
X103750000Y-37250000D03*
X102200000Y-37250000D03*
%TD*%
D23*
%TO.C,U2*%
X46300000Y-102450000D03*
X47600000Y-102450000D03*
X48900000Y-102450000D03*
X46300000Y-101150000D03*
X47600000Y-101150000D03*
X48900000Y-101150000D03*
D24*
X49505000Y-104675000D03*
X48235000Y-104675000D03*
X46965000Y-104675000D03*
X45695000Y-104675000D03*
X45695000Y-98925000D03*
X46965000Y-98925000D03*
X48235000Y-98925000D03*
X49505000Y-98925000D03*
D25*
X47600000Y-101800000D03*
%TD*%
D20*
%TO.C,C8*%
X135303375Y-60050000D03*
X135303375Y-61950000D03*
%TD*%
D45*
%TO.C,U1*%
X32434300Y-43795700D03*
X32434300Y-46335700D03*
X41434300Y-46335700D03*
X41434300Y-43795700D03*
%TD*%
D23*
%TO.C,U8*%
X69633332Y-102450000D03*
X70933332Y-102450000D03*
X72233332Y-102450000D03*
X69633332Y-101150000D03*
X70933332Y-101150000D03*
X72233332Y-101150000D03*
D24*
X72838332Y-104675000D03*
X71568332Y-104675000D03*
X70298332Y-104675000D03*
X69028332Y-104675000D03*
X69028332Y-98925000D03*
X70298332Y-98925000D03*
X71568332Y-98925000D03*
X72838332Y-98925000D03*
D25*
X70933332Y-101800000D03*
%TD*%
D37*
%TO.C,R5*%
X45925000Y-65750000D03*
X47575000Y-65750000D03*
%TD*%
%TO.C,R6*%
X45925000Y-68750000D03*
X47575000Y-68750000D03*
%TD*%
D26*
%TO.C,C46*%
X135400000Y-90814434D03*
X135400000Y-85214434D03*
%TD*%
D46*
%TO.C,R7*%
X48850000Y-27225000D03*
X48850000Y-28875000D03*
%TD*%
D45*
%TO.C,U4*%
X32434300Y-50795700D03*
X32434300Y-53335700D03*
X41434300Y-53335700D03*
X41434300Y-50795700D03*
%TD*%
D47*
%TO.C,IC2*%
X130503375Y-57163250D03*
X128803375Y-57163250D03*
X127103375Y-57163250D03*
X125403375Y-57163250D03*
X123703375Y-57163250D03*
D48*
X127103375Y-66793250D03*
%TD*%
D18*
%TO.C,C43*%
X148300000Y-103725000D03*
X148300000Y-105275000D03*
%TD*%
%TO.C,C41*%
X123100000Y-103725000D03*
X123100000Y-105275000D03*
%TD*%
D31*
%TO.C,R26*%
X107725000Y-48150000D03*
X106075000Y-48150000D03*
%TD*%
D18*
%TO.C,C9*%
X67434300Y-60790700D03*
X67434300Y-62340700D03*
%TD*%
%TO.C,C3*%
X41934300Y-69340700D03*
X41934300Y-70890700D03*
%TD*%
D49*
%TO.C,IC3*%
X103992000Y-50900000D03*
X103992000Y-51400000D03*
X103992000Y-51900000D03*
X103992000Y-52400000D03*
X107142000Y-52400000D03*
X107142000Y-51900000D03*
X107142000Y-51400000D03*
X107142000Y-50900000D03*
%TD*%
D37*
%TO.C,R27*%
X98725000Y-51550000D03*
X100375000Y-51550000D03*
%TD*%
D50*
%TO.C,D1*%
X115050000Y-64500000D03*
X116625000Y-64500000D03*
%TD*%
D32*
%TO.C,R25*%
X110500000Y-52925000D03*
X110500000Y-51275000D03*
%TD*%
D51*
%TO.C,C31*%
X99575000Y-66900000D03*
X101125000Y-66900000D03*
%TD*%
D26*
%TO.C,C44*%
X111800000Y-90814434D03*
X111800000Y-85214434D03*
%TD*%
D46*
%TO.C,R24*%
X110500000Y-48150000D03*
X110500000Y-49800000D03*
%TD*%
D26*
%TO.C,C45*%
X124500000Y-90814434D03*
X124500000Y-85214434D03*
%TD*%
D29*
%TO.C,J10*%
X71610000Y-27880000D03*
D30*
X74150000Y-27880000D03*
X76690000Y-27880000D03*
X79230000Y-27880000D03*
X81770000Y-27880000D03*
X84310000Y-27880000D03*
%TD*%
D20*
%TO.C,C4*%
X44134300Y-75265700D03*
X44134300Y-77165700D03*
%TD*%
D27*
%TO.C, *%
X23500000Y-124500000D03*
%TD*%
D43*
%TO.C,J6*%
X30150000Y-81550000D03*
%TD*%
D18*
%TO.C,C48*%
X115900000Y-50650000D03*
X115900000Y-52200000D03*
%TD*%
D52*
%TO.C,Q1*%
X32339300Y-72253200D03*
X30439300Y-72253200D03*
X31389300Y-74128200D03*
%TD*%
D53*
%TO.C,C12*%
X155303375Y-45500000D03*
X155303375Y-53900000D03*
%TD*%
D46*
%TO.C,R22*%
X102600000Y-68450000D03*
X102600000Y-70100000D03*
%TD*%
D26*
%TO.C,C38*%
X76400000Y-90814434D03*
X76400000Y-85214434D03*
%TD*%
D51*
%TO.C,C17*%
X58250850Y-33295000D03*
X59800850Y-33295000D03*
%TD*%
D37*
%TO.C,R1*%
X28784300Y-50835700D03*
X30434300Y-50835700D03*
%TD*%
D18*
%TO.C,C40*%
X110900000Y-103825000D03*
X110900000Y-105375000D03*
%TD*%
D54*
%TO.C,D3*%
X155403375Y-61300000D03*
D55*
X155403375Y-69500000D03*
%TD*%
D23*
%TO.C,U11*%
X115575000Y-102450000D03*
X116875000Y-102450000D03*
X118175000Y-102450000D03*
X115575000Y-101150000D03*
X116875000Y-101150000D03*
X118175000Y-101150000D03*
D24*
X118780000Y-104675000D03*
X117510000Y-104675000D03*
X116240000Y-104675000D03*
X114970000Y-104675000D03*
X114970000Y-98925000D03*
X116240000Y-98925000D03*
X117510000Y-98925000D03*
X118780000Y-98925000D03*
D25*
X116875000Y-101800000D03*
%TD*%
D18*
%TO.C,C42*%
X135900000Y-103625000D03*
X135900000Y-105175000D03*
%TD*%
D56*
%TO.C,C6*%
X70434300Y-59090700D03*
X70434300Y-57540700D03*
%TD*%
D52*
%TO.C,Q2*%
X38439300Y-72453200D03*
X36539300Y-72453200D03*
X37489300Y-74328200D03*
%TD*%
D23*
%TO.C,U9*%
X81300000Y-102450000D03*
X82600000Y-102450000D03*
X83900000Y-102450000D03*
X81300000Y-101150000D03*
X82600000Y-101150000D03*
X83900000Y-101150000D03*
D24*
X84505000Y-104675000D03*
X83235000Y-104675000D03*
X81965000Y-104675000D03*
X80695000Y-104675000D03*
X80695000Y-98925000D03*
X81965000Y-98925000D03*
X83235000Y-98925000D03*
X84505000Y-98925000D03*
D25*
X82600000Y-101800000D03*
%TD*%
D23*
%TO.C,U12*%
X128250000Y-102450000D03*
X129550000Y-102450000D03*
X130850000Y-102450000D03*
X128250000Y-101150000D03*
X129550000Y-101150000D03*
X130850000Y-101150000D03*
D24*
X131455000Y-104675000D03*
X130185000Y-104675000D03*
X128915000Y-104675000D03*
X127645000Y-104675000D03*
X127645000Y-98925000D03*
X128915000Y-98925000D03*
X130185000Y-98925000D03*
X131455000Y-98925000D03*
D25*
X129550000Y-101800000D03*
%TD*%
D57*
%TO.C,D2*%
X129803375Y-52000000D03*
X129803375Y-48000000D03*
%TD*%
D18*
%TO.C,C35*%
X76300000Y-103625000D03*
X76300000Y-105175000D03*
%TD*%
D27*
%TO.C, *%
X161500000Y-124500000D03*
%TD*%
D26*
%TO.C,C2*%
X41400000Y-90814434D03*
X41400000Y-85214434D03*
%TD*%
D58*
%TO.C,F1*%
X31250000Y-91000000D03*
D59*
X31250000Y-94700000D03*
X31250000Y-99000000D03*
X31250000Y-102700000D03*
%TD*%
D18*
%TO.C,C34*%
X64800000Y-103725000D03*
X64800000Y-105275000D03*
%TD*%
D23*
%TO.C,U13*%
X140925000Y-102450000D03*
X142225000Y-102450000D03*
X143525000Y-102450000D03*
X140925000Y-101150000D03*
X142225000Y-101150000D03*
X143525000Y-101150000D03*
D24*
X144130000Y-104675000D03*
X142860000Y-104675000D03*
X141590000Y-104675000D03*
X140320000Y-104675000D03*
X140320000Y-98925000D03*
X141590000Y-98925000D03*
X142860000Y-98925000D03*
X144130000Y-98925000D03*
D25*
X142225000Y-101800000D03*
%TD*%
D53*
%TO.C,C10*%
X143303375Y-61300000D03*
X143303375Y-69700000D03*
%TD*%
D44*
%TO.C,C13*%
X90575000Y-37337500D03*
X89025000Y-37337500D03*
%TD*%
D23*
%TO.C,U14*%
X153600000Y-102450000D03*
X154900000Y-102450000D03*
X156200000Y-102450000D03*
X153600000Y-101150000D03*
X154900000Y-101150000D03*
X156200000Y-101150000D03*
D24*
X156805000Y-104675000D03*
X155535000Y-104675000D03*
X154265000Y-104675000D03*
X152995000Y-104675000D03*
X152995000Y-98925000D03*
X154265000Y-98925000D03*
X155535000Y-98925000D03*
X156805000Y-98925000D03*
D25*
X154900000Y-101800000D03*
%TD*%
D60*
%TO.C,D4*%
X26684300Y-54565700D03*
X26684300Y-58565700D03*
%TD*%
M02*
