M48
; DRILL file {KiCad 7.0.9} date Wed Jan 10 08:13:28 2024
; FORMAT={-:-/ absolute / inch / decimal}
; #@! TF.CreationDate,2024-01-10T08:13:28-06:00
; #@! TF.GenerationSoftware,Kicad,Pcbnew,7.0.9
; #@! TF.FileFunction,Plated,1,2,PTH
FMAT,2
INCH
; #@! TA.AperFunction,Plated,PTH,ComponentDrill
T1C0.0100
; #@! TA.AperFunction,Plated,PTH,ComponentDrill
T2C0.0130
; #@! TA.AperFunction,Plated,PTH,ViaDrill
T3C0.0157
; #@! TA.AperFunction,Plated,PTH,ComponentDrill
T4C0.0197
; #@! TA.AperFunction,Plated,PTH,ComponentDrill
T5C0.0394
; #@! TA.AperFunction,Plated,PTH,ComponentDrill
T6C0.0512
; #@! TA.AperFunction,Plated,PTH,ComponentDrill
T7C0.0689
; #@! TA.AperFunction,Plated,PTH,ComponentDrill
T8C0.1154
; #@! TA.AperFunction,Plated,PTH,ComponentDrill
T9C0.1890
%
G90
G05
T1
X2.1949Y-2.1085
X2.1949Y-2.1808
X2.231Y-2.0724
X2.231Y-2.1447
X2.231Y-2.2169
X2.2672Y-2.1085
X2.2672Y-2.1808
X2.3033Y-2.0724
X2.3033Y-2.1447
X2.3033Y-2.2169
X2.3394Y-2.1085
X2.3394Y-2.1808
T2
X1.8228Y-3.9823
X1.8228Y-4.0335
X1.874Y-3.9823
X1.874Y-4.0335
X1.9252Y-3.9823
X1.9252Y-4.0335
X2.2795Y-3.9764
X2.2795Y-4.0276
X2.3307Y-3.9764
X2.3307Y-4.0276
X2.3819Y-3.9764
X2.3819Y-4.0276
X2.7415Y-3.9823
X2.7415Y-4.0335
X2.7927Y-3.9823
X2.7927Y-4.0335
X2.8438Y-3.9823
X2.8438Y-4.0335
X3.2008Y-3.9823
X3.2008Y-4.0335
X3.252Y-3.9823
X3.252Y-4.0335
X3.3031Y-3.9823
X3.3031Y-4.0335
X4.0512Y-3.9823
X4.0512Y-4.0335
X4.1024Y-3.9823
X4.1024Y-4.0335
X4.1535Y-3.9823
X4.1535Y-4.0335
X4.5502Y-3.9823
X4.5502Y-4.0335
X4.6014Y-3.9823
X4.6014Y-4.0335
X4.6526Y-3.9823
X4.6526Y-4.0335
X5.0492Y-3.9823
X5.0492Y-4.0335
X5.1004Y-3.9823
X5.1004Y-4.0335
X5.1516Y-3.9823
X5.1516Y-4.0335
X5.5482Y-3.9823
X5.5482Y-4.0335
X5.5994Y-3.9823
X5.5994Y-4.0335
X5.6506Y-3.9823
X5.6506Y-4.0335
X6.0472Y-3.9823
X6.0472Y-4.0335
X6.0984Y-3.9823
X6.0984Y-4.0335
X6.1496Y-3.9823
X6.1496Y-4.0335
T3
X1.0433Y-1.6535
X1.0506Y-2.0498
X1.2376Y-1.9022
X1.2671Y-2.1778
X1.584Y-2.8038
X1.5874Y-2.4575
X1.6313Y-1.9022
X1.6313Y-2.1876
X1.6339Y-3.248
X1.6437Y-4.2028
X1.6508Y-2.3261
X1.6814Y-2.2891
X1.6903Y-1.7841
X1.6903Y-1.9809
X1.7173Y-2.7413
X1.7244Y-3.8563
X1.7376Y-3.103
X1.7395Y-1.6857
X1.7812Y-2.2683
X1.7848Y-2.3313
X1.8012Y-3.3858
X1.811Y-2.7559
X1.8183Y-1.8924
X1.8183Y-1.9416
X1.8209Y-2.4409
X1.8504Y-3.3957
X1.8504Y-3.8228
X1.8799Y-1.6831
X1.8947Y-2.8298
X1.8976Y-3.8228
X1.8996Y-3.3957
X1.9783Y-2.6476
X1.9882Y-1.6378
X2.0177Y-2.5886
X2.0591Y-1.6575
X2.1102Y-3.2461
X2.1161Y-4.2028
X2.1181Y-1.6594
X2.1319Y-1.5217
X2.1654Y-2.6378
X2.185Y-1.5217
X2.1929Y-3.8898
X2.1949Y-2.6083
X2.2559Y-1.0492
X2.3031Y-3.3858
X2.3031Y-3.8189
X2.3071Y-1.5245
X2.3524Y-3.3858
X2.3524Y-3.8189
X2.412Y-1.2888
X2.4298Y-1.5567
X2.4685Y-1.6693
X2.5368Y-2.5124
X2.5512Y-3.2486
X2.5551Y-4.1969
X2.5591Y-1.6831
X2.6496Y-3.8937
X2.6549Y-2.5124
X2.6772Y-2.6673
X2.7362Y-2.6673
X2.7632Y-2.5124
X2.7657Y-3.3957
X2.7657Y-3.8189
X2.773Y-2.2073
X2.815Y-3.3957
X2.815Y-3.8189
X2.8543Y-2.6673
X2.9029Y-2.3451
X2.9331Y-2.6673
X2.9541Y-2.3451
X3.002Y-4.1929
X3.0092Y-2.3425
X3.0143Y-3.2653
X3.061Y-2.3425
X3.1181Y-3.8937
X3.2185Y-3.4154
X3.2283Y-3.8189
X3.2677Y-3.4154
X3.2756Y-3.8189
X3.4094Y-2.3169
X3.4173Y-1.3125
X3.4173Y-1.3519
X3.437Y-1.47
X3.6063Y-2.7244
X3.6063Y-2.7913
X3.6811Y-3.126
X3.6831Y-2.6378
X3.7481Y-2.7382
X3.7561Y-2.6319
X3.7795Y-1.4665
X3.8081Y-2.4419
X3.8209Y-2.4812
X3.8484Y-2.7027
X3.8543Y-4.2008
X3.8681Y-3.2874
X3.9173Y-1.3091
X3.9173Y-1.3484
X3.9252Y-3.8937
X3.939Y-2.4783
X3.9656Y-1.4665
X3.9843Y-2.7264
X3.9843Y-2.7992
X4.0295Y-2.5925
X4.0315Y-2.4508
X4.0748Y-3.8189
X4.0866Y-2.3071
X4.0945Y-1.9547
X4.126Y-3.8189
X4.127Y-3.4025
X4.1732Y-3.4055
X4.2815Y-1.4469
X4.3307Y-3.2874
X4.4094Y-3.8937
X4.4213Y-4.2008
X4.4327Y-1.3891
X4.4528Y-1.6437
X4.5156Y-2.622
X4.561Y-2.1063
X4.5699Y-3.4124
X4.5748Y-3.8189
X4.6161Y-3.4055
X4.626Y-3.8189
X4.6906Y-1.3959
X4.6949Y-1.9605
X4.6993Y-1.878
X4.7441Y-1.5906
X4.7521Y-2.6142
X4.756Y-2.7638
X4.8051Y-2.25
X4.8465Y-4.2047
X4.8871Y-3.2631
X4.9134Y-3.8937
X5.0175Y-2.1527
X5.0748Y-3.8189
X5.0768Y-3.4075
X5.1104Y-1.7992
X5.1181Y-3.4055
X5.126Y-3.8189
X5.2797Y-2.6181
X5.2797Y-2.7638
X5.3241Y-3.2474
X5.3269Y-2.5
X5.3504Y-4.2047
X5.4252Y-3.8937
X5.4921Y-4.9114
X5.5315Y-3.4055
X5.5748Y-3.8189
X5.5906Y-3.4154
X5.622Y-3.8189
X5.6419Y-2.8701
X5.7185Y-4.7933
X5.7756Y-3.2486
X5.8386Y-4.2047
X5.9134Y-3.8937
X5.9441Y-3.3359
X5.9744Y-3.3071
X6.0728Y-3.4941
X6.1132Y-3.4439
X6.1143Y-2.248
T5
X1.9213Y-1.2711
X1.9213Y-1.3711
X2.8193Y-1.0976
X2.8193Y-1.8976
X2.9193Y-1.0976
X2.9193Y-1.8976
X3.0193Y-1.0976
X3.0193Y-1.8976
X3.1193Y-1.0976
X3.1193Y-1.8976
X3.2193Y-1.0976
X3.2193Y-1.8976
X3.3193Y-1.0976
X3.3193Y-1.8976
T6
X1.1969Y-1.1535
X1.3937Y-1.1535
X1.5906Y-1.1535
X5.1955Y-1.0864
X5.1955Y-1.3864
X5.3955Y-1.0864
X5.3955Y-1.3864
X5.5955Y-1.0864
X5.5955Y-1.3864
X5.7955Y-1.0864
X5.7955Y-1.3864
X5.9955Y-1.0864
X5.9955Y-1.3864
X6.1955Y-1.0864
X6.1955Y-1.3864
T7
X3.0709Y-4.5062
X3.0709Y-4.8211
X3.1496Y-4.6637
X3.2283Y-4.5062
X3.2283Y-4.8211
X3.3071Y-4.6637
X3.3858Y-4.5062
X3.3858Y-4.8211
X3.4646Y-4.6637
X3.5433Y-4.5062
X3.5433Y-4.8211
X3.622Y-4.6637
X3.7008Y-4.5062
X3.7008Y-4.8211
X3.7795Y-4.6637
X3.8583Y-4.5062
X3.8583Y-4.8211
X3.937Y-4.6637
X4.0157Y-4.5062
X4.0157Y-4.8211
X4.0945Y-4.6637
X4.1732Y-4.5062
X4.1732Y-4.8211
T8
X2.815Y-4.6834
X4.4291Y-4.6834
T9
X1.187Y-3.2106
X1.4862Y-4.3996
T4
G00X0.9856Y-2.538
M15
G01X0.9856Y-2.5813
M16
G05
G00X1.0702Y-2.4357
M15
G01X1.0702Y-2.4632
M16
G05
G00X1.0702Y-2.6561
M15
G01X1.0702Y-2.6837
M16
G05
G00X1.2028Y-3.5827
M15
G01X1.2579Y-3.5827
M16
G05
G00X1.2028Y-3.7283
M15
G01X1.2579Y-3.7283
M16
G05
G00X1.2028Y-3.8976
M15
G01X1.2579Y-3.8976
M16
G05
G00X1.2028Y-4.0433
M15
G01X1.2579Y-4.0433
M16
G05
T0
M30
