%TF.GenerationSoftware,KiCad,Pcbnew,7.0.9*%
%TF.CreationDate,2024-01-10T08:13:28-06:00*%
%TF.ProjectId,RC15,52433135-2e6b-4696-9361-645f70636258,rev?*%
%TF.SameCoordinates,Original*%
%TF.FileFunction,Paste,Top*%
%TF.FilePolarity,Positive*%
%FSLAX46Y46*%
G04 Gerber Fmt 4.6, Leading zero omitted, Abs format (unit mm)*
G04 Created by KiCad (PCBNEW 7.0.9) date 2024-01-10 08:13:28*
%MOMM*%
%LPD*%
G01*
G04 APERTURE LIST*
G04 Aperture macros list*
%AMRoundRect*
0 Rectangle with rounded corners*
0 $1 Rounding radius*
0 $2 $3 $4 $5 $6 $7 $8 $9 X,Y pos of 4 corners*
0 Add a 4 corners polygon primitive as box body*
4,1,4,$2,$3,$4,$5,$6,$7,$8,$9,$2,$3,0*
0 Add four circle primitives for the rounded corners*
1,1,$1+$1,$2,$3*
1,1,$1+$1,$4,$5*
1,1,$1+$1,$6,$7*
1,1,$1+$1,$8,$9*
0 Add four rect primitives between the rounded corners*
20,1,$1+$1,$2,$3,$4,$5,0*
20,1,$1+$1,$4,$5,$6,$7,0*
20,1,$1+$1,$6,$7,$8,$9,0*
20,1,$1+$1,$8,$9,$2,$3,0*%
G04 Aperture macros list end*
%ADD10C,0.010000*%
%ADD11R,1.330000X1.330000*%
%ADD12R,2.000000X0.900000*%
%ADD13R,0.900000X2.000000*%
%ADD14R,1.460500X0.533400*%
%ADD15RoundRect,0.150000X-0.587500X-0.150000X0.587500X-0.150000X0.587500X0.150000X-0.587500X0.150000X0*%
%ADD16RoundRect,0.225000X-0.250000X0.225000X-0.250000X-0.225000X0.250000X-0.225000X0.250000X0.225000X0*%
%ADD17RoundRect,0.150000X-0.150000X0.825000X-0.150000X-0.825000X0.150000X-0.825000X0.150000X0.825000X0*%
%ADD18RoundRect,0.250000X-0.475000X0.250000X-0.475000X-0.250000X0.475000X-0.250000X0.475000X0.250000X0*%
%ADD19R,1.500000X2.000000*%
%ADD20R,3.800000X2.000000*%
%ADD21R,0.500000X2.200000*%
%ADD22R,3.100000X2.400000*%
%ADD23RoundRect,0.250000X0.550000X-1.500000X0.550000X1.500000X-0.550000X1.500000X-0.550000X-1.500000X0*%
%ADD24R,5.400000X2.900000*%
%ADD25RoundRect,0.200000X0.200000X0.275000X-0.200000X0.275000X-0.200000X-0.275000X0.200000X-0.275000X0*%
%ADD26RoundRect,0.200000X0.275000X-0.200000X0.275000X0.200000X-0.275000X0.200000X-0.275000X-0.200000X0*%
%ADD27RoundRect,0.150000X0.150000X0.625000X-0.150000X0.625000X-0.150000X-0.625000X0.150000X-0.625000X0*%
%ADD28RoundRect,0.250000X0.350000X0.650000X-0.350000X0.650000X-0.350000X-0.650000X0.350000X-0.650000X0*%
%ADD29RoundRect,0.200000X-0.200000X-0.275000X0.200000X-0.275000X0.200000X0.275000X-0.200000X0.275000X0*%
%ADD30RoundRect,0.100000X-0.637500X-0.100000X0.637500X-0.100000X0.637500X0.100000X-0.637500X0.100000X0*%
%ADD31R,1.500000X0.450000*%
%ADD32R,1.100000X0.250000*%
%ADD33RoundRect,0.225000X0.225000X0.250000X-0.225000X0.250000X-0.225000X-0.250000X0.225000X-0.250000X0*%
%ADD34R,1.300000X1.500000*%
%ADD35RoundRect,0.200000X-0.275000X0.200000X-0.275000X-0.200000X0.275000X-0.200000X0.275000X0.200000X0*%
%ADD36R,1.050000X3.210000*%
%ADD37R,0.850000X0.300000*%
%ADD38RoundRect,0.218750X-0.218750X-0.256250X0.218750X-0.256250X0.218750X0.256250X-0.218750X0.256250X0*%
%ADD39RoundRect,0.225000X-0.225000X-0.250000X0.225000X-0.250000X0.225000X0.250000X-0.225000X0.250000X0*%
%ADD40RoundRect,0.150000X-0.150000X0.587500X-0.150000X-0.587500X0.150000X-0.587500X0.150000X0.587500X0*%
%ADD41RoundRect,0.250000X-1.000000X1.950000X-1.000000X-1.950000X1.000000X-1.950000X1.000000X1.950000X0*%
%ADD42RoundRect,1.025000X-1.025000X-1.125000X1.025000X-1.125000X1.025000X1.125000X-1.025000X1.125000X0*%
%ADD43R,4.100000X4.300000*%
%ADD44RoundRect,0.225000X0.250000X-0.225000X0.250000X0.225000X-0.250000X0.225000X-0.250000X-0.225000X0*%
%ADD45R,1.800000X1.800000*%
%ADD46R,1.700000X2.500000*%
G04 APERTURE END LIST*
%TO.C,IC2*%
D10*
X132033375Y-64243250D02*
X130613375Y-64243250D01*
X130613375Y-62983250D01*
X132033375Y-62983250D01*
X132033375Y-64243250D01*
G36*
X132033375Y-64243250D02*
G01*
X130613375Y-64243250D01*
X130613375Y-62983250D01*
X132033375Y-62983250D01*
X132033375Y-64243250D01*
G37*
X129923375Y-64243250D02*
X128503375Y-64243250D01*
X128503375Y-62983250D01*
X129923375Y-62983250D01*
X129923375Y-64243250D01*
G36*
X129923375Y-64243250D02*
G01*
X128503375Y-64243250D01*
X128503375Y-62983250D01*
X129923375Y-62983250D01*
X129923375Y-64243250D01*
G37*
X127813375Y-64243250D02*
X126393375Y-64243250D01*
X126393375Y-62983250D01*
X127813375Y-62983250D01*
X127813375Y-64243250D01*
G36*
X127813375Y-64243250D02*
G01*
X126393375Y-64243250D01*
X126393375Y-62983250D01*
X127813375Y-62983250D01*
X127813375Y-64243250D01*
G37*
X125703375Y-64243250D02*
X124283375Y-64243250D01*
X124283375Y-62983250D01*
X125703375Y-62983250D01*
X125703375Y-64243250D01*
G36*
X125703375Y-64243250D02*
G01*
X124283375Y-64243250D01*
X124283375Y-62983250D01*
X125703375Y-62983250D01*
X125703375Y-64243250D01*
G37*
X123593375Y-64243250D02*
X122173375Y-64243250D01*
X122173375Y-62983250D01*
X123593375Y-62983250D01*
X123593375Y-64243250D01*
G36*
X123593375Y-64243250D02*
G01*
X122173375Y-64243250D01*
X122173375Y-62983250D01*
X123593375Y-62983250D01*
X123593375Y-64243250D01*
G37*
X132033375Y-66363250D02*
X130613375Y-66363250D01*
X130613375Y-65103250D01*
X132033375Y-65103250D01*
X132033375Y-66363250D01*
G36*
X132033375Y-66363250D02*
G01*
X130613375Y-66363250D01*
X130613375Y-65103250D01*
X132033375Y-65103250D01*
X132033375Y-66363250D01*
G37*
X129923375Y-66363250D02*
X128503375Y-66363250D01*
X128503375Y-65103250D01*
X129923375Y-65103250D01*
X129923375Y-66363250D01*
G36*
X129923375Y-66363250D02*
G01*
X128503375Y-66363250D01*
X128503375Y-65103250D01*
X129923375Y-65103250D01*
X129923375Y-66363250D01*
G37*
X127813375Y-66363250D02*
X126393375Y-66363250D01*
X126393375Y-65103250D01*
X127813375Y-65103250D01*
X127813375Y-66363250D01*
G36*
X127813375Y-66363250D02*
G01*
X126393375Y-66363250D01*
X126393375Y-65103250D01*
X127813375Y-65103250D01*
X127813375Y-66363250D01*
G37*
X125703375Y-66363250D02*
X124283375Y-66363250D01*
X124283375Y-65103250D01*
X125703375Y-65103250D01*
X125703375Y-66363250D01*
G36*
X125703375Y-66363250D02*
G01*
X124283375Y-66363250D01*
X124283375Y-65103250D01*
X125703375Y-65103250D01*
X125703375Y-66363250D01*
G37*
X123593375Y-66363250D02*
X122173375Y-66363250D01*
X122173375Y-65103250D01*
X123593375Y-65103250D01*
X123593375Y-66363250D01*
G36*
X123593375Y-66363250D02*
G01*
X122173375Y-66363250D01*
X122173375Y-65103250D01*
X123593375Y-65103250D01*
X123593375Y-66363250D01*
G37*
X132033375Y-68483250D02*
X130613375Y-68483250D01*
X130613375Y-67223250D01*
X132033375Y-67223250D01*
X132033375Y-68483250D01*
G36*
X132033375Y-68483250D02*
G01*
X130613375Y-68483250D01*
X130613375Y-67223250D01*
X132033375Y-67223250D01*
X132033375Y-68483250D01*
G37*
X129923375Y-68483250D02*
X128503375Y-68483250D01*
X128503375Y-67223250D01*
X129923375Y-67223250D01*
X129923375Y-68483250D01*
G36*
X129923375Y-68483250D02*
G01*
X128503375Y-68483250D01*
X128503375Y-67223250D01*
X129923375Y-67223250D01*
X129923375Y-68483250D01*
G37*
X127813375Y-68483250D02*
X126393375Y-68483250D01*
X126393375Y-67223250D01*
X127813375Y-67223250D01*
X127813375Y-68483250D01*
G36*
X127813375Y-68483250D02*
G01*
X126393375Y-68483250D01*
X126393375Y-67223250D01*
X127813375Y-67223250D01*
X127813375Y-68483250D01*
G37*
X125703375Y-68483250D02*
X124283375Y-68483250D01*
X124283375Y-67223250D01*
X125703375Y-67223250D01*
X125703375Y-68483250D01*
G36*
X125703375Y-68483250D02*
G01*
X124283375Y-68483250D01*
X124283375Y-67223250D01*
X125703375Y-67223250D01*
X125703375Y-68483250D01*
G37*
X123593375Y-68483250D02*
X122173375Y-68483250D01*
X122173375Y-67223250D01*
X123593375Y-67223250D01*
X123593375Y-68483250D01*
G36*
X123593375Y-68483250D02*
G01*
X122173375Y-68483250D01*
X122173375Y-67223250D01*
X123593375Y-67223250D01*
X123593375Y-68483250D01*
G37*
X132033375Y-70603250D02*
X130613375Y-70603250D01*
X130613375Y-69343250D01*
X132033375Y-69343250D01*
X132033375Y-70603250D01*
G36*
X132033375Y-70603250D02*
G01*
X130613375Y-70603250D01*
X130613375Y-69343250D01*
X132033375Y-69343250D01*
X132033375Y-70603250D01*
G37*
X129923375Y-70603250D02*
X128503375Y-70603250D01*
X128503375Y-69343250D01*
X129923375Y-69343250D01*
X129923375Y-70603250D01*
G36*
X129923375Y-70603250D02*
G01*
X128503375Y-70603250D01*
X128503375Y-69343250D01*
X129923375Y-69343250D01*
X129923375Y-70603250D01*
G37*
X127813375Y-70603250D02*
X126393375Y-70603250D01*
X126393375Y-69343250D01*
X127813375Y-69343250D01*
X127813375Y-70603250D01*
G36*
X127813375Y-70603250D02*
G01*
X126393375Y-70603250D01*
X126393375Y-69343250D01*
X127813375Y-69343250D01*
X127813375Y-70603250D01*
G37*
X125703375Y-70603250D02*
X124283375Y-70603250D01*
X124283375Y-69343250D01*
X125703375Y-69343250D01*
X125703375Y-70603250D01*
G36*
X125703375Y-70603250D02*
G01*
X124283375Y-70603250D01*
X124283375Y-69343250D01*
X125703375Y-69343250D01*
X125703375Y-70603250D01*
G37*
X123593375Y-70603250D02*
X122173375Y-70603250D01*
X122173375Y-69343250D01*
X123593375Y-69343250D01*
X123593375Y-70603250D01*
G36*
X123593375Y-70603250D02*
G01*
X122173375Y-70603250D01*
X122173375Y-69343250D01*
X123593375Y-69343250D01*
X123593375Y-70603250D01*
G37*
%TD*%
D11*
%TO.C,U15*%
X59421100Y-52639300D03*
X57586100Y-52639300D03*
X55751100Y-52639300D03*
X59421100Y-54474300D03*
X57586100Y-54474300D03*
X55751100Y-54474300D03*
X59421100Y-56309300D03*
X57586100Y-56309300D03*
X55751100Y-56309300D03*
D12*
X48086100Y-61974300D03*
X48086100Y-60704300D03*
X48086100Y-59434300D03*
X48086100Y-58164300D03*
X48086100Y-56894300D03*
X48086100Y-55624300D03*
X48086100Y-54354300D03*
X48086100Y-53084300D03*
X48086100Y-51814300D03*
X48086100Y-50544300D03*
X48086100Y-49274300D03*
X48086100Y-48004300D03*
X48086100Y-46734300D03*
X48086100Y-45464300D03*
D13*
X50871100Y-44464300D03*
X52141100Y-44464300D03*
X53411100Y-44464300D03*
X54681100Y-44464300D03*
X55951100Y-44464300D03*
X57221100Y-44464300D03*
X58491100Y-44464300D03*
X59761100Y-44464300D03*
X61031100Y-44464300D03*
X62301100Y-44464300D03*
D12*
X65086100Y-45464300D03*
X65086100Y-46734300D03*
X65086100Y-48004300D03*
X65086100Y-49274300D03*
X65086100Y-50544300D03*
X65086100Y-51814300D03*
X65086100Y-53084300D03*
X65086100Y-54354300D03*
X65086100Y-55624300D03*
X65086100Y-56894300D03*
X65086100Y-58164300D03*
X65086100Y-59434300D03*
X65086100Y-60704300D03*
X65086100Y-61974300D03*
%TD*%
D14*
%TO.C,U7*%
X64474150Y-31005000D03*
X64474150Y-29735000D03*
X64474150Y-28465000D03*
X64474150Y-27195000D03*
X59025850Y-27195000D03*
X59025850Y-28465000D03*
X59025850Y-29735000D03*
X59025850Y-31005000D03*
%TD*%
D15*
%TO.C,D5*%
X114525000Y-35350000D03*
X114525000Y-37250000D03*
X116400000Y-36300000D03*
%TD*%
D16*
%TO.C,C15*%
X53750000Y-103975000D03*
X53750000Y-105525000D03*
%TD*%
D17*
%TO.C,U3*%
X39934300Y-64215700D03*
X38664300Y-64215700D03*
X37394300Y-64215700D03*
X36124300Y-64215700D03*
X34854300Y-64215700D03*
X33584300Y-64215700D03*
X32314300Y-64215700D03*
X31044300Y-64215700D03*
X31044300Y-69165700D03*
X32314300Y-69165700D03*
X33584300Y-69165700D03*
X34854300Y-69165700D03*
X36124300Y-69165700D03*
X37394300Y-69165700D03*
X38664300Y-69165700D03*
X39934300Y-69165700D03*
%TD*%
D18*
%TO.C,C7*%
X108750000Y-33550000D03*
X108750000Y-35450000D03*
%TD*%
D16*
%TO.C,C33*%
X98000000Y-103725000D03*
X98000000Y-105275000D03*
%TD*%
D19*
%TO.C,IC1*%
X101450000Y-33650000D03*
X103750000Y-33650000D03*
X106050000Y-33650000D03*
D20*
X103750000Y-27350000D03*
%TD*%
D21*
%TO.C,U10*%
X106105000Y-104675000D03*
X104835000Y-104675000D03*
X103565000Y-104675000D03*
X102295000Y-104675000D03*
X102295000Y-98925000D03*
X103565000Y-98925000D03*
X104835000Y-98925000D03*
X106105000Y-98925000D03*
D22*
X104200000Y-101800000D03*
%TD*%
D23*
%TO.C,C47*%
X146700000Y-90814434D03*
X146700000Y-85214434D03*
%TD*%
%TO.C,C37*%
X64733332Y-90814434D03*
X64733332Y-85214434D03*
%TD*%
D24*
%TO.C,L1*%
X139803375Y-55650000D03*
X139803375Y-45750000D03*
%TD*%
D25*
%TO.C,R3*%
X116700000Y-59800000D03*
X115050000Y-59800000D03*
%TD*%
D26*
%TO.C,R4*%
X67684300Y-59140700D03*
X67684300Y-57490700D03*
%TD*%
D15*
%TO.C,D8*%
X120575000Y-41550000D03*
X120575000Y-43450000D03*
X122450000Y-42500000D03*
%TD*%
D19*
%TO.C,IC4*%
X88950000Y-33837500D03*
X91250000Y-33837500D03*
X93550000Y-33837500D03*
D20*
X91250000Y-27537500D03*
%TD*%
D16*
%TO.C,C11*%
X70184300Y-60790700D03*
X70184300Y-62340700D03*
%TD*%
D18*
%TO.C,C14*%
X96000000Y-33600000D03*
X96000000Y-35500000D03*
%TD*%
D27*
%TO.C,J9*%
X101050000Y-57575000D03*
X100050000Y-57575000D03*
X99050000Y-57575000D03*
X98050000Y-57575000D03*
D28*
X102350000Y-60100000D03*
X96750000Y-60100000D03*
%TD*%
D15*
%TO.C,D6*%
X114584586Y-41640414D03*
X114584586Y-43540414D03*
X116459586Y-42590414D03*
%TD*%
%TO.C,D7*%
X120625000Y-35250000D03*
X120625000Y-37150000D03*
X122500000Y-36200000D03*
%TD*%
D29*
%TO.C,R28*%
X98525000Y-54450000D03*
X100175000Y-54450000D03*
%TD*%
D21*
%TO.C,U5*%
X61105000Y-104525000D03*
X59835000Y-104525000D03*
X58565000Y-104525000D03*
X57295000Y-104525000D03*
X57295000Y-98775000D03*
X58565000Y-98775000D03*
X59835000Y-98775000D03*
X61105000Y-98775000D03*
D22*
X59200000Y-101650000D03*
%TD*%
D30*
%TO.C,U6*%
X93637500Y-68775000D03*
X93637500Y-69425000D03*
X93637500Y-70075000D03*
X93637500Y-70725000D03*
X93637500Y-71375000D03*
X93637500Y-72025000D03*
X93637500Y-72675000D03*
X93637500Y-73325000D03*
X93637500Y-73975000D03*
X93637500Y-74625000D03*
X93637500Y-75275000D03*
X93637500Y-75925000D03*
X93637500Y-76575000D03*
X93637500Y-77225000D03*
X99362500Y-77225000D03*
X99362500Y-76575000D03*
X99362500Y-75925000D03*
X99362500Y-75275000D03*
X99362500Y-74625000D03*
X99362500Y-73975000D03*
X99362500Y-73325000D03*
X99362500Y-72675000D03*
X99362500Y-72025000D03*
X99362500Y-71375000D03*
X99362500Y-70725000D03*
X99362500Y-70075000D03*
X99362500Y-69425000D03*
X99362500Y-68775000D03*
%TD*%
D23*
%TO.C,C16*%
X53000000Y-90800000D03*
X53000000Y-85200000D03*
%TD*%
D29*
%TO.C,R2*%
X28784300Y-43815700D03*
X30434300Y-43815700D03*
%TD*%
D16*
%TO.C,C1*%
X41750000Y-103950000D03*
X41750000Y-105500000D03*
%TD*%
D23*
%TO.C,C39*%
X100200000Y-90814434D03*
X100200000Y-85214434D03*
%TD*%
D31*
%TO.C,J1*%
X26934300Y-63715700D03*
X26934300Y-64365700D03*
X26934300Y-65015700D03*
X26934300Y-65665700D03*
X26934300Y-66315700D03*
%TD*%
D32*
%TO.C,U16*%
X117800000Y-48900000D03*
X117800000Y-48400000D03*
X117800000Y-47900000D03*
X117800000Y-47400000D03*
X117800000Y-46900000D03*
X113500000Y-46900000D03*
X113500000Y-47400000D03*
X113500000Y-47900000D03*
X113500000Y-48400000D03*
X113500000Y-48900000D03*
%TD*%
D33*
%TO.C,C5*%
X103750000Y-37250000D03*
X102200000Y-37250000D03*
%TD*%
D21*
%TO.C,U2*%
X49505000Y-104675000D03*
X48235000Y-104675000D03*
X46965000Y-104675000D03*
X45695000Y-104675000D03*
X45695000Y-98925000D03*
X46965000Y-98925000D03*
X48235000Y-98925000D03*
X49505000Y-98925000D03*
D22*
X47600000Y-101800000D03*
%TD*%
D18*
%TO.C,C8*%
X135303375Y-60050000D03*
X135303375Y-61950000D03*
%TD*%
D34*
%TO.C,U1*%
X32434300Y-43795700D03*
X32434300Y-46335700D03*
X41434300Y-46335700D03*
X41434300Y-43795700D03*
%TD*%
D21*
%TO.C,U8*%
X72838332Y-104675000D03*
X71568332Y-104675000D03*
X70298332Y-104675000D03*
X69028332Y-104675000D03*
X69028332Y-98925000D03*
X70298332Y-98925000D03*
X71568332Y-98925000D03*
X72838332Y-98925000D03*
D22*
X70933332Y-101800000D03*
%TD*%
D29*
%TO.C,R5*%
X45925000Y-65750000D03*
X47575000Y-65750000D03*
%TD*%
%TO.C,R6*%
X45925000Y-68750000D03*
X47575000Y-68750000D03*
%TD*%
D23*
%TO.C,C46*%
X135400000Y-90814434D03*
X135400000Y-85214434D03*
%TD*%
D35*
%TO.C,R7*%
X48850000Y-27225000D03*
X48850000Y-28875000D03*
%TD*%
D34*
%TO.C,U4*%
X32434300Y-50795700D03*
X32434300Y-53335700D03*
X41434300Y-53335700D03*
X41434300Y-50795700D03*
%TD*%
D36*
%TO.C,IC2*%
X130503375Y-57163250D03*
X128803375Y-57163250D03*
X127103375Y-57163250D03*
X125403375Y-57163250D03*
X123703375Y-57163250D03*
%TD*%
D16*
%TO.C,C43*%
X148300000Y-103725000D03*
X148300000Y-105275000D03*
%TD*%
%TO.C,C41*%
X123100000Y-103725000D03*
X123100000Y-105275000D03*
%TD*%
D25*
%TO.C,R26*%
X107725000Y-48150000D03*
X106075000Y-48150000D03*
%TD*%
D16*
%TO.C,C9*%
X67434300Y-60790700D03*
X67434300Y-62340700D03*
%TD*%
%TO.C,C3*%
X41934300Y-69340700D03*
X41934300Y-70890700D03*
%TD*%
D37*
%TO.C,IC3*%
X103992000Y-50900000D03*
X103992000Y-51400000D03*
X103992000Y-51900000D03*
X103992000Y-52400000D03*
X107142000Y-52400000D03*
X107142000Y-51900000D03*
X107142000Y-51400000D03*
X107142000Y-50900000D03*
%TD*%
D29*
%TO.C,R27*%
X98725000Y-51550000D03*
X100375000Y-51550000D03*
%TD*%
D38*
%TO.C,D1*%
X115050000Y-64500000D03*
X116625000Y-64500000D03*
%TD*%
D26*
%TO.C,R25*%
X110500000Y-52925000D03*
X110500000Y-51275000D03*
%TD*%
D39*
%TO.C,C31*%
X99575000Y-66900000D03*
X101125000Y-66900000D03*
%TD*%
D23*
%TO.C,C44*%
X111800000Y-90814434D03*
X111800000Y-85214434D03*
%TD*%
D35*
%TO.C,R24*%
X110500000Y-48150000D03*
X110500000Y-49800000D03*
%TD*%
D23*
%TO.C,C45*%
X124500000Y-90814434D03*
X124500000Y-85214434D03*
%TD*%
D18*
%TO.C,C4*%
X44134300Y-75265700D03*
X44134300Y-77165700D03*
%TD*%
D16*
%TO.C,C48*%
X115900000Y-50650000D03*
X115900000Y-52200000D03*
%TD*%
D40*
%TO.C,Q1*%
X32339300Y-72253200D03*
X30439300Y-72253200D03*
X31389300Y-74128200D03*
%TD*%
D41*
%TO.C,C12*%
X155303375Y-45500000D03*
X155303375Y-53900000D03*
%TD*%
D35*
%TO.C,R22*%
X102600000Y-68450000D03*
X102600000Y-70100000D03*
%TD*%
D23*
%TO.C,C38*%
X76400000Y-90814434D03*
X76400000Y-85214434D03*
%TD*%
D39*
%TO.C,C17*%
X58250850Y-33295000D03*
X59800850Y-33295000D03*
%TD*%
D29*
%TO.C,R1*%
X28784300Y-50835700D03*
X30434300Y-50835700D03*
%TD*%
D16*
%TO.C,C40*%
X110900000Y-103825000D03*
X110900000Y-105375000D03*
%TD*%
D42*
%TO.C,D3*%
X155403375Y-61300000D03*
D43*
X155403375Y-69500000D03*
%TD*%
D21*
%TO.C,U11*%
X118780000Y-104675000D03*
X117510000Y-104675000D03*
X116240000Y-104675000D03*
X114970000Y-104675000D03*
X114970000Y-98925000D03*
X116240000Y-98925000D03*
X117510000Y-98925000D03*
X118780000Y-98925000D03*
D22*
X116875000Y-101800000D03*
%TD*%
D16*
%TO.C,C42*%
X135900000Y-103625000D03*
X135900000Y-105175000D03*
%TD*%
D44*
%TO.C,C6*%
X70434300Y-59090700D03*
X70434300Y-57540700D03*
%TD*%
D40*
%TO.C,Q2*%
X38439300Y-72453200D03*
X36539300Y-72453200D03*
X37489300Y-74328200D03*
%TD*%
D21*
%TO.C,U9*%
X84505000Y-104675000D03*
X83235000Y-104675000D03*
X81965000Y-104675000D03*
X80695000Y-104675000D03*
X80695000Y-98925000D03*
X81965000Y-98925000D03*
X83235000Y-98925000D03*
X84505000Y-98925000D03*
D22*
X82600000Y-101800000D03*
%TD*%
D21*
%TO.C,U12*%
X131455000Y-104675000D03*
X130185000Y-104675000D03*
X128915000Y-104675000D03*
X127645000Y-104675000D03*
X127645000Y-98925000D03*
X128915000Y-98925000D03*
X130185000Y-98925000D03*
X131455000Y-98925000D03*
D22*
X129550000Y-101800000D03*
%TD*%
D45*
%TO.C,D2*%
X129803375Y-52000000D03*
X129803375Y-48000000D03*
%TD*%
D16*
%TO.C,C35*%
X76300000Y-103625000D03*
X76300000Y-105175000D03*
%TD*%
D23*
%TO.C,C2*%
X41400000Y-90814434D03*
X41400000Y-85214434D03*
%TD*%
D16*
%TO.C,C34*%
X64800000Y-103725000D03*
X64800000Y-105275000D03*
%TD*%
D21*
%TO.C,U13*%
X144130000Y-104675000D03*
X142860000Y-104675000D03*
X141590000Y-104675000D03*
X140320000Y-104675000D03*
X140320000Y-98925000D03*
X141590000Y-98925000D03*
X142860000Y-98925000D03*
X144130000Y-98925000D03*
D22*
X142225000Y-101800000D03*
%TD*%
D41*
%TO.C,C10*%
X143303375Y-61300000D03*
X143303375Y-69700000D03*
%TD*%
D33*
%TO.C,C13*%
X90575000Y-37337500D03*
X89025000Y-37337500D03*
%TD*%
D21*
%TO.C,U14*%
X156805000Y-104675000D03*
X155535000Y-104675000D03*
X154265000Y-104675000D03*
X152995000Y-104675000D03*
X152995000Y-98925000D03*
X154265000Y-98925000D03*
X155535000Y-98925000D03*
X156805000Y-98925000D03*
D22*
X154900000Y-101800000D03*
%TD*%
D46*
%TO.C,D4*%
X26684300Y-54565700D03*
X26684300Y-58565700D03*
%TD*%
M02*
